<?xml version="1.0" standalone="no"?>
<!DOCTYPE svg PUBLIC "-//W3C//DTD SVG 20010904//EN"
 "http://www.w3.org/TR/2001/REC-SVG-20010904/DTD/svg10.dtd">
<svg version="1.0" xmlns="http://www.w3.org/2000/svg"
 width="252" height="144" viewBox="0 0 252 144"
 preserveAspectRatio="xMidYMid meet">

<g transform="translate(0,144) scale(0.1,-0.1)"  id="nome">
<path d="M620 1275 c0 -31 -22 -33 -43 -2 -8 12 -18 19 -22 16 -9 -10 6 -229
16 -229 5 0 18 9 28 19 22 22 58 18 65 -8 3 -9 10 -101 16 -205 6 -104 16
-198 21 -208 9 -16 26 -18 206 -18 188 0 198 -1 230 -22 60 -41 60 -117 -1
-162 -23 -18 -46 -22 -144 -26 l-117 -5 -2 -50 c0 -27 -4 -69 -8 -92 -7 -40
-6 -42 20 -49 40 -10 136 3 188 25 54 23 125 92 165 160 24 41 27 56 27 136 0
103 -19 158 -76 214 -62 62 -94 71 -276 71 -118 0 -164 3 -170 13 -4 6 -9 80
-11 162 -1 83 -5 160 -7 171 -3 12 -21 31 -40 42 -19 12 -37 32 -41 46 -8 33
-24 34 -24 1z"/>
<path d="M1506 1025 c-3 -9 -1 -25 4 -35 6 -10 10 -32 10 -49 0 -24 -4 -31
-19 -31 -16 0 -20 8 -23 43 -2 35 -7 43 -26 45 -36 5 -37 -23 -3 -75 35 -53
36 -76 4 -81 -36 -5 -41 -22 -34 -112 l6 -85 39 -6 c44 -7 56 -21 56 -69 1
-50 27 -259 38 -295 5 -16 15 -30 22 -30 43 0 53 140 19 280 -22 94 -17 115
26 115 27 0 36 17 24 45 -4 11 -8 48 -8 83 -1 57 -3 63 -26 72 -14 5 -25 18
-25 27 0 10 11 35 25 55 32 48 33 81 3 76 -18 -2 -24 -11 -28 -38 -5 -36 -29
-80 -42 -80 -12 0 -9 85 3 97 6 6 9 21 7 34 -4 29 -42 39 -52 14z"/>
<path d="M1806 941 c-3 -4 1 -39 9 -77 8 -38 15 -110 15 -161 0 -51 5 -95 10
-98 6 -3 22 3 37 15 19 15 35 19 53 15 57 -15 62 -38 25 -120 -27 -57 -26 -75
3 -75 17 0 57 57 85 120 77 178 32 280 -122 280 -54 0 -71 15 -71 62 0 35 -30
62 -44 39z"/>
<path d="M1314 686 c-9 -24 4 -48 23 -44 12 2 18 12 18 28 0 29 -32 41 -41 16z"/>
<path d="M1727 693 c-4 -3 -7 -17 -7 -30 0 -16 6 -23 20 -23 25 0 36 25 20 45
-14 16 -23 19 -33 8z"/>
</g>
</svg>
