<?xml version="1.0" standalone="no"?>
<!DOCTYPE svg PUBLIC "-//W3C//DTD SVG 20010904//EN"
 "http://www.w3.org/TR/2001/REC-SVG-20010904/DTD/svg10.dtd">
<svg version="1.0" xmlns="http://www.w3.org/2000/svg"
 width="276" height="150" viewBox="0 0 276 150"
 preserveAspectRatio="xMidYMid meet">

<g transform="translate(0,150) scale(0.1,-0.1)" id="nome">
<path d="M957 1394 c-4 -4 -7 -15 -7 -25 0 -29 -22 -34 -41 -11 -9 12 -20 22
-23 22 -3 0 -6 -54 -6 -120 0 -66 3 -120 6 -120 4 0 17 11 30 25 27 30 50 32
63 6 6 -10 15 -101 21 -202 7 -101 16 -194 21 -206 8 -23 11 -23 206 -23 225
0 250 -7 280 -77 13 -33 13 -40 -1 -70 -28 -58 -66 -73 -188 -73 -72 0 -109
-4 -114 -12 -4 -6 -7 -32 -5 -56 1 -24 -3 -60 -10 -79 -16 -48 -3 -55 96 -50
99 4 165 36 231 111 59 68 77 108 82 192 8 133 -39 228 -140 278 -49 25 -60
26 -209 26 -87 0 -164 3 -173 6 -14 5 -16 30 -16 173 0 178 -3 191 -50 214
-14 7 -26 23 -28 37 -4 29 -15 43 -25 34z"/>
<path d="M464 1008 c14 -76 25 -178 26 -240 0 -74 8 -82 46 -47 29 27 80 18
96 -17 9 -19 6 -35 -16 -88 -27 -64 -28 -86 -1 -86 24 0 90 119 114 206 16 60
14 95 -9 132 -25 40 -73 62 -138 62 -53 0 -72 12 -72 48 0 32 -17 62 -36 62
-13 0 -15 -7 -10 -32z"/>
<path d="M1763 920 c-7 -8 -8 -22 -2 -43 5 -18 9 -56 9 -84 l0 -53 223 0 c215
0 226 -1 268 -23 24 -13 50 -34 56 -48 15 -28 8 -76 -16 -103 -37 -42 -61 -46
-284 -46 -163 0 -216 -3 -219 -12 -3 -7 -3 -48 0 -91 3 -65 8 -79 24 -88 13
-7 86 -9 207 -7 150 3 194 7 226 21 82 37 131 104 151 208 23 120 -6 219 -88
299 -76 74 -77 75 -323 78 -158 2 -223 0 -232 -8z"/>
<path d="M872 678 c2 -15 10 -23 23 -23 30 0 27 39 -3 43 -20 3 -23 0 -20 -20z"/>
<path d="M1664 685 c-4 -9 -2 -21 4 -27 16 -16 47 -5 47 17 0 26 -42 34 -51
10z"/>
</g>
</svg>
