<?xml version="1.0" standalone="no"?>
<!DOCTYPE svg PUBLIC "-//W3C//DTD SVG 20010904//EN"
 "http://www.w3.org/TR/2001/REC-SVG-20010904/DTD/svg10.dtd">
<svg version="1.0" xmlns="http://www.w3.org/2000/svg"
 width="274" height="154" viewBox="0 0 274 154"
 preserveAspectRatio="xMidYMid meet">

<g transform="translate(0,154) scale(0.1,-0.1)" stroke="none" id="nome">
<path d="M1785 1410 c-8 -37 -18 -38 -40 -4 -9 14 -19 23 -23 20 -9 -9 -2
-230 8 -240 4 -4 16 4 26 18 12 20 24 26 43 24 31 -4 39 -27 40 -118 1 -108
24 -315 35 -322 6 -4 102 -8 213 -8 l202 0 35 -34 c50 -46 50 -89 1 -136 -36
-35 -36 -35 -158 -41 -67 -4 -123 -7 -124 -8 -1 0 -4 -31 -6 -68 -3 -38 -7
-79 -9 -93 l-3 -25 90 1 c77 0 97 4 140 26 58 30 119 92 160 163 26 43 29 58
29 129 -1 126 -46 209 -139 259 -36 20 -59 22 -217 25 -171 3 -176 4 -182 25
-3 12 -6 90 -6 173 0 135 -2 152 -20 171 -10 12 -29 24 -40 28 -13 4 -23 18
-27 36 -7 37 -20 37 -28 -1z"/>
<path d="M543 993 c2 -16 10 -64 17 -108 7 -44 17 -86 23 -92 5 -8 32 -13 63
-13 48 0 56 -3 63 -23 5 -12 15 -98 21 -190 14 -183 25 -214 56 -156 14 28 16
65 16 251 -1 231 -5 250 -52 293 -16 15 -40 21 -96 23 -61 4 -74 7 -79 23 -4
10 -13 19 -22 19 -11 0 -14 -7 -10 -27z"/>
<path d="M1015 1010 c-4 -6 -8 -55 -10 -110 l-4 -99 43 -25 c44 -26 59 -46 51
-68 -3 -7 -11 -60 -19 -118 -8 -58 -24 -131 -35 -162 -16 -46 -17 -59 -7 -74
11 -15 18 -15 46 -6 65 23 110 11 110 -30 0 -27 26 -22 48 9 44 64 55 148 23
177 -10 9 -41 25 -67 35 -45 15 -49 20 -52 52 -3 37 12 89 26 89 5 0 82 -63
172 -140 162 -139 233 -186 263 -175 13 5 29 57 59 185 2 11 -6 15 -30 15 -25
0 -50 14 -102 55 -38 30 -69 63 -70 72 0 10 23 32 53 52 66 44 94 70 102 95 8
28 -18 75 -60 107 -19 15 -38 37 -41 50 -9 37 -38 29 -57 -14 -9 -21 -30 -53
-47 -72 -16 -18 -30 -38 -30 -43 0 -5 19 -26 43 -47 35 -32 40 -41 31 -57 -6
-10 -23 -19 -38 -21 -22 -3 -45 12 -114 71 -102 87 -178 142 -209 151 -12 4
-31 18 -42 32 -21 27 -27 29 -36 14z"/>
<path d="M902 741 c-20 -12 -10 -46 14 -49 25 -4 40 24 23 44 -13 16 -19 17
-37 5z"/>
<path d="M1712 718 c2 -15 11 -24 26 -26 18 -3 22 1 22 22 0 21 -5 26 -26 26
-21 0 -25 -4 -22 -22z"/>
</g>
</svg>
