<?xml version="1.0" standalone="no"?>
<!DOCTYPE svg PUBLIC "-//W3C//DTD SVG 20010904//EN"
 "http://www.w3.org/TR/2001/REC-SVG-20010904/DTD/svg10.dtd">
<svg version="1.0" xmlns="http://www.w3.org/2000/svg"
 width="288" height="164" viewBox="0 0 288 164"
 preserveAspectRatio="xMidYMid meet">

<g transform="translate(0,164) scale(0.1,-0.1)"
id="nome">
<path d="M483 1154 c-3 -9 -1 -25 5 -35 7 -10 12 -37 12 -60 0 -41 0 -42 -20
-24 -12 11 -20 31 -20 51 0 34 -22 56 -47 47 -20 -7 -15 -48 6 -67 11 -10 24
-31 30 -47 9 -27 7 -30 -21 -45 l-30 -16 7 -81 c3 -45 11 -86 16 -92 6 -5 47
-12 92 -15 l82 -5 12 -105 c6 -60 7 -112 2 -121 -4 -9 -36 -24 -71 -33 -96
-27 -104 -35 -111 -106 -4 -33 -12 -70 -17 -81 -18 -32 12 -34 96 -4 225 80
283 115 348 214 25 38 46 71 46 75 0 3 15 29 34 58 37 59 59 104 76 161 10 31
9 43 -7 75 -14 30 -32 44 -87 70 -38 18 -74 31 -81 28 -7 -2 -15 -22 -18 -43
-4 -22 -18 -60 -31 -86 -23 -42 -24 -48 -10 -62 9 -8 22 -15 30 -15 31 0 94
-33 94 -49 -1 -29 -85 -135 -125 -158 -23 -13 -53 -22 -70 -21 -36 3 -38 11
-57 243 l-13 150 -38 18 c-20 9 -37 20 -37 25 0 7 26 48 55 88 14 20 14 23 0
38 -27 26 -53 4 -57 -46 -2 -31 -8 -44 -20 -46 -15 -3 -18 4 -18 33 0 20 4 45
10 55 5 10 7 26 4 34 -8 21 -43 21 -51 0z"/>
<path d="M1263 1143 c-17 -6 -16 -43 2 -67 8 -11 15 -36 15 -57 0 -48 -23 -58
-56 -22 -13 14 -27 23 -31 19 -12 -12 -2 -230 11 -238 6 -4 113 -8 238 -8 210
0 228 -1 237 -18 12 -23 31 -201 31 -296 0 -40 3 -75 6 -79 23 -23 84 70 84
129 0 21 -12 86 -26 144 l-26 104 26 19 c22 15 26 27 26 66 0 26 7 73 15 105
9 33 14 61 12 63 -2 2 -15 -6 -30 -17 -23 -19 -40 -20 -245 -20 -164 0 -222 3
-229 13 -17 20 -21 67 -10 103 14 47 -9 74 -50 57z"/>
<path d="M2090 1135 c-11 -14 -11 -21 2 -43 8 -15 18 -44 22 -64 6 -31 3 -39
-13 -48 -17 -9 -24 -6 -42 14 -12 14 -26 23 -31 20 -13 -8 -10 -218 4 -232 9
-9 76 -12 238 -12 124 0 230 -4 237 -8 20 -13 34 -100 37 -237 1 -72 6 -137
10 -143 21 -35 86 58 86 124 0 20 -12 84 -26 142 l-27 105 27 19 c22 17 26 27
26 72 0 29 7 76 16 105 8 29 13 55 11 57 -2 2 -15 -5 -30 -16 -23 -19 -40 -20
-250 -20 -184 0 -227 3 -237 15 -7 9 -10 40 -8 87 3 68 1 73 -18 76 -11 2 -27
-4 -34 -13z"/>
<path d="M1081 746 c-6 -7 -9 -21 -5 -30 8 -21 40 -21 48 0 8 22 8 22 -13 33
-14 8 -22 7 -30 -3z"/>
<path d="M1894 736 c-8 -21 3 -36 27 -36 15 0 20 6 17 22 -4 27 -35 37 -44 14z"/>
<path d="M1258 653 c-30 -34 -78 -142 -78 -175 0 -19 7 -43 15 -54 17 -25 88
-47 135 -42 32 3 35 6 51 63 10 33 23 68 29 78 15 25 6 35 -38 43 -62 11 -73
21 -70 62 3 42 -18 54 -44 25z"/>
<path d="M2062 603 c-40 -63 -43 -72 -40 -128 3 -55 5 -61 33 -75 17 -8 57
-14 89 -15 l59 0 12 50 c6 28 17 60 23 72 21 39 15 50 -32 57 -61 10 -83 27
-70 57 13 30 8 49 -14 49 -10 0 -35 -28 -60 -67z"/>
</g>
</svg>
