<?xml version="1.0" standalone="no"?>
<!DOCTYPE svg PUBLIC "-//W3C//DTD SVG 20010904//EN"
 "http://www.w3.org/TR/2001/REC-SVG-20010904/DTD/svg10.dtd">
<svg version="1.0" xmlns="http://www.w3.org/2000/svg"
 width="284" height="162" viewBox="0 0 284 162"
 preserveAspectRatio="xMidYMid meet">

<g transform="translate(0,162) scale(0.1,-0.1)" id="nome">
<path d="M1060 1476 c0 -33 -16 -41 -32 -16 -7 11 -18 20 -25 20 -9 0 -11 -28
-6 -117 3 -65 7 -120 9 -122 2 -2 15 8 28 22 14 15 29 27 35 27 20 0 41 -33
41 -65 0 -54 20 -338 25 -362 5 -23 6 -23 196 -23 207 0 239 -6 277 -55 42
-53 21 -113 -52 -146 -31 -14 -65 -19 -143 -19 -111 0 -107 2 -104 -61 2 -21
-2 -54 -8 -75 -16 -58 -3 -67 89 -62 126 7 234 80 296 199 68 129 13 321 -110
387 -24 13 -70 17 -211 22 l-180 5 -6 75 c-4 41 -7 120 -8 176 -1 106 -5 118
-53 147 -19 12 -28 26 -28 42 0 16 -6 25 -15 25 -9 0 -15 -9 -15 -24z"/>
<path d="M336 1204 c-19 -19 -19 -22 -1 -54 16 -28 20 -106 6 -114 -15 -9 -40
4 -46 25 -4 10 -13 19 -21 19 -12 0 -14 -20 -12 -117 l3 -118 245 -5 c135 -3
246 -7 247 -8 10 -12 24 -133 28 -242 2 -74 4 -138 5 -142 1 -20 32 -5 56 27
38 50 41 102 11 215 -14 52 -26 100 -27 105 -5 22 1 32 24 43 21 9 24 19 28
84 3 41 12 89 21 106 19 39 8 48 -26 22 -23 -19 -41 -20 -250 -20 -182 0 -227
3 -236 14 -15 18 -17 87 -3 113 8 15 7 25 -4 41 -18 26 -27 27 -48 6z"/>
<path d="M1917 1036 c-13 -10 -25 -74 -30 -156 -2 -25 9 -32 74 -45 15 -2 29
-11 32 -20 4 -8 -7 -88 -23 -177 -31 -171 -36 -228 -21 -228 13 0 51 49 51 66
0 17 78 303 90 332 10 23 12 23 155 20 l145 -3 36 -37 c34 -34 37 -41 38 -100
l1 -63 -169 -3 c-107 -1 -175 -7 -183 -14 -10 -8 -13 -34 -11 -97 l3 -86 216
-3 c186 -2 218 0 229 13 11 13 11 43 1 163 -16 199 -30 266 -66 326 -52 86
-115 112 -260 104 l-60 -3 -5 -57 c-3 -31 -10 -62 -17 -69 -20 -20 -43 -2 -43
32 0 40 -32 85 -67 93 -16 3 -45 10 -65 15 -25 6 -42 5 -51 -3z"/>
<path d="M1004 765 c-8 -21 2 -45 19 -45 8 0 20 7 27 15 10 12 10 18 0 30 -7
8 -19 15 -27 15 -7 0 -16 -7 -19 -15z"/>
<path d="M1801 762 c-7 -13 -6 -23 1 -30 26 -26 54 -7 43 28 -8 25 -31 26 -44
2z"/>
<path d="M327 708 c-35 -46 -77 -138 -77 -169 0 -56 68 -99 159 -99 32 0 34 4
46 74 4 22 13 49 21 60 23 33 17 45 -28 56 -65 16 -73 23 -73 65 0 50 -17 54
-48 13z"/>
</g>
</svg>
