<?xml version="1.0" standalone="no"?>
<!DOCTYPE svg PUBLIC "-//W3C//DTD SVG 20010904//EN"
 "http://www.w3.org/TR/2001/REC-SVG-20010904/DTD/svg10.dtd">
<svg version="1.0" xmlns="http://www.w3.org/2000/svg"
 width="224" height="112" viewBox="0 0 224 112"
 preserveAspectRatio="xMidYMid meet">

<g transform="translate(0,112) scale(0.1,-0.1)" id="nome">
<path d="M670 795 c0 -15 7 -73 16 -128 9 -56 14 -118 11 -138 -7 -54 4 -66
40 -40 32 24 72 22 95 -6 12 -14 0 -61 -37 -145 -5 -13 -2 -20 11 -25 25 -10
67 44 104 136 31 78 39 155 20 191 -20 37 -69 62 -137 68 l-66 7 -17 49 c-18
56 -40 72 -40 31z"/>
<path d="M1094 807 c-3 -9 1 -59 10 -111 9 -51 16 -123 16 -160 0 -66 7 -79
30 -51 7 9 29 15 51 15 63 0 69 -31 25 -133 -17 -39 -14 -57 9 -57 38 0 116
157 123 246 7 99 -23 130 -142 149 l-69 10 -16 47 c-19 55 -28 67 -37 45z"/>
<path d="M1507 803 c-3 -5 2 -44 10 -88 8 -44 15 -116 17 -159 3 -81 12 -99
36 -71 15 18 81 20 98 3 18 -18 14 -47 -13 -107 -19 -41 -23 -57 -14 -67 20
-24 45 2 89 92 91 183 56 294 -93 294 -61 0 -70 6 -89 68 -12 38 -30 54 -41
35z"/>
<path d="M1007 587 c-22 -16 -13 -47 14 -47 25 0 36 28 17 46 -11 12 -17 12
-31 1z"/>
<path d="M1413 574 c-3 -8 2 -23 11 -32 16 -16 18 -16 31 1 7 11 11 25 8 33
-7 19 -42 18 -50 -2z"/>
</g>
</svg>
