<?xml version="1.0" standalone="no"?>
<!DOCTYPE svg PUBLIC "-//W3C//DTD SVG 20010904//EN"
 "http://www.w3.org/TR/2001/REC-SVG-20010904/DTD/svg10.dtd">
<svg version="1.0" xmlns="http://www.w3.org/2000/svg"
 width="280" height="164" viewBox="0 0 280 164"
 preserveAspectRatio="xMidYMid meet">

<g transform="translate(0,164) scale(0.1,-0.1)" id="nome">
<path d="M387 1523 c-4 -3 -7 -15 -7 -25 0 -23 -26 -24 -39 -1 -5 10 -13 14
-18 10 -7 -8 -5 -228 3 -236 2 -2 13 8 25 22 25 33 57 35 68 5 5 -13 14 -106
20 -208 7 -102 14 -192 17 -202 4 -14 30 -17 218 -20 238 -3 243 -5 273 -76
11 -28 11 -36 -2 -61 -30 -59 -66 -74 -194 -80 l-116 -6 -1 -45 c-1 -25 -4
-66 -9 -92 -8 -55 -15 -51 103 -49 88 1 150 30 215 101 77 83 92 118 92 220 0
98 -15 148 -57 195 -64 73 -84 79 -278 85 -96 3 -181 9 -187 13 -10 6 -13 50
-13 162 0 168 -6 192 -51 219 -18 11 -32 29 -36 47 -5 29 -13 35 -26 22z"/>
<path d="M1245 1234 c-16 -16 -13 -48 6 -68 5 -6 9 -27 9 -48 0 -48 -22 -59
-54 -29 -12 12 -26 18 -29 14 -13 -12 -8 -218 5 -231 9 -9 77 -12 244 -12
l232 0 10 -27 c6 -16 15 -102 19 -193 8 -155 9 -165 28 -165 11 0 29 15 42 34
31 46 30 114 -2 236 -26 96 -26 115 0 115 23 0 35 34 35 100 0 33 7 77 15 97
8 20 13 38 11 41 -3 2 -20 -5 -39 -17 -32 -20 -48 -21 -243 -21 -272 0 -268
-3 -239 137 6 25 3 33 -13 42 -16 9 -24 7 -37 -5z"/>
<path d="M1954 1135 c-4 -9 4 -118 16 -243 24 -245 39 -299 86 -320 35 -17
200 -16 206 1 3 6 2 41 -2 76 -8 83 -19 91 -126 91 -92 0 -94 2 -94 75 0 30 5
45 16 49 20 8 252 8 282 0 22 -6 22 -9 22 -150 0 -129 2 -145 18 -150 39 -12
47 -22 50 -62 6 -82 7 -81 -211 -84 l-192 -3 4 -85 c1 -47 7 -89 13 -95 5 -5
55 -10 111 -10 164 0 258 49 318 166 43 85 45 358 4 525 -10 38 -21 73 -26 79
-5 5 -9 17 -9 26 0 39 -42 45 -322 48 l-116 1 -12 35 c-13 41 -28 53 -36 30z"/>
<path d="M1097 824 c-10 -10 -9 -42 2 -48 18 -11 42 6 39 28 -3 21 -28 33 -41
20z"/>
<path d="M1852 818 c-16 -16 -15 -35 3 -42 20 -7 45 3 45 18 0 13 -20 36 -30
36 -3 0 -11 -5 -18 -12z"/>
<path d="M1254 762 c-24 -14 -94 -157 -94 -190 0 -65 50 -102 140 -102 48 0
56 8 63 63 4 26 13 60 21 76 18 35 6 51 -38 51 -47 0 -61 14 -61 61 0 42 -10
55 -31 41z"/>
</g>
</svg>
