<?xml version="1.0" standalone="no"?>
<!DOCTYPE svg PUBLIC "-//W3C//DTD SVG 20010904//EN"
 "http://www.w3.org/TR/2001/REC-SVG-20010904/DTD/svg10.dtd">
<svg version="1.0" xmlns="http://www.w3.org/2000/svg"
 width="280" height="142" viewBox="0 0 280 142"
 preserveAspectRatio="xMidYMid meet">

<g transform="translate(0,142) scale(0.1,-0.1)" id="nome">
<path d="M1991 1113 c-6 -12 -5 -26 6 -46 8 -16 15 -47 16 -70 2 -36 -1 -42
-19 -45 -14 -2 -27 6 -38 23 -9 14 -21 23 -26 20 -5 -3 -8 -55 -8 -115 0 -98
3 -112 20 -124 15 -11 62 -13 225 -9 113 2 216 2 229 -1 32 -8 44 -76 44 -247
0 -116 3 -141 15 -146 18 -6 51 21 71 59 23 45 14 151 -25 278 -10 31 -9 36
18 60 25 24 28 33 29 98 1 42 8 84 17 102 19 36 5 46 -25 20 -22 -19 -36 -20
-254 -18 l-230 3 -9 35 c-6 23 -5 48 3 73 9 29 8 42 -1 53 -16 19 -46 18 -58
-3z"/>
<path d="M1573 1002 c-5 -4 -18 -23 -28 -42 -10 -19 -33 -55 -52 -80 l-35 -45
41 -35 c45 -39 52 -64 22 -80 -31 -16 -37 -13 -114 53 -88 77 -170 138 -217
162 -19 9 -45 27 -57 38 -13 11 -25 18 -28 15 -4 -3 -7 -39 -9 -79 -2 -41 -7
-84 -11 -96 -7 -23 -7 -23 69 -86 l29 -23 -12 -90 c-7 -49 -22 -125 -33 -169
-33 -126 -35 -120 51 -120 l74 0 9 -33 c6 -23 14 -32 25 -30 23 4 66 94 71
149 5 57 -15 79 -87 98 -27 7 -51 18 -54 24 -7 18 16 117 26 117 11 0 83 -60
197 -164 102 -92 185 -146 226 -146 30 0 34 3 39 37 3 21 14 65 25 98 10 33
16 64 13 68 -3 5 -18 5 -34 2 -24 -5 -38 1 -86 38 -73 56 -100 86 -87 95 5 4
35 23 65 43 72 47 102 85 94 119 -3 14 -28 46 -55 72 -28 26 -50 57 -50 67 0
23 -11 33 -27 23z"/>
<path d="M660 956 c-12 -23 -34 -56 -50 -71 -17 -16 -30 -35 -30 -43 0 -8 18
-30 40 -49 47 -40 50 -60 14 -74 -37 -13 -54 -6 -123 56 -73 65 -153 125 -201
151 -19 10 -47 29 -61 42 -36 32 -41 21 -45 -100 -3 -86 -1 -100 14 -105 9 -3
29 -15 45 -25 22 -16 27 -27 27 -59 0 -64 -29 -226 -51 -284 -11 -30 -17 -60
-14 -65 5 -7 30 -9 74 -4 70 7 85 0 92 -40 8 -39 28 -26 58 37 40 83 41 129 4
154 -16 11 -47 25 -70 33 -45 14 -56 28 -48 66 3 13 7 35 10 49 3 14 12 25 20
25 12 0 159 -121 195 -160 3 -3 32 -28 65 -56 68 -58 133 -94 169 -94 22 0 26
6 36 58 7 31 19 74 26 95 18 47 12 58 -26 51 -24 -5 -40 3 -100 51 -44 35 -70
63 -68 73 2 8 30 34 62 56 33 23 68 53 79 68 18 23 18 30 7 57 -7 17 -30 47
-52 66 -21 20 -43 47 -48 60 -14 36 -27 31 -50 -19z"/>
<path d="M944 685 c-8 -21 2 -45 19 -45 8 0 20 7 27 15 10 12 10 18 0 30 -7 8
-19 15 -27 15 -7 0 -16 -7 -19 -15z"/>
<path d="M1785 680 c-8 -26 6 -43 31 -38 13 2 19 12 19 28 0 34 -40 41 -50 10z"/>
<path d="M1982 613 c-64 -100 -82 -192 -43 -227 19 -17 134 -41 157 -32 6 2
17 28 23 56 6 28 18 64 26 81 20 37 15 45 -32 53 -74 13 -74 13 -71 64 4 66
-20 68 -60 5z"/>
</g>
</svg>
