<?xml version="1.0" standalone="no"?>
<!DOCTYPE svg PUBLIC "-//W3C//DTD SVG 20010904//EN"
 "http://www.w3.org/TR/2001/REC-SVG-20010904/DTD/svg10.dtd">
<svg version="1.0" xmlns="http://www.w3.org/2000/svg"
 width="252" height="120" viewBox="0 0 252 120"
 preserveAspectRatio="xMidYMid meet">

<g transform="translate(0,120) scale(0.1,-0.1)" id="nome">
<path d="M443 994 c-3 -8 0 -42 6 -75 7 -33 14 -102 16 -152 2 -51 4 -95 5
-99 0 -15 27 -8 45 12 23 25 46 25 76 1 21 -17 22 -22 12 -62 -6 -24 -17 -59
-24 -76 -15 -36 -4 -58 22 -48 19 7 74 102 95 163 52 156 13 228 -132 240
l-63 5 -12 48 c-13 49 -35 71 -46 43z"/>
<path d="M864 996 c-3 -8 0 -31 6 -53 6 -21 13 -93 17 -161 3 -67 10 -125 14
-128 5 -2 18 5 29 16 25 25 87 24 103 -2 12 -18 -5 -84 -31 -125 -8 -13 -12
-30 -8 -38 8 -22 39 -18 55 7 81 130 113 241 86 304 -19 46 -68 74 -131 74
-60 0 -79 13 -88 59 -10 53 -40 79 -52 47z"/>
<path d="M1307 884 c-9 -10 4 -167 16 -181 7 -10 60 -13 204 -13 261 0 258 1
287 -175 8 -49 18 -115 21 -145 7 -53 19 -80 35 -80 14 0 19 26 36 177 18 163
14 264 -12 315 -48 96 -89 108 -369 108 -116 0 -214 -3 -218 -6z"/>
<path d="M793 713 c-7 -2 -13 -16 -13 -29 0 -19 5 -24 25 -24 30 0 43 24 25
45 -13 16 -17 17 -37 8z"/>
<path d="M1196 694 c-9 -23 10 -43 35 -37 14 4 19 12 17 27 -4 26 -43 34 -52
10z"/>
</g>
</svg>
