<?xml version="1.0" standalone="no"?>
<!DOCTYPE svg PUBLIC "-//W3C//DTD SVG 20010904//EN"
 "http://www.w3.org/TR/2001/REC-SVG-20010904/DTD/svg10.dtd">
<svg version="1.0" xmlns="http://www.w3.org/2000/svg"
 width="254" height="134" viewBox="0 0 254 134"
 preserveAspectRatio="xMidYMid meet">

<g transform="translate(0,134) scale(0.1,-0.1)" id="nome">
<path d="M1975 931 c-3 -6 1 -43 10 -83 8 -40 15 -115 15 -165 0 -99 8 -113
43 -73 22 26 61 26 87 0 23 -23 20 -49 -11 -112 -23 -44 -24 -64 -5 -71 20 -8
50 28 85 102 85 180 54 291 -81 291 -59 0 -98 20 -98 50 0 24 -21 70 -31 70
-4 0 -10 -4 -14 -9z"/>
<path d="M409 818 c-1 -2 -3 -45 -5 -95 -3 -91 -2 -93 20 -93 45 0 54 -19 58
-115 l3 -90 -47 -3 c-25 -2 -51 -8 -56 -15 -5 -7 -12 -51 -15 -99 l-6 -88 78
0 c89 0 130 20 164 79 18 29 19 39 9 81 -6 26 -25 77 -42 114 -16 37 -30 80
-30 96 0 25 5 30 33 35 19 4 93 5 166 3 113 -3 135 -6 146 -21 14 -19 28 -149
29 -267 1 -90 18 -102 63 -44 25 33 28 45 26 103 -1 38 -10 89 -22 121 -28 74
-27 94 7 106 27 9 27 10 28 102 l0 92 -303 0 c-167 0 -304 -1 -304 -2z"/>
<path d="M1206 783 c5 -21 9 -58 10 -83 0 -25 1 -51 2 -57 2 -10 48 -13 196
-13 107 0 206 -4 220 -10 35 -13 62 -61 70 -123 25 -202 38 -267 56 -267 12 0
20 10 24 27 12 55 25 170 32 268 8 118 -8 192 -52 239 -49 52 -72 56 -330 56
l-236 0 8 -37z"/>
<path d="M1107 613 c-13 -12 -7 -44 8 -49 24 -10 47 14 34 37 -10 19 -30 25
-42 12z"/>
<path d="M1893 613 c-18 -7 -16 -42 3 -50 8 -3 23 1 31 10 13 13 14 19 3 31
-13 17 -17 18 -37 9z"/>
</g>
</svg>
