<?xml version="1.0" standalone="no"?>
<!DOCTYPE svg PUBLIC "-//W3C//DTD SVG 20010904//EN"
 "http://www.w3.org/TR/2001/REC-SVG-20010904/DTD/svg10.dtd">
<svg version="1.0" xmlns="http://www.w3.org/2000/svg"
 width="240" height="156" viewBox="0 0 240 156"
 preserveAspectRatio="xMidYMid meet">

<g transform="translate(0,156) scale(0.1,-0.1)" id="nome">
<path d="M827 1334 c-6 -7 1 -181 9 -221 2 -13 8 -23 12 -23 4 0 12 10 17 23
12 26 59 36 68 13 3 -8 11 -99 17 -203 7 -103 16 -198 20 -210 9 -21 14 -22
219 -25 l211 -3 31 -31 c47 -48 45 -97 -6 -141 -34 -30 -45 -33 -104 -35 -36
0 -79 0 -95 1 -66 6 -73 -2 -78 -86 -3 -43 -7 -85 -9 -93 -7 -25 145 -26 203
-1 60 25 122 82 167 151 35 54 36 57 36 155 -1 86 -4 106 -24 140 -32 55 -49
74 -100 107 l-45 28 -173 0 c-160 0 -173 1 -183 19 -5 11 -10 86 -10 171 0 83
-4 160 -10 170 -5 10 -25 27 -45 39 -19 11 -35 27 -35 36 0 8 -4 15 -10 15 -5
0 -9 -3 -9 -7 4 -23 -3 -33 -21 -33 -11 0 -20 6 -20 14 0 16 -24 38 -33 30z"/>
<path d="M504 948 c4 -23 9 -100 12 -170 3 -71 10 -128 15 -128 6 0 23 9 38
21 35 25 86 19 96 -12 9 -27 -3 -77 -27 -117 -19 -32 -20 -35 -4 -50 16 -16
19 -15 42 13 34 43 80 142 94 206 23 105 -32 169 -146 169 -58 0 -62 2 -72 28
-6 15 -12 38 -14 52 -2 15 -11 26 -22 28 -16 4 -18 -1 -12 -40z"/>
<path d="M1706 981 c-4 -5 -1 -22 4 -37 6 -16 14 -88 17 -161 6 -139 12 -153
48 -113 23 25 56 26 86 1 l24 -19 -22 -66 c-28 -78 -29 -96 -5 -96 22 0 78 90
103 167 47 141 3 223 -118 223 -32 0 -63 4 -70 8 -6 4 -17 29 -23 55 -11 44
-31 60 -44 38z"/>
<path d="M852 751 c-20 -12 -10 -46 14 -49 25 -4 40 24 23 44 -13 16 -19 17
-37 5z"/>
<path d="M1615 743 c-15 -14 -15 -18 -1 -31 18 -19 46 -9 46 17 0 26 -26 34
-45 14z"/>
</g>
</svg>
