<?xml version="1.0" standalone="no"?>
<!DOCTYPE svg PUBLIC "-//W3C//DTD SVG 20010904//EN"
 "http://www.w3.org/TR/2001/REC-SVG-20010904/DTD/svg10.dtd">
<svg version="1.0" xmlns="http://www.w3.org/2000/svg"
 width="202" height="140" viewBox="0 0 202 140"
 preserveAspectRatio="xMidYMid meet">

<g transform="translate(0,140) scale(0.1,-0.1)" id="nome">
<path d="M942 1109 c-53 -95 -45 -89 -121 -89 -73 0 -101 13 -101 48 -1 28
-28 58 -41 45 -8 -8 -7 -24 5 -59 9 -26 16 -79 16 -119 0 -87 16 -115 66 -115
19 0 34 -3 34 -7 0 -3 7 -74 16 -157 17 -174 29 -226 49 -226 37 0 54 113 32
210 -8 36 -18 91 -22 122 l-7 57 33 3 34 3 -3 90 c-3 88 8 134 33 141 6 2 25
-17 43 -42 26 -34 35 -59 39 -102 8 -85 13 -91 86 -94 l62 -3 12 -80 c6 -44
12 -118 13 -165 2 -101 10 -134 33 -138 27 -5 32 38 32 273 0 191 -2 224 -18
252 -23 43 -64 63 -130 63 -54 0 -55 1 -110 60 -31 33 -59 60 -62 60 -3 0 -14
-14 -23 -31z"/>
<path d="M1447 1122 c-3 -4 -2 -25 3 -47 5 -21 12 -94 16 -162 4 -68 10 -126
14 -128 4 -2 15 4 25 15 25 28 90 28 105 0 12 -23 1 -72 -28 -121 -18 -31 -9
-62 15 -57 39 7 123 196 123 276 0 34 -32 87 -62 103 -13 7 -52 15 -88 18
l-65 6 -16 50 c-16 48 -32 65 -42 47z"/>
<path d="M265 1028 c4 -18 10 -68 14 -110 3 -42 9 -79 13 -83 3 -3 34 -8 67
-9 34 -2 65 -6 68 -10 4 -4 11 -55 15 -114 21 -262 22 -267 40 -270 32 -6 40
59 36 293 -3 202 -5 222 -23 247 -27 36 -56 48 -119 48 -38 0 -61 6 -79 20
-35 28 -41 25 -32 -12z"/>
<path d="M613 803 c-18 -7 -16 -42 3 -50 8 -3 23 1 31 10 13 13 14 19 3 31
-13 17 -17 18 -37 9z"/>
<path d="M1354 785 c-8 -20 13 -45 32 -38 8 3 14 16 14 29 0 17 -6 24 -20 24
-11 0 -23 -7 -26 -15z"/>
</g>
</svg>
