<?xml version="1.0" standalone="no"?>
<!DOCTYPE svg PUBLIC "-//W3C//DTD SVG 20010904//EN"
 "http://www.w3.org/TR/2001/REC-SVG-20010904/DTD/svg10.dtd">
<svg version="1.0" xmlns="http://www.w3.org/2000/svg"
 width="264" height="134" viewBox="0 0 264 134"
 preserveAspectRatio="xMidYMid meet">

<g transform="translate(0,134) scale(0.1,-0.1)" id="nome">
<path d="M2056 1038 c-9 -12 -16 -28 -16 -34 0 -6 -18 -32 -40 -57 -38 -43
-51 -77 -30 -77 15 0 70 -55 70 -70 0 -16 -30 -39 -51 -40 -9 0 -47 27 -85 61
-73 64 -154 126 -226 171 -24 15 -51 33 -60 40 -9 7 -19 10 -21 8 -2 -3 -7
-51 -10 -107 l-6 -102 44 -28 c25 -15 47 -33 49 -40 9 -22 -27 -234 -55 -330
-18 -59 -6 -70 55 -53 61 17 94 8 98 -28 5 -43 30 -32 61 27 29 59 35 116 14
145 -7 10 -38 26 -67 36 -55 18 -55 19 -58 64 -3 45 12 90 28 84 12 -4 90 -70
195 -164 112 -100 176 -144 219 -151 30 -5 34 -2 45 27 6 18 11 43 11 55 0 13
7 39 16 60 20 49 13 68 -25 60 -18 -4 -34 -1 -42 7 -8 7 -40 33 -71 57 -32 24
-58 50 -58 57 0 8 18 27 41 42 70 46 119 93 119 114 0 31 -27 75 -64 103 -19
14 -39 39 -45 56 -12 35 -15 36 -35 7z"/>
<path d="M1170 1037 c0 -6 5 -28 11 -47 6 -19 13 -66 17 -105 l7 -70 55 -3
c30 -2 59 -7 66 -13 11 -9 27 -131 40 -289 7 -91 16 -112 39 -89 23 22 35 121
35 287 0 166 -11 221 -52 263 -27 26 -36 29 -93 29 -61 0 -95 14 -95 41 0 5
-7 9 -15 9 -8 0 -15 -6 -15 -13z"/>
<path d="M317 993 c-4 -3 -5 -36 -1 -72 9 -109 10 -111 48 -111 57 0 63 -15
69 -152 3 -68 4 -152 3 -188 l-1 -65 285 0 285 0 -3 95 c-1 52 -11 172 -21
265 l-20 170 -35 33 -36 32 -283 0 c-156 0 -287 -3 -290 -7z m583 -211 c19
-23 37 -139 26 -167 -5 -13 -37 -15 -215 -15 l-210 0 -5 33 c-17 112 -17 155
1 166 12 7 84 10 201 9 177 -3 184 -4 202 -26z"/>
<path d="M1097 743 c-22 -21 2 -56 31 -46 17 7 15 40 -4 47 -19 7 -19 7 -27
-1z"/>
<path d="M1507 733 c-12 -12 -7 -31 10 -37 19 -8 48 17 39 33 -8 12 -39 15
-49 4z"/>
</g>
</svg>
