<?xml version="1.0" standalone="no"?>
<!DOCTYPE svg PUBLIC "-//W3C//DTD SVG 20010904//EN"
 "http://www.w3.org/TR/2001/REC-SVG-20010904/DTD/svg10.dtd">
<svg version="1.0" xmlns="http://www.w3.org/2000/svg"
 width="268" height="128" viewBox="0 0 268 128"
 preserveAspectRatio="xMidYMid meet">

<g transform="translate(0,128) scale(0.1,-0.1)" id="nome">
<path d="M1123 1094 c-3 -9 -1 -32 6 -50 14 -38 7 -74 -15 -74 -10 0 -14 12
-14 39 0 41 -20 67 -45 57 -20 -7 -19 -50 1 -67 22 -18 44 -63 36 -76 -4 -5
-17 -15 -29 -22 -21 -11 -23 -19 -23 -89 0 -42 4 -84 10 -92 6 -10 34 -16 91
-20 100 -6 92 11 109 -233 11 -145 16 -176 29 -180 9 -2 57 4 106 14 208 39
368 152 454 319 13 25 28 54 33 64 6 11 13 45 15 76 5 52 3 60 -23 89 -24 27
-40 33 -92 41 -35 5 -69 7 -76 4 -12 -5 -39 -171 -30 -186 3 -4 20 -8 37 -8
80 0 102 -64 43 -124 -55 -54 -127 -76 -251 -76 -58 0 -105 4 -105 9 0 5 24
19 54 31 112 45 176 126 176 223 0 43 -5 59 -24 80 -29 31 -71 53 -119 62 -31
6 -42 15 -58 46 -19 38 -33 48 -43 31 -3 -5 2 -37 10 -73 8 -35 14 -93 12
-129 l-3 -65 41 -10 c107 -26 96 -70 -34 -134 -35 -18 -71 -31 -80 -29 -22 4
-31 50 -38 198 -7 133 -14 160 -42 160 -22 0 -42 19 -42 40 0 9 13 31 30 50
34 41 37 56 13 68 -29 15 -43 3 -43 -38 0 -28 -5 -42 -19 -49 -16 -9 -19 -6
-25 20 -3 18 0 41 8 58 10 18 11 32 5 44 -13 22 -38 22 -46 1z"/>
<path d="M2045 913 c4 -16 12 -64 18 -108 7 -44 16 -86 20 -92 5 -8 31 -13 67
-13 71 0 62 21 84 -214 9 -94 20 -174 26 -180 16 -16 37 22 44 79 9 77 7 365
-4 410 -5 24 -21 51 -40 68 -26 23 -39 27 -91 27 -51 0 -63 4 -83 25 -32 34
-50 33 -41 -2z"/>
<path d="M264 885 c-4 -9 -1 -29 6 -45 7 -17 10 -48 7 -69 -2 -21 -2 -43 2
-49 4 -6 85 -11 213 -14 202 -3 207 -4 232 -27 31 -29 50 -93 65 -226 16 -133
19 -145 35 -145 34 0 42 40 52 290 6 136 5 149 -16 192 -46 99 -73 107 -363
108 -195 0 -228 -2 -233 -15z"/>
<path d="M971 680 c-19 -11 -9 -45 14 -45 13 0 21 8 23 21 3 23 -17 37 -37 24z"/>
<path d="M1967 673 c-11 -10 -8 -41 4 -49 16 -9 43 21 36 40 -7 16 -28 21 -40
9z"/>
</g>
</svg>
