<?xml version="1.0" standalone="no"?>
<!DOCTYPE svg PUBLIC "-//W3C//DTD SVG 20010904//EN"
 "http://www.w3.org/TR/2001/REC-SVG-20010904/DTD/svg10.dtd">
<svg version="1.0" xmlns="http://www.w3.org/2000/svg"
 width="252" height="142" viewBox="0 0 252 142"
 preserveAspectRatio="xMidYMid meet">

<g transform="translate(0,142) scale(0.1,-0.1)" id="nome">
<path d="M1671 1143 c-6 -12 -6 -25 0 -34 5 -7 9 -29 9 -46 0 -26 -4 -33 -19
-33 -16 0 -20 8 -23 43 -2 35 -7 43 -26 45 -27 4 -41 -23 -23 -47 31 -43 51
-77 51 -88 0 -6 -14 -16 -30 -22 l-30 -10 6 -73 c9 -126 3 -118 93 -118 51 0
82 -4 88 -12 12 -16 37 -214 28 -228 -3 -5 -25 -14 -48 -20 -23 -6 -61 -18
-84 -26 -39 -14 -43 -19 -43 -48 0 -18 -7 -56 -15 -84 -18 -59 -13 -76 18 -66
40 11 249 94 286 114 52 26 107 89 175 200 121 195 140 264 89 319 -34 35
-139 79 -155 63 -11 -11 -58 -137 -61 -165 -2 -14 11 -23 50 -37 90 -32 91
-36 32 -121 -30 -42 -55 -65 -92 -84 -95 -47 -90 -58 -118 259 -10 113 -18
136 -51 136 -30 0 -32 26 -4 76 33 59 34 87 4 82 -18 -2 -24 -12 -29 -40 -6
-40 -26 -71 -40 -62 -13 7 -11 68 2 81 16 16 7 57 -13 61 -9 2 -21 -5 -27 -15z"/>
<path d="M364 1023 c3 -26 10 -73 15 -103 5 -30 10 -85 10 -122 1 -74 9 -87
36 -58 28 31 86 25 105 -10 6 -12 3 -34 -11 -71 -32 -84 -33 -88 -14 -95 12
-5 24 1 36 17 34 43 77 142 89 206 11 55 10 66 -6 100 -23 46 -60 66 -139 73
l-60 5 -17 50 c-10 31 -23 51 -33 53 -16 4 -17 -2 -11 -45z"/>
<path d="M805 950 c-4 -6 -3 -30 1 -53 5 -23 7 -57 5 -75 -5 -60 1 -62 218
-62 264 0 252 9 287 -229 22 -148 34 -186 53 -165 12 13 29 113 42 250 18 189
-12 279 -107 323 -40 19 -62 21 -268 21 -144 0 -227 -4 -231 -10z"/>
<path d="M700 755 c0 -22 4 -26 23 -23 14 2 22 10 22 23 0 13 -8 21 -22 23
-19 3 -23 -1 -23 -23z"/>
<path d="M1487 773 c-13 -12 -7 -41 10 -47 21 -9 46 16 37 37 -6 17 -35 23
-47 10z"/>
</g>
</svg>
