<?xml version="1.0" standalone="no"?>
<!DOCTYPE svg PUBLIC "-//W3C//DTD SVG 20010904//EN"
 "http://www.w3.org/TR/2001/REC-SVG-20010904/DTD/svg10.dtd">
<svg version="1.0" xmlns="http://www.w3.org/2000/svg"
 width="276" height="148" viewBox="0 0 276 148"
 preserveAspectRatio="xMidYMid meet">

<g transform="translate(0,148) scale(0.1,-0.1)" id="nome">
<path d="M1246 1263 c4 -65 9 -120 11 -123 3 -3 12 5 20 18 19 27 59 29 73 3
5 -11 10 -46 10 -78 0 -108 22 -338 34 -345 6 -4 90 -8 187 -8 202 0 229 -4
263 -35 50 -47 44 -104 -17 -149 -24 -18 -47 -22 -145 -26 l-117 -5 -7 -70
c-4 -38 -9 -81 -10 -95 l-3 -25 90 0 c73 0 98 4 136 23 58 28 129 99 166 166
25 45 28 60 27 136 0 71 -5 93 -26 135 -26 50 -70 96 -118 125 -19 11 -69 16
-203 18 l-178 4 -10 25 c-5 13 -9 90 -9 171 0 81 -4 152 -8 159 -17 27 -80 61
-105 56 -18 -4 -28 1 -36 16 -25 46 -32 21 -25 -96z"/>
<path d="M560 1094 c-12 -14 -12 -20 3 -46 22 -38 23 -104 2 -112 -9 -3 -24 3
-35 14 -11 11 -24 20 -30 20 -16 0 -13 -215 3 -229 9 -7 94 -12 243 -13 l229
-3 14 -30 c10 -21 16 -79 19 -190 2 -88 8 -164 13 -169 15 -16 66 42 79 89 10
35 9 56 -3 116 -9 41 -20 87 -26 102 -18 46 -13 73 14 91 22 15 25 24 25 79 1
34 7 80 15 101 18 50 11 62 -22 36 -24 -19 -40 -20 -249 -20 -260 0 -248 -5
-242 108 3 62 1 67 -18 70 -11 2 -27 -4 -34 -14z"/>
<path d="M2144 1025 c-4 -9 -1 -36 5 -61 7 -26 15 -97 18 -160 6 -115 14 -134
43 -99 7 9 29 15 51 15 58 0 66 -24 34 -103 -29 -73 -30 -83 -11 -90 22 -9 42
13 79 83 41 80 57 134 57 193 0 38 -6 51 -34 81 -31 33 -38 36 -90 36 -77 0
-92 10 -106 70 -12 50 -34 67 -46 35z"/>
<path d="M1234 726 c-9 -24 4 -48 23 -44 12 2 18 12 18 28 0 29 -32 41 -41 16z"/>
<path d="M2053 733 c-7 -2 -13 -16 -13 -29 0 -19 5 -24 25 -24 30 0 43 24 25
45 -13 16 -17 17 -37 8z"/>
<path d="M562 617 c-28 -30 -82 -150 -82 -182 0 -15 4 -34 10 -44 13 -25 81
-51 130 -51 42 0 60 18 60 62 0 13 9 38 20 56 29 47 26 60 -17 67 -74 12 -84
20 -81 66 3 49 -10 58 -40 26z"/>
</g>
</svg>
