<?xml version="1.0" standalone="no"?>
<!DOCTYPE svg PUBLIC "-//W3C//DTD SVG 20010904//EN"
 "http://www.w3.org/TR/2001/REC-SVG-20010904/DTD/svg10.dtd">
<svg version="1.0" xmlns="http://www.w3.org/2000/svg"
 width="236" height="126" viewBox="0 0 236 126"
 preserveAspectRatio="xMidYMid meet">

<g transform="translate(0,126) scale(0.1,-0.1)" id="nome">
<path d="M977 1094 c-12 -12 -7 -58 8 -78 8 -11 15 -35 15 -53 0 -46 -26 -55
-55 -19 -18 22 -24 25 -31 15 -13 -21 -4 -233 10 -241 6 -4 113 -8 237 -8 183
0 229 -3 238 -14 15 -18 31 -162 31 -283 0 -84 2 -93 18 -93 20 0 42 21 62 59
19 37 14 125 -13 224 -24 89 -23 96 14 110 12 4 17 25 22 95 3 50 11 99 18
111 17 27 4 39 -19 17 -17 -14 -46 -16 -258 -14 l-239 3 0 85 c0 84 0 85 -25
88 -14 2 -29 0 -33 -4z"/>
<path d="M474 933 c3 -16 9 -62 12 -103 9 -105 12 -108 87 -112 l62 -3 7 -50
c4 -27 14 -113 23 -190 9 -77 21 -144 26 -149 32 -33 52 114 47 344 -3 124 -7
161 -21 187 -24 44 -64 63 -136 63 -50 0 -63 4 -73 20 -20 31 -42 26 -34 -7z"/>
<path d="M1728 955 c-3 -3 1 -31 8 -63 8 -31 14 -77 14 -102 0 -65 10 -74 82
-80 l63 -5 7 -45 c3 -25 12 -107 19 -182 13 -146 18 -164 42 -155 24 9 32 84
32 292 0 173 -2 194 -21 230 -26 50 -72 75 -141 75 -42 0 -55 4 -65 20 -12 19
-29 26 -40 15z"/>
<path d="M812 681 c-23 -14 -10 -46 18 -46 16 0 26 6 28 19 3 16 -12 36 -28
36 -3 0 -11 -4 -18 -9z"/>
<path d="M1624 665 c-8 -21 2 -45 19 -45 21 0 38 25 31 44 -8 20 -43 21 -50 1z"/>
<path d="M964 578 c-61 -97 -79 -172 -50 -210 19 -25 79 -48 125 -48 45 0 61
18 61 67 0 15 9 43 21 62 11 18 18 39 15 46 -2 7 -28 16 -56 20 -55 8 -69 22
-53 58 27 60 -26 64 -63 5z"/>
</g>
</svg>
