<?xml version="1.0" standalone="no"?>
<!DOCTYPE svg PUBLIC "-//W3C//DTD SVG 20010904//EN"
 "http://www.w3.org/TR/2001/REC-SVG-20010904/DTD/svg10.dtd">
<svg version="1.0" xmlns="http://www.w3.org/2000/svg"
 width="210" height="134" viewBox="0 0 210 134"
 preserveAspectRatio="xMidYMid meet">

<g transform="translate(0,134) scale(0.1,-0.1)" id="nome">
<path d="M655 1020 c-3 -6 -1 -26 5 -44 11 -34 5 -86 -10 -86 -12 0 -20 42
-14 67 7 24 -27 49 -52 39 -23 -9 -16 -40 16 -81 41 -52 36 -71 -23 -89 -17
-5 -18 -14 -11 -88 3 -46 8 -86 10 -89 2 -4 21 -9 43 -13 45 -7 39 15 65 -227
17 -168 37 -214 64 -154 22 48 25 130 8 202 -9 37 -17 90 -19 117 -2 48 -1 50
32 60 31 9 33 11 27 45 -3 20 -6 60 -6 89 0 46 -3 54 -25 64 -34 15 -32 52 5
95 25 28 28 37 19 54 -16 31 -43 19 -49 -21 -7 -46 -24 -75 -40 -65 -8 5 -10
20 -6 44 13 76 12 86 -11 89 -11 2 -24 -2 -28 -8z"/>
<path d="M964 903 c4 -21 9 -96 12 -168 3 -71 10 -134 15 -139 5 -6 18 -1 32
12 39 36 107 23 107 -21 0 -12 -11 -49 -25 -81 -13 -33 -22 -63 -19 -68 29
-47 113 79 144 218 9 42 8 57 -5 92 -22 53 -50 71 -127 79 -74 7 -84 13 -94
56 -13 63 -50 81 -40 20z"/>
<path d="M1388 928 c-3 -7 -1 -26 4 -43 5 -16 11 -88 15 -158 3 -70 10 -130
15 -133 5 -4 20 3 32 15 28 26 57 27 87 3 22 -18 22 -20 7 -63 -9 -24 -22 -59
-29 -76 -15 -36 -4 -58 22 -48 42 16 119 194 119 276 0 42 -5 53 -35 84 -33
33 -40 35 -100 35 -70 0 -72 1 -96 69 -16 46 -33 62 -41 39z"/>
<path d="M874 686 c-9 -24 4 -48 23 -44 12 2 18 12 18 28 0 29 -32 41 -41 16z"/>
<path d="M1296 681 c-10 -16 5 -41 24 -41 19 0 30 17 23 38 -5 14 -39 16 -47
3z"/>
</g>
</svg>
