<?xml version="1.0" standalone="no"?>
<!DOCTYPE svg PUBLIC "-//W3C//DTD SVG 20010904//EN"
 "http://www.w3.org/TR/2001/REC-SVG-20010904/DTD/svg10.dtd">
<svg version="1.0" xmlns="http://www.w3.org/2000/svg"
 width="280" height="156" viewBox="0 0 280 156"
 preserveAspectRatio="xMidYMid meet">

<g transform="translate(0,156) scale(0.1,-0.1)" id="nome">
<path d="M279 1254 c-11 -14 -10 -21 4 -46 21 -37 23 -114 2 -121 -8 -4 -22 4
-34 18 -10 14 -23 25 -28 25 -16 0 -6 -232 9 -242 7 -4 115 -8 239 -8 178 0
229 -3 238 -14 7 -8 14 -85 19 -192 6 -155 9 -179 24 -182 9 -2 28 12 45 34
24 33 28 46 27 103 -1 36 -11 98 -23 137 -27 90 -26 107 2 119 19 9 23 20 29
89 4 44 12 93 18 110 13 37 6 44 -21 20 -19 -17 -41 -19 -243 -22 -169 -2
-225 0 -239 10 -19 14 -24 69 -12 127 10 47 -27 70 -56 35z"/>
<path d="M1132 1258 c-15 -15 -15 -41 -1 -55 17 -17 29 -86 17 -100 -16 -19
-46 -16 -58 7 -22 42 -30 18 -30 -93 0 -75 4 -117 12 -125 9 -9 76 -12 239
-12 169 0 229 -3 236 -12 16 -21 33 -160 33 -273 0 -68 4 -106 12 -111 17 -11
66 50 74 91 7 41 -6 141 -30 228 -17 61 -15 77 9 77 23 0 35 34 35 100 0 33 6
76 14 95 18 42 11 50 -24 25 -26 -18 -45 -20 -242 -20 -260 0 -254 -3 -245 97
4 47 2 74 -6 82 -14 14 -30 14 -45 -1z"/>
<path d="M1977 1254 c-12 -13 -8 -51 8 -64 9 -8 15 -29 15 -55 0 -55 -22 -66
-60 -30 -14 14 -29 22 -33 18 -13 -12 -8 -218 5 -231 9 -9 77 -12 245 -12 230
0 232 0 245 -22 9 -16 14 -79 16 -196 4 -186 10 -205 53 -166 53 48 62 124 30
232 -11 34 -22 80 -26 102 -6 36 -5 41 19 50 24 9 26 14 26 72 1 35 7 81 15
103 22 60 19 70 -11 46 -25 -20 -39 -21 -254 -21 -184 0 -230 3 -239 14 -11
14 -14 48 -8 126 2 29 -2 36 -18 38 -12 2 -24 0 -28 -4z"/>
<path d="M933 834 c-3 -8 -1 -20 5 -26 16 -16 42 -2 42 22 0 24 -38 28 -47 4z"/>
<path d="M1771 836 c-17 -20 -6 -36 25 -36 21 0 25 4 22 22 -4 27 -30 35 -47
14z"/>
<path d="M282 767 c-28 -29 -82 -149 -82 -181 0 -44 38 -75 108 -87 72 -13 92
-4 92 43 0 16 9 47 21 69 11 23 18 47 15 54 -2 7 -25 16 -50 19 -52 8 -61 18
-61 65 0 42 -15 48 -43 18z"/>
<path d="M1134 768 c-31 -36 -50 -70 -69 -123 -33 -99 1 -144 111 -148 l55 -2
25 70 c38 106 38 105 -41 122 -39 8 -40 9 -40 52 0 51 -13 60 -41 29z"/>
<path d="M1959 737 c-48 -77 -59 -105 -59 -156 0 -45 3 -52 28 -65 15 -7 51
-19 81 -25 65 -14 77 -7 86 52 4 23 15 57 25 74 19 32 19 33 -3 48 -12 8 -32
15 -45 15 -47 0 -63 17 -56 60 6 35 4 40 -12 40 -11 0 -30 -17 -45 -43z"/>
</g>
</svg>
