<?xml version="1.0" standalone="no"?>
<!DOCTYPE svg PUBLIC "-//W3C//DTD SVG 20010904//EN"
 "http://www.w3.org/TR/2001/REC-SVG-20010904/DTD/svg10.dtd">
<svg version="1.0" xmlns="http://www.w3.org/2000/svg"
 width="228" height="138" viewBox="0 0 228 138"
 preserveAspectRatio="xMidYMid meet">

<g transform="translate(0,138) scale(0.1,-0.1)" id="nome">
<path d="M1722 1103 c-9 -3 -11 -21 -6 -68 4 -40 3 -65 -4 -69 -15 -9 -32 25
-29 59 3 37 -26 56 -49 33 -15 -15 -14 -19 14 -61 41 -59 42 -67 7 -87 -30
-17 -30 -18 -27 -91 4 -98 8 -109 38 -109 40 0 62 -17 85 -67 28 -62 35 -115
17 -130 -7 -7 -41 -13 -73 -15 l-60 -3 -7 -65 c-4 -36 -9 -76 -10 -90 -3 -25
-3 -25 95 -28 73 -2 106 1 130 13 42 20 71 61 71 100 0 31 -39 119 -95 213
-34 57 -31 72 17 72 28 0 34 17 24 71 -5 24 -11 60 -15 80 -4 25 -13 39 -30
47 -33 15 -31 30 6 81 34 48 35 74 2 79 -22 3 -26 -4 -35 -63 -2 -11 -11 -21
-21 -23 -20 -4 -23 30 -7 74 15 37 -4 61 -38 47z"/>
<path d="M1165 1011 c-3 -6 1 -47 10 -92 8 -45 15 -116 15 -158 0 -43 3 -81 6
-84 4 -3 18 3 32 13 30 24 75 26 96 4 21 -20 20 -30 -8 -99 -24 -61 -24 -85 0
-85 36 0 124 194 124 274 0 72 -65 126 -152 126 -55 0 -62 6 -80 59 -14 45
-31 61 -43 42z"/>
<path d="M398 899 c-15 -8 -18 -25 -18 -99 0 -87 1 -90 23 -90 41 0 50 -15 57
-97 9 -99 3 -111 -58 -115 l-47 -3 -7 -90 c-4 -49 -4 -93 -2 -97 7 -11 102
-10 146 2 20 6 51 24 68 40 31 29 32 33 28 93 -3 41 -15 84 -36 130 -35 74
-41 121 -16 131 9 3 82 6 164 6 116 0 152 -3 163 -14 15 -16 28 -134 28 -263
0 -94 15 -108 58 -56 27 33 31 45 31 99 0 38 -9 87 -25 134 -27 78 -23 96 18
102 21 3 22 8 22 98 l0 95 -290 2 c-185 2 -296 -1 -307 -8z"/>
<path d="M1063 644 c-3 -8 2 -23 11 -32 15 -15 17 -15 33 0 13 14 14 20 3 32
-16 20 -39 20 -47 0z"/>
<path d="M1522 651 c-20 -12 -10 -46 13 -46 14 0 20 7 20 24 0 27 -13 35 -33
22z"/>
</g>
</svg>
