<?xml version="1.0" standalone="no"?>
<!DOCTYPE svg PUBLIC "-//W3C//DTD SVG 20010904//EN"
 "http://www.w3.org/TR/2001/REC-SVG-20010904/DTD/svg10.dtd">
<svg version="1.0" xmlns="http://www.w3.org/2000/svg"
 width="284" height="142" viewBox="0 0 284 142"
 preserveAspectRatio="xMidYMid meet">

<g transform="translate(0,142) scale(0.1,-0.1)" id="nome">
<path d="M2095 1160 c-4 -7 -2 -30 5 -51 10 -29 10 -43 3 -50 -18 -18 -35 0
-28 31 5 23 2 31 -15 40 -16 9 -25 8 -36 -1 -20 -16 -18 -24 16 -71 37 -51 38
-76 5 -84 -28 -7 -28 -4 -25 -104 2 -93 9 -100 107 -100 l72 0 10 -37 c16 -65
21 -191 8 -201 -13 -9 -48 -22 -115 -43 -52 -15 -55 -19 -64 -89 -3 -30 -10
-67 -13 -82 -9 -35 3 -36 87 -7 127 42 235 91 272 120 44 37 140 177 202 295
57 109 59 152 10 199 -18 17 -58 41 -87 52 -49 19 -55 20 -66 5 -7 -9 -13 -25
-13 -37 0 -12 -11 -44 -25 -71 -14 -27 -25 -54 -25 -61 0 -7 24 -19 53 -28 30
-9 62 -22 73 -29 18 -14 17 -16 -18 -68 -50 -72 -88 -107 -134 -123 -55 -19
-74 -6 -74 49 0 76 -31 330 -42 343 -6 7 -16 13 -23 13 -22 0 -40 29 -27 42 7
7 12 18 12 25 0 8 9 24 20 36 27 28 22 52 -10 52 -22 0 -25 -5 -28 -40 -2 -22
-8 -45 -14 -52 -23 -28 -30 -11 -27 60 4 67 3 72 -18 75 -11 2 -24 -2 -28 -8z"/>
<path d="M1198 988 c-15 -12 -20 -39 -30 -163 -3 -28 0 -31 46 -42 57 -14 68
-27 55 -60 -5 -14 -9 -40 -9 -60 0 -19 -9 -91 -21 -159 -12 -69 -18 -132 -14
-142 18 -48 74 96 136 353 6 22 14 43 18 48 4 4 66 8 138 9 117 1 133 -1 165
-20 50 -31 90 -132 68 -172 -10 -19 -22 -20 -180 -20 -197 0 -185 7 -185 -110
l0 -75 225 0 225 0 3 37 c5 58 -27 337 -44 395 -18 58 -70 125 -116 149 -38
20 -197 31 -225 16 -18 -10 -20 -18 -16 -50 10 -73 -39 -116 -50 -44 -10 57
-31 80 -95 98 -31 9 -62 18 -67 21 -6 2 -18 -2 -27 -9z"/>
<path d="M297 983 c-10 -9 4 -166 16 -180 5 -7 24 -13 41 -13 54 0 56 -8 56
-201 0 -148 3 -180 16 -193 13 -14 53 -16 284 -16 251 0 270 1 279 18 6 10 8
27 6 38 -3 10 -12 100 -20 199 -9 99 -20 203 -26 231 -11 59 -47 99 -100 114
-38 11 -542 14 -552 3z m570 -211 c27 -15 34 -37 36 -123 l2 -64 -208 -3
c-161 -2 -208 0 -212 10 -2 7 -9 49 -14 93 -9 70 -8 82 7 93 22 17 357 12 389
-6z"/>
<path d="M1080 706 c-18 -22 -5 -48 22 -44 17 2 23 10 23 28 0 29 -26 38 -45
16z"/>
<path d="M1920 695 c-11 -13 -11 -19 3 -33 20 -19 41 -5 35 24 -4 24 -22 28
-38 9z"/>
</g>
</svg>
