<?xml version="1.0" standalone="no"?>
<!DOCTYPE svg PUBLIC "-//W3C//DTD SVG 20010904//EN"
 "http://www.w3.org/TR/2001/REC-SVG-20010904/DTD/svg10.dtd">
<svg version="1.0" xmlns="http://www.w3.org/2000/svg"
 width="256" height="138" viewBox="0 0 256 138"
 preserveAspectRatio="xMidYMid meet">

<g transform="translate(0,138) scale(0.1,-0.1)" id="nome">
<path d="M490 1180 c-11 -7 -12 -15 -1 -50 7 -23 15 -98 18 -167 5 -99 9 -126
21 -131 9 -3 21 3 30 16 17 26 49 28 80 6 29 -20 28 -43 -4 -105 -28 -56 -26
-82 8 -77 39 6 105 139 123 250 6 41 -12 94 -41 119 -22 19 -118 44 -133 34
-21 -12 -49 15 -56 54 -7 45 -24 64 -45 51z"/>
<path d="M1336 1151 c-11 -18 28 -453 45 -508 6 -18 24 -44 41 -58 29 -24 36
-26 127 -23 l96 3 -3 75 c-2 41 -8 81 -14 88 -7 8 -39 12 -92 12 -44 0 -87 4
-95 9 -8 5 -14 29 -15 62 l-1 54 144 3 c95 2 148 -1 157 -9 10 -8 14 -48 16
-153 l3 -141 25 -3 c37 -5 47 -24 41 -79 l-6 -48 -200 -6 c-110 -3 -201 -6
-203 -7 -5 -5 11 -178 18 -185 4 -5 57 -10 118 -10 107 -2 112 -1 178 33 77
39 134 104 154 174 21 74 24 291 6 403 -16 103 -47 203 -69 221 -7 6 -105 14
-219 18 l-208 7 -10 38 c-10 38 -23 49 -34 30z"/>
<path d="M914 1083 c3 -21 9 -69 12 -108 9 -100 13 -105 84 -105 32 0 62 -5
66 -11 3 -6 11 -63 16 -128 18 -223 21 -246 40 -249 35 -7 42 42 43 268 0 195
-2 219 -20 255 -24 48 -57 65 -137 73 -43 3 -63 10 -71 23 -21 34 -40 23 -33
-18z"/>
<path d="M837 795 c-30 -30 5 -65 40 -40 14 11 16 18 7 31 -15 25 -29 27 -47
9z"/>
<path d="M1234 785 c-8 -21 2 -45 19 -45 20 0 40 27 33 45 -7 19 -45 20 -52 0z"/>
</g>
</svg>
