<?xml version="1.0" standalone="no"?>
<!DOCTYPE svg PUBLIC "-//W3C//DTD SVG 20010904//EN"
 "http://www.w3.org/TR/2001/REC-SVG-20010904/DTD/svg10.dtd">
<svg version="1.0" xmlns="http://www.w3.org/2000/svg"
 width="248" height="148" viewBox="0 0 248 148"
 preserveAspectRatio="xMidYMid meet">

<g transform="translate(0,148) scale(0.1,-0.1)" id="nome">
<path d="M697 1313 c-4 -3 -7 -14 -7 -24 0 -32 -22 -33 -47 -3 l-23 29 0 -122
c0 -101 3 -123 15 -123 8 0 19 9 25 20 16 30 55 26 68 -7 6 -16 13 -109 17
-207 3 -99 11 -188 16 -198 9 -16 26 -18 200 -18 210 0 241 -6 278 -58 25 -36
26 -53 5 -93 -23 -45 -72 -61 -196 -67 -60 -2 -108 -7 -108 -11 -3 -51 -9
-141 -12 -156 -3 -18 3 -20 81 -23 73 -2 91 0 136 23 60 29 134 101 173 166
22 38 26 55 26 129 -1 96 -20 149 -76 209 -57 61 -93 71 -274 71 -112 0 -165
4 -177 13 -14 10 -17 37 -19 182 l-3 170 -37 24 c-29 19 -38 31 -38 53 0 27
-9 35 -23 21z"/>
<path d="M1500 940 c0 -11 7 -64 16 -118 9 -53 14 -119 11 -145 -5 -54 11 -71
38 -43 19 19 76 21 93 4 18 -18 15 -41 -13 -109 -21 -53 -22 -61 -8 -66 26
-10 45 10 87 92 32 63 40 92 44 150 4 68 3 73 -23 99 -35 35 -65 46 -124 46
-55 0 -64 8 -80 68 -12 43 -41 59 -41 22z"/>
<path d="M1926 951 c-4 -5 0 -49 9 -97 8 -47 15 -120 15 -160 0 -40 4 -75 9
-78 4 -3 16 3 26 14 22 24 77 27 95 5 15 -18 7 -83 -16 -127 -19 -36 -4 -64
25 -48 28 15 91 149 103 221 10 60 10 69 -8 100 -25 43 -76 69 -134 69 -57 0
-64 5 -82 59 -14 45 -31 61 -42 42z"/>
<path d="M1403 685 c-7 -19 13 -36 37 -32 8 1 15 11 15 22 0 26 -42 34 -52 10z"/>
<path d="M1834 685 c-4 -9 -2 -21 4 -27 16 -16 47 -5 47 17 0 26 -42 34 -51
10z"/>
</g>
</svg>
