<?xml version="1.0" standalone="no"?>
<!DOCTYPE svg PUBLIC "-//W3C//DTD SVG 20010904//EN"
 "http://www.w3.org/TR/2001/REC-SVG-20010904/DTD/svg10.dtd">
<svg version="1.0" xmlns="http://www.w3.org/2000/svg"
 width="264" height="128" viewBox="0 0 264 128"
 preserveAspectRatio="xMidYMid meet">

<g transform="translate(0,128) scale(0.1,-0.1)" id="nome">
<path d="M2050 1055 c-10 -12 -10 -18 -1 -29 14 -17 11 -111 -4 -111 -5 0 -12
25 -15 55 -5 53 -6 55 -35 55 -44 0 -44 -32 0 -75 19 -18 35 -40 35 -47 0 -8
-16 -21 -35 -29 l-35 -14 6 -88 c4 -48 12 -90 18 -94 6 -4 23 -8 37 -8 30 0
48 -19 73 -74 25 -54 31 -109 14 -123 -7 -7 -41 -13 -73 -15 l-60 -3 -7 -62
c-4 -34 -12 -72 -18 -83 -19 -36 0 -42 113 -38 119 3 146 16 181 80 19 34 19
37 3 79 -9 24 -39 82 -67 129 -27 47 -49 89 -47 95 2 5 18 13 35 17 36 10 36
10 23 111 -7 54 -14 72 -34 87 -29 23 -27 50 10 94 30 35 27 61 -7 61 -20 0
-26 -5 -28 -30 -4 -43 -23 -86 -36 -82 -18 6 -19 73 -1 100 28 43 -13 81 -45
42z"/>
<path d="M1116 874 c-3 -9 -6 -30 -6 -47 0 -18 -5 -49 -11 -70 -13 -46 -3 -62
45 -71 69 -13 69 -12 37 -196 -16 -91 -32 -177 -36 -192 -14 -56 24 -59 52 -4
9 17 20 47 24 66 14 70 71 275 80 292 9 16 26 18 151 18 l140 0 38 -38 c30
-30 39 -47 45 -90 11 -81 10 -81 -184 -84 l-166 -3 -6 -60 c-3 -33 -9 -71 -13
-84 -6 -16 -4 -26 5 -32 8 -5 112 -9 232 -9 190 0 218 2 224 16 9 23 -27 361
-44 416 -20 67 -67 126 -116 149 -32 14 -65 19 -141 19 l-99 0 6 -39 c3 -28
-1 -48 -14 -70 -29 -49 -38 -43 -54 36 -8 42 -43 69 -106 82 -66 14 -76 14
-83 -5z"/>
<path d="M232 872 c-16 -11 -5 -167 12 -181 6 -5 27 -11 46 -13 30 -3 35 -7
42 -38 4 -19 7 -106 6 -192 -1 -87 0 -160 3 -162 2 -2 129 -6 281 -7 197 -3
280 -1 288 7 12 12 2 153 -21 316 -5 37 -9 84 -9 106 0 46 -17 100 -39 125
-36 42 -71 47 -340 47 -141 0 -262 -4 -269 -8z m558 -207 c31 -16 35 -26 45
-113 9 -83 13 -82 -215 -82 -148 0 -200 3 -208 13 -13 15 -27 159 -19 181 9
23 353 24 397 1z"/>
<path d="M1004 605 c-8 -21 2 -45 19 -45 8 0 20 7 27 15 10 12 10 18 0 30 -7
8 -19 15 -27 15 -7 0 -16 -7 -19 -15z"/>
<path d="M1844 595 c-4 -9 -2 -21 4 -27 16 -16 47 -5 47 17 0 26 -42 34 -51
10z"/>
</g>
</svg>
