<?xml version="1.0" standalone="no"?>
<!DOCTYPE svg PUBLIC "-//W3C//DTD SVG 20010904//EN"
 "http://www.w3.org/TR/2001/REC-SVG-20010904/DTD/svg10.dtd">
<svg version="1.0" xmlns="http://www.w3.org/2000/svg"
 width="270" height="136" viewBox="0 0 270 136"
 preserveAspectRatio="xMidYMid meet">

<g transform="translate(0,136) scale(0.1,-0.1)" id="nome">
<path d="M1102 1123 c-5 -10 -6 -27 -1 -38 4 -11 8 -33 8 -48 1 -43 -23 -28
-27 16 -3 30 -8 38 -29 43 -16 4 -28 2 -34 -7 -13 -20 -12 -23 16 -55 45 -51
45 -87 0 -96 -18 -3 -20 -10 -16 -88 2 -47 8 -91 13 -97 6 -7 29 -13 52 -13
34 0 48 -6 73 -32 48 -52 123 -148 123 -158 0 -6 -33 -11 -72 -11 -40 -1 -102
-4 -138 -8 -58 -5 -65 -8 -62 -26 2 -11 4 -51 5 -90 l2 -70 217 -3 c213 -2
217 -2 243 21 20 17 28 35 32 70 5 44 3 49 -33 85 -22 20 -55 49 -74 63 l-34
26 39 57 c49 71 61 78 119 67 31 -6 48 -5 54 3 5 6 10 61 10 123 2 112 -9 149
-28 99 -10 -28 -17 -30 -98 -26 -77 3 -82 -5 -82 -121 0 -81 -4 -104 -21 -133
-12 -20 -28 -36 -36 -36 -19 0 -103 67 -103 82 0 6 7 16 16 22 24 18 0 161
-33 197 -20 22 -22 30 -14 53 6 14 20 36 31 48 27 29 22 53 -10 53 -22 0 -26
-5 -30 -40 -7 -46 -17 -68 -31 -60 -12 8 -11 72 2 96 7 15 7 24 -2 35 -16 19
-36 18 -47 -3z"/>
<path d="M223 924 c-3 -8 -1 -33 6 -53 6 -21 8 -52 5 -70 -12 -59 -4 -61 218
-61 118 0 207 -4 219 -10 31 -17 46 -59 64 -175 9 -61 20 -130 23 -155 7 -47
34 -66 46 -34 10 27 36 262 36 329 0 116 -38 192 -114 226 -36 16 -68 19 -269
19 -198 0 -228 -2 -234 -16z"/>
<path d="M1794 932 c-6 -4 -14 -29 -17 -57 -3 -27 -9 -68 -12 -90 l-7 -41 52
-13 c28 -7 54 -20 57 -27 3 -8 -9 -95 -26 -194 -36 -206 -36 -210 -16 -210 28
0 48 53 108 285 l33 130 139 3 c135 3 139 2 176 -24 63 -43 94 -160 48 -184
-13 -7 -77 -10 -179 -9 -88 2 -161 1 -163 -1 -2 -3 -7 -44 -10 -92 l-6 -88
228 0 c174 0 230 3 233 13 6 15 -7 194 -22 302 -16 121 -29 160 -68 206 -53
61 -98 79 -209 79 l-93 0 0 -52 c-1 -56 -16 -88 -44 -88 -11 0 -16 9 -16 25 0
34 -25 82 -51 95 -19 10 -108 40 -119 40 -3 0 -10 -4 -16 -8z"/>
<path d="M925 674 c-12 -12 -13 -19 -4 -30 6 -8 17 -14 24 -14 7 0 18 6 24 14
9 11 8 18 -4 30 -9 9 -18 16 -20 16 -2 0 -11 -7 -20 -16z"/>
<path d="M1640 641 c0 -27 19 -36 37 -18 18 18 9 37 -18 37 -12 0 -19 -7 -19
-19z"/>
</g>
</svg>
