<?xml version="1.0" standalone="no"?>
<!DOCTYPE svg PUBLIC "-//W3C//DTD SVG 20010904//EN"
 "http://www.w3.org/TR/2001/REC-SVG-20010904/DTD/svg10.dtd">
<svg version="1.0" xmlns="http://www.w3.org/2000/svg"
 width="252" height="112" viewBox="0 0 252 112"
 preserveAspectRatio="xMidYMid meet">

<g transform="translate(0,112) scale(0.1,-0.1)" id="nome">
<path d="M274 917 c-3 -8 2 -47 11 -88 8 -41 15 -113 15 -161 0 -49 4 -88 8
-88 5 0 17 9 27 20 22 24 77 27 95 5 15 -18 8 -71 -14 -117 -22 -43 -20 -68 3
-68 36 0 104 127 123 226 19 105 -24 157 -138 170 -65 7 -84 17 -84 45 0 24
-21 69 -32 69 -5 0 -11 -6 -14 -13z"/>
<path d="M945 875 l-26 -55 -80 0 -80 0 -19 45 c-19 44 -33 55 -44 36 -4 -5
-1 -22 5 -38 6 -15 17 -75 23 -133 l11 -105 37 -3 c23 -2 41 -10 47 -20 4 -9
14 -78 20 -152 17 -189 31 -243 60 -226 14 9 31 73 31 119 0 21 -9 85 -21 143
-12 57 -19 111 -15 119 3 9 18 15 34 15 l29 0 -1 100 c-1 83 2 102 17 117 18
17 19 17 43 -12 49 -58 57 -77 63 -138 l6 -62 45 -3 c88 -5 85 -1 98 -104 6
-51 14 -136 17 -188 6 -99 14 -121 38 -101 46 38 49 471 4 532 -24 32 -66 50
-122 53 -53 3 -59 5 -113 59 -32 31 -63 57 -69 57 -6 0 -23 -25 -38 -55z"/>
<path d="M1506 822 c-2 -4 -10 -45 -17 -91 -12 -78 -12 -84 6 -97 10 -8 31
-14 46 -14 39 0 51 -21 44 -77 -6 -48 -11 -73 -41 -236 -16 -87 -14 -117 5
-117 14 0 46 65 60 120 6 25 15 61 20 80 13 51 28 108 42 163 6 26 20 52 30
57 28 16 234 12 273 -4 55 -23 89 -76 90 -144 l1 -57 -171 -3 c-121 -2 -175
-6 -182 -15 -5 -6 -11 -48 -13 -92 l-4 -80 221 -3 c184 -2 223 0 233 12 10 11
10 37 2 108 -5 51 -13 129 -17 173 -8 98 -36 194 -69 234 -47 55 -100 72 -211
69 l-99 -3 3 -39 c7 -78 -50 -123 -62 -48 -3 21 -16 48 -30 61 -35 33 -147 64
-160 43z"/>
<path d="M627 574 c-13 -13 -7 -42 10 -48 21 -8 36 6 31 30 -3 19 -29 30 -41
18z"/>
<path d="M1390 564 c-11 -12 -10 -18 3 -31 8 -9 23 -13 31 -10 21 8 21 43 0
51 -21 8 -20 8 -34 -10z"/>
</g>
</svg>
