<?xml version="1.0" standalone="no"?>
<!DOCTYPE svg PUBLIC "-//W3C//DTD SVG 20010904//EN"
 "http://www.w3.org/TR/2001/REC-SVG-20010904/DTD/svg10.dtd">
<svg version="1.0" xmlns="http://www.w3.org/2000/svg"
 width="290" height="148" viewBox="0 0 290 148"
 preserveAspectRatio="xMidYMid meet">

<g transform="translate(0,148) scale(0.1,-0.1)" id="nome">
<path d="M1205 1303 c-4 -18 -10 -33 -13 -33 -3 0 -19 12 -34 27 l-28 27 0
-111 c0 -112 5 -143 21 -143 5 0 15 11 21 25 9 20 18 25 37 23 33 -4 38 -25
50 -241 6 -110 14 -184 21 -193 10 -11 47 -14 189 -14 97 0 192 -5 212 -10 73
-20 110 -100 70 -151 -36 -46 -79 -59 -189 -59 -61 0 -103 -4 -107 -11 -4 -6
-9 -48 -11 -95 l-3 -84 85 0 c105 0 151 20 230 97 93 92 120 184 89 303 -23
89 -62 140 -137 180 -33 18 -57 20 -200 20 -90 0 -169 4 -175 8 -9 6 -15 61
-19 181 -7 156 -9 175 -27 192 -12 10 -26 19 -33 19 -6 0 -18 17 -27 38 l-15
37 -7 -32z"/>
<path d="M1990 1300 c0 -31 -31 -38 -48 -12 -29 44 -34 24 -27 -95 4 -65 9
-120 11 -122 2 -2 13 8 25 22 24 31 54 35 68 8 8 -13 30 -312 31 -403 0 -4 7
-14 16 -22 13 -13 46 -16 208 -16 184 0 195 -1 227 -23 45 -31 59 -77 34 -122
-27 -51 -67 -65 -182 -65 -54 0 -103 -4 -109 -8 -6 -4 -14 -46 -17 -94 -6 -88
-6 -88 19 -94 40 -10 152 5 198 27 55 26 138 111 170 175 71 143 -9 349 -153
392 -22 7 -105 12 -194 12 -90 0 -158 4 -162 10 -3 5 -8 78 -11 162 -3 84 -7
163 -10 176 -3 13 -20 32 -39 44 -25 14 -35 27 -35 44 0 13 -4 24 -10 24 -5 0
-10 -9 -10 -20z"/>
<path d="M473 1024 c-3 -10 1 -30 10 -46 40 -70 7 -150 -39 -93 -11 14 -23 22
-27 19 -9 -9 -9 -196 -1 -218 5 -14 35 -16 231 -16 132 0 232 -4 243 -10 25
-13 30 -43 38 -230 6 -134 9 -155 24 -158 11 -2 26 11 43 38 23 37 26 50 23
109 -3 36 -13 104 -24 149 l-19 84 28 20 c24 18 27 26 27 81 1 34 7 80 15 102
18 49 18 45 2 45 -8 0 -22 -9 -32 -20 -17 -19 -31 -20 -240 -20 -207 0 -223 1
-240 20 -13 15 -16 29 -11 62 13 92 13 93 -17 96 -18 2 -29 -2 -34 -14z"/>
<path d="M1131 642 c-8 -15 -7 -23 4 -32 21 -18 47 -4 43 22 -4 29 -34 35 -47
10z"/>
<path d="M1940 625 c0 -22 4 -26 23 -23 14 2 22 10 22 23 0 13 -8 21 -22 23
-19 3 -23 -1 -23 -23z"/>
<path d="M486 554 c-27 -27 -64 -97 -77 -145 -23 -85 7 -120 114 -135 58 -8
77 5 77 52 0 18 9 50 20 70 25 43 14 64 -32 64 -48 0 -70 17 -68 53 4 62 -4
72 -34 41z"/>
</g>
</svg>
