<?xml version="1.0" standalone="no"?>
<!DOCTYPE svg PUBLIC "-//W3C//DTD SVG 20010904//EN"
 "http://www.w3.org/TR/2001/REC-SVG-20010904/DTD/svg10.dtd">
<svg version="1.0" xmlns="http://www.w3.org/2000/svg"
 width="256" height="132" viewBox="0 0 256 132"
 preserveAspectRatio="xMidYMid meet">

<g transform="translate(0,132) scale(0.1,-0.1)" id="nome">
<path d="M856 1024 c-3 -8 1 -28 9 -44 16 -32 20 -96 6 -104 -4 -3 -16 3 -26
14 -21 23 -45 26 -45 5 0 -7 7 -40 15 -72 8 -31 15 -73 15 -93 0 -20 5 -41 12
-48 9 -9 71 -12 216 -12 121 0 211 -4 223 -10 17 -9 19 -22 19 -105 0 -69 -3
-95 -12 -96 -7 0 -106 0 -220 1 -134 1 -214 -3 -227 -10 -19 -10 -21 -20 -21
-100 l0 -90 279 0 c311 0 282 -7 296 70 3 19 16 63 27 98 15 43 19 65 11 73
-7 7 -15 5 -27 -6 -9 -9 -23 -14 -32 -11 -13 5 -14 30 -11 173 2 93 7 180 12
196 6 23 4 27 -13 27 -12 0 -24 -4 -27 -10 -4 -6 -83 -10 -204 -10 -179 0
-199 2 -214 18 -21 23 -22 64 -2 102 19 38 10 60 -25 60 -16 0 -30 -7 -34 -16z"/>
<path d="M1869 957 c-6 -7 -20 -30 -33 -52 l-22 -40 -77 -3 -77 -3 -19 44
c-37 85 -61 68 -37 -26 8 -34 18 -92 21 -130 7 -71 19 -87 65 -87 11 0 23 -6
25 -12 2 -7 12 -82 20 -167 15 -144 33 -221 52 -221 5 0 14 10 22 21 16 26 18
191 3 231 -6 14 -14 54 -18 87 -7 61 -6 61 19 61 36 0 42 14 38 102 -3 86 3
113 25 122 32 12 93 -91 94 -159 0 -56 9 -65 74 -74 32 -4 61 -13 65 -20 4 -6
13 -73 20 -149 16 -187 19 -204 31 -216 7 -7 14 -6 23 3 9 9 12 73 12 249 0
216 -2 239 -19 265 -23 35 -65 57 -106 57 -49 0 -92 24 -130 73 -40 52 -55 62
-71 44z"/>
<path d="M384 896 c-3 -8 -1 -23 5 -34 6 -11 14 -53 17 -94 4 -40 11 -79 17
-85 5 -8 32 -13 62 -13 30 0 57 -5 62 -12 6 -7 18 -94 27 -193 10 -99 22 -184
27 -189 13 -15 29 5 40 50 10 45 12 385 3 434 -4 17 -21 47 -39 66 -30 32 -36
34 -98 34 -52 0 -69 4 -79 18 -20 28 -37 35 -44 18z"/>
<path d="M726 604 c-4 -10 -2 -22 3 -27 15 -15 46 -3 46 18 0 26 -40 33 -49 9z"/>
<path d="M1504 605 c-8 -21 2 -45 19 -45 8 0 20 7 27 15 10 12 10 18 0 30 -7
8 -19 15 -27 15 -7 0 -16 -7 -19 -15z"/>
</g>
</svg>
