<?xml version="1.0" standalone="no"?>
<!DOCTYPE svg PUBLIC "-//W3C//DTD SVG 20010904//EN"
 "http://www.w3.org/TR/2001/REC-SVG-20010904/DTD/svg10.dtd">
<svg version="1.0" xmlns="http://www.w3.org/2000/svg"
 width="262" height="128" viewBox="0 0 262 128"
 preserveAspectRatio="xMidYMid meet">

<g transform="translate(0,128) scale(0.1,-0.1)" id="nome">
<path d="M1202 1098 c-17 -17 -15 -39 5 -68 20 -28 18 -78 -3 -100 -14 -13
-18 -12 -39 15 -15 18 -28 26 -33 20 -4 -6 -6 -59 -3 -120 l6 -110 237 -3 238
-2 15 -30 c11 -21 17 -77 22 -195 3 -91 10 -168 14 -170 17 -11 40 10 65 62
l27 55 -26 107 c-34 135 -34 154 -2 175 22 15 25 23 25 82 0 35 7 81 15 101
18 43 18 43 2 43 -8 0 -22 -9 -32 -20 -17 -19 -31 -20 -240 -20 -208 0 -223 1
-240 20 -18 19 -18 79 -1 121 4 10 0 23 -9 33 -20 19 -27 20 -43 4z"/>
<path d="M344 1086 c-3 -9 3 -35 15 -59 25 -51 27 -80 6 -97 -16 -13 -33 -6
-53 22 -27 37 -33 18 -30 -99 l3 -118 245 -5 c135 -3 246 -7 246 -8 10 -15 17
-86 23 -222 5 -145 8 -165 23 -168 25 -5 78 82 78 127 0 20 -12 81 -25 136
-31 124 -31 123 0 137 22 10 25 17 25 68 0 31 7 79 15 106 18 59 17 54 5 54
-6 0 -20 -9 -32 -20 -20 -19 -36 -20 -245 -20 -258 0 -246 -5 -241 108 3 67 3
67 -25 70 -17 2 -29 -2 -33 -12z"/>
<path d="M1957 1023 c-2 -4 0 -33 5 -63 5 -30 12 -103 15 -162 5 -113 13 -127
46 -88 19 22 48 26 78 10 25 -14 25 -68 -1 -122 -24 -49 -25 -64 -6 -71 24 -9
44 15 86 106 34 71 42 100 43 152 2 61 0 67 -31 97 -29 30 -40 33 -105 38
l-72 5 -16 49 c-14 47 -31 67 -42 49z"/>
<path d="M1007 713 c-13 -12 -7 -41 10 -47 9 -4 23 0 31 8 13 12 13 18 2 30
-13 17 -32 21 -43 9z"/>
<path d="M1847 705 c-20 -19 -12 -45 14 -45 26 0 36 28 17 46 -13 14 -17 14
-31 -1z"/>
<path d="M347 598 c-53 -72 -68 -107 -69 -158 -2 -69 20 -90 104 -102 68 -9
88 1 88 46 0 12 9 41 21 65 24 55 19 71 -23 71 -19 0 -44 7 -56 16 -19 13 -21
21 -16 55 8 50 -14 53 -49 7z"/>
<path d="M1193 602 c-40 -54 -73 -131 -73 -170 0 -53 31 -80 106 -92 54 -9 60
-8 77 11 9 12 17 32 17 46 0 13 9 42 20 64 12 22 18 43 16 48 -3 5 -28 11 -55
15 -57 7 -74 26 -60 64 18 48 -16 58 -48 14z"/>
</g>
</svg>
