<?xml version="1.0" standalone="no"?>
<!DOCTYPE svg PUBLIC "-//W3C//DTD SVG 20010904//EN"
 "http://www.w3.org/TR/2001/REC-SVG-20010904/DTD/svg10.dtd">
<svg version="1.0" xmlns="http://www.w3.org/2000/svg"
 width="282" height="148" viewBox="0 0 282 148"
 preserveAspectRatio="xMidYMid meet">

<g transform="translate(0,148) scale(0.1,-0.1)" id="nome">
<path d="M627 1163 c-4 -4 -5 -32 -1 -64 4 -40 3 -59 -6 -64 -16 -10 -30 13
-30 51 0 40 -23 62 -45 44 -21 -18 -19 -32 15 -78 36 -51 38 -70 6 -78 -30 -7
-32 -15 -28 -111 3 -68 6 -75 28 -84 14 -5 54 -9 89 -9 35 0 66 -4 69 -9 4 -5
11 -55 17 -112 8 -82 7 -105 -3 -115 -7 -6 -46 -22 -86 -34 -40 -13 -76 -28
-80 -34 -3 -6 -10 -33 -14 -61 -4 -27 -10 -65 -14 -82 -8 -42 -3 -42 117 1
253 91 269 104 395 316 80 134 99 185 90 235 -8 42 -38 68 -114 98 -60 25 -62
25 -72 7 -6 -10 -10 -24 -10 -31 0 -6 -12 -38 -27 -71 -30 -68 -26 -77 42 -96
22 -6 49 -18 59 -25 18 -13 17 -17 -22 -74 -64 -94 -115 -130 -173 -121 -23 3
-24 8 -37 143 -23 253 -22 248 -64 267 -43 20 -42 31 5 90 33 42 31 71 -5 66
-18 -2 -24 -11 -28 -43 -4 -28 -10 -41 -24 -43 -16 -4 -18 2 -15 59 3 51 1 64
-11 67 -9 1 -19 -1 -23 -5z"/>
<path d="M1316 1071 c-3 -5 1 -58 10 -117 8 -60 14 -129 14 -154 -1 -25 -1
-51 -1 -57 2 -20 29 -15 41 7 21 40 100 16 100 -30 0 -10 -9 -39 -20 -65 -25
-58 -26 -85 -2 -85 40 0 122 178 122 266 0 43 -5 57 -28 82 -29 31 -84 52
-138 52 -37 0 -46 10 -63 68 -11 40 -24 52 -35 33z"/>
<path d="M2192 977 c-11 -24 -33 -59 -51 -79 -17 -20 -31 -40 -31 -45 0 -5 18
-24 40 -42 22 -17 40 -38 40 -46 0 -15 -30 -35 -53 -35 -13 0 -111 73 -172
130 -16 15 -59 44 -95 66 -36 21 -74 46 -86 56 -36 32 -44 23 -45 -54 0 -40
-4 -82 -8 -93 -12 -29 -4 -41 44 -69 23 -14 45 -31 47 -38 10 -27 -21 -226
-46 -297 -18 -49 -21 -87 -7 -96 5 -3 29 0 53 6 61 17 98 6 98 -27 0 -68 73
20 86 104 9 59 -12 86 -80 108 -31 10 -57 23 -60 30 -7 17 18 107 31 111 9 3
170 -128 258 -210 65 -60 162 -111 185 -97 8 5 22 42 31 82 9 40 20 83 24 96
7 20 4 22 -30 22 -31 0 -50 10 -106 56 -38 31 -69 62 -69 70 0 7 32 34 70 60
39 25 75 55 81 66 17 32 1 72 -51 123 -28 27 -50 57 -50 67 0 33 -29 18 -48
-25z"/>
<path d="M1206 684 c-7 -19 10 -35 34 -31 8 1 15 11 15 22 0 26 -40 33 -49 9z"/>
<path d="M1647 693 c-13 -12 -7 -41 10 -47 9 -4 23 0 31 8 13 12 13 18 2 30
-13 17 -32 21 -43 9z"/>
</g>
</svg>
