<?xml version="1.0" standalone="no"?>
<!DOCTYPE svg PUBLIC "-//W3C//DTD SVG 20010904//EN"
 "http://www.w3.org/TR/2001/REC-SVG-20010904/DTD/svg10.dtd">
<svg version="1.0" xmlns="http://www.w3.org/2000/svg"
 width="300" height="132" viewBox="0 0 300 132"
 preserveAspectRatio="xMidYMid meet">

<g transform="translate(0,132) scale(0.1,-0.1)" id="nome">
<path d="M474 1115 c-4 -16 0 -34 10 -50 38 -58 6 -137 -35 -86 -35 44 -44 23
-40 -95 1 -60 5 -112 8 -116 2 -5 110 -8 238 -8 232 0 235 0 249 -22 10 -16
16 -74 21 -193 4 -93 11 -174 16 -179 11 -12 46 18 65 56 22 42 17 132 -12
226 -20 65 -23 87 -13 98 6 8 17 14 24 14 14 0 25 52 25 116 0 23 5 55 11 73
14 39 6 50 -19 28 -16 -15 -48 -17 -248 -17 -166 0 -233 3 -242 12 -15 15 -15
65 -1 107 8 24 8 35 -1 46 -20 24 -49 18 -56 -10z"/>
<path d="M1694 978 c-9 -18 -32 -53 -51 -77 -18 -24 -33 -50 -33 -57 0 -7 16
-25 35 -40 41 -31 45 -60 10 -76 -29 -13 -57 4 -165 98 -35 31 -89 73 -120 92
-30 19 -67 43 -82 54 -15 10 -31 18 -36 18 -5 0 -12 -44 -15 -97 -6 -107 -8
-103 64 -154 29 -20 28 -62 -7 -219 -14 -63 -27 -132 -30 -152 l-6 -37 79 2
78 2 3 -28 c9 -78 82 29 82 119 0 47 -3 55 -29 73 -16 12 -40 21 -53 21 -14 0
-32 8 -41 18 -13 14 -14 25 -4 66 10 46 32 69 46 49 7 -10 199 -178 265 -231
90 -74 154 -90 167 -42 20 72 32 128 33 150 1 22 -3 25 -31 25 -24 0 -49 14
-102 57 -40 33 -68 63 -66 70 3 7 26 26 51 42 86 54 104 74 104 114 0 30 -8
43 -49 82 -27 25 -50 54 -52 65 -6 31 -27 28 -45 -7z"/>
<path d="M2060 945 c-6 -8 -8 -20 -4 -27 5 -7 11 -44 14 -83 l5 -70 211 -5
c186 -4 214 -7 232 -23 25 -22 37 -67 62 -231 21 -132 25 -146 40 -146 20 0
30 43 46 206 20 204 13 258 -42 323 -54 62 -96 71 -345 71 -169 0 -209 -3
-219 -15z"/>
<path d="M1120 680 c0 -27 27 -37 47 -17 20 19 9 37 -23 37 -17 0 -24 -5 -24
-20z"/>
<path d="M1934 685 c-8 -19 3 -35 26 -35 19 0 30 17 23 38 -6 17 -42 15 -49
-3z"/>
<path d="M468 628 c-65 -87 -86 -188 -48 -223 10 -9 47 -23 82 -31 75 -15 84
-10 97 58 4 26 16 59 25 72 15 24 15 26 -6 41 -12 8 -31 15 -41 15 -40 0 -59
20 -55 58 4 50 -22 54 -54 10z"/>
</g>
</svg>
