<?xml version="1.0" standalone="no"?>
<!DOCTYPE svg PUBLIC "-//W3C//DTD SVG 20010904//EN"
 "http://www.w3.org/TR/2001/REC-SVG-20010904/DTD/svg10.dtd">
<svg version="1.0" xmlns="http://www.w3.org/2000/svg"
 width="290" height="128" viewBox="0 0 290 128"
 preserveAspectRatio="xMidYMid meet">

<g transform="translate(0,128) scale(0.1,-0.1)" id="nome">
<path d="M337 1064 c-12 -12 -7 -48 8 -68 17 -22 20 -92 5 -101 -5 -3 -19 6
-32 20 -29 34 -41 32 -35 -7 3 -18 11 -69 17 -113 7 -44 17 -86 24 -92 8 -9
71 -14 224 -16 124 -2 217 -8 223 -14 5 -5 9 -48 7 -99 l-3 -89 -232 -5 c-127
-3 -234 -7 -236 -10 -9 -9 -12 -165 -3 -178 11 -18 539 -17 554 1 6 6 15 37
20 67 6 30 18 75 26 99 20 56 20 61 -4 61 -11 0 -20 -4 -20 -10 0 -20 -28 -9
-34 13 -11 40 -7 305 5 331 7 14 9 32 5 41 -5 14 -8 14 -35 0 -24 -12 -68 -15
-210 -15 -218 0 -231 4 -231 63 0 24 5 48 11 54 6 6 9 23 7 39 -2 23 -9 30
-28 32 -14 2 -29 0 -33 -4z"/>
<path d="M2010 1045 c-11 -14 -11 -24 4 -66 21 -57 15 -99 -13 -99 -10 0 -25
10 -34 23 -26 38 -34 8 -28 -108 l6 -110 236 -3 c173 -2 240 -6 247 -15 14
-17 32 -176 32 -289 0 -110 9 -121 53 -68 45 53 46 127 6 268 -24 85 -24 91 5
101 20 8 24 17 28 78 3 37 13 83 22 102 24 45 8 61 -31 31 -28 -20 -37 -21
-250 -18 -122 2 -225 7 -230 11 -4 5 -8 45 -8 90 0 67 -3 82 -16 85 -9 1 -22
-4 -29 -13z"/>
<path d="M1110 881 c-5 -11 -10 -38 -10 -60 0 -22 -5 -52 -10 -67 -14 -35 -2
-48 55 -64 25 -7 48 -17 51 -22 3 -4 -9 -91 -27 -192 -18 -101 -29 -191 -25
-201 6 -17 7 -17 26 0 21 19 46 92 89 267 16 64 32 121 36 127 4 7 56 11 142
11 131 0 137 -1 170 -26 38 -29 57 -63 67 -117 12 -65 6 -67 -185 -67 -106 0
-170 -4 -174 -10 -10 -16 -16 -168 -7 -173 16 -10 427 -18 441 -8 12 8 13 30
2 153 -24 280 -34 317 -99 385 -48 49 -101 65 -207 61 l-80 -3 3 -46 c2 -33
-2 -52 -16 -69 -26 -32 -52 -21 -52 23 0 46 -35 82 -101 101 -68 20 -76 20
-89 -3z"/>
<path d="M994 616 c-8 -21 3 -36 27 -36 15 0 20 6 17 22 -4 27 -35 37 -44 14z"/>
<path d="M1833 604 c-3 -8 -1 -20 5 -26 16 -16 42 -2 42 22 0 24 -38 28 -47 4z"/>
</g>
</svg>
