<?xml version="1.0" standalone="no"?>
<!DOCTYPE svg PUBLIC "-//W3C//DTD SVG 20010904//EN"
 "http://www.w3.org/TR/2001/REC-SVG-20010904/DTD/svg10.dtd">
<svg version="1.0" xmlns="http://www.w3.org/2000/svg"
 width="262" height="96" viewBox="0 0 262 96"
 preserveAspectRatio="xMidYMid meet">

<g transform="translate(0,96) scale(0.1,-0.1)" id="nome">
<path d="M1194 773 c4 -21 11 -71 15 -112 5 -43 14 -77 22 -82 8 -5 35 -9 60
-9 27 0 51 -6 58 -13 6 -8 18 -92 27 -188 18 -196 31 -231 61 -163 25 59 25
432 -1 486 -29 60 -49 72 -127 76 -55 3 -73 8 -82 23 -7 11 -18 19 -26 19 -10
0 -12 -9 -7 -37z"/>
<path d="M1631 709 c-6 -41 -12 -82 -14 -93 -2 -20 14 -32 53 -40 14 -3 33
-11 42 -18 16 -12 16 -20 -3 -138 -36 -225 -40 -254 -34 -268 9 -24 40 11 55
61 7 23 16 53 21 67 4 14 22 82 40 152 l32 127 54 7 c89 11 227 0 257 -20 53
-34 90 -131 66 -175 -10 -20 -19 -21 -178 -21 -111 0 -172 -4 -179 -11 -6 -6
-9 -26 -6 -43 3 -18 0 -50 -6 -72 -17 -62 -10 -64 228 -64 113 0 212 4 220 9
27 18 -8 388 -44 465 -28 58 -84 112 -130 125 -43 12 -173 15 -200 5 -13 -5
-15 -15 -10 -49 6 -36 3 -46 -19 -71 -22 -24 -27 -27 -36 -14 -5 8 -10 25 -10
37 0 62 -44 96 -136 108 l-51 7 -12 -73z"/>
<path d="M343 764 c-15 -6 -6 -161 10 -181 5 -7 24 -13 41 -13 54 0 56 -7 56
-207 0 -170 1 -183 19 -193 29 -15 526 -11 548 5 18 13 18 1 -22 437 -5 61
-29 112 -63 135 -24 16 -55 18 -302 20 -151 1 -280 0 -287 -3z m577 -220 c17
-17 21 -35 23 -100 l2 -79 -204 -3 c-113 -1 -208 1 -213 6 -4 4 -13 48 -20 96
-9 73 -9 90 3 97 8 5 98 8 201 7 175 -3 189 -4 208 -24z"/>
<path d="M1114 485 c-9 -23 4 -47 23 -43 22 4 30 38 11 49 -19 13 -28 11 -34
-6z"/>
<path d="M1530 475 c-11 -13 -11 -18 2 -31 20 -20 50 -7 46 20 -4 26 -30 32
-48 11z"/>
</g>
</svg>
