<?xml version="1.0" standalone="no"?>
<!DOCTYPE svg PUBLIC "-//W3C//DTD SVG 20010904//EN"
 "http://www.w3.org/TR/2001/REC-SVG-20010904/DTD/svg10.dtd">
<svg version="1.0" xmlns="http://www.w3.org/2000/svg"
 width="270" height="124" viewBox="0 0 270 124"
 preserveAspectRatio="xMidYMid meet">

<g transform="translate(0,124) scale(0.1,-0.1)" id="nome">
<path d="M1257 1146 c-3 -7 0 -24 7 -38 15 -28 25 -87 19 -105 -7 -19 -26 -16
-46 7 -24 29 -40 25 -34 -7 3 -16 13 -66 22 -112 8 -47 21 -91 26 -98 9 -10
72 -13 263 -15 l251 -3 9 -87 c7 -66 6 -91 -4 -103 -10 -12 -55 -15 -279 -17
l-266 -3 -3 -93 -3 -92 323 2 323 3 8 30 c4 17 19 64 33 105 13 42 24 81 24
88 0 17 -40 15 -46 -3 -12 -31 -31 -14 -38 31 -12 91 -7 279 9 318 14 33 14
37 0 43 -9 3 -26 0 -38 -6 -15 -8 -93 -11 -257 -9 l-234 3 -8 37 c-5 24 -3 50
6 75 7 21 11 44 9 51 -6 17 -70 16 -76 -2z"/>
<path d="M2104 1075 c-3 -7 1 -55 10 -106 9 -51 16 -121 16 -155 0 -68 13 -88
36 -55 23 32 98 30 120 -4 16 -24 15 -28 -15 -90 -18 -36 -29 -69 -26 -75 25
-41 111 58 145 168 24 77 25 104 5 146 -23 47 -68 69 -155 76 l-75 5 -15 47
c-15 49 -37 69 -46 43z"/>
<path d="M276 979 c-16 -85 -29 -170 -25 -174 3 -2 28 -10 57 -18 68 -17 77
-26 64 -69 -6 -18 -18 -76 -27 -128 -10 -52 -23 -122 -30 -155 -8 -34 -10 -64
-5 -69 14 -15 38 1 54 36 19 42 96 286 96 305 0 8 7 27 15 43 l16 30 163 0
c153 0 165 -1 197 -23 56 -36 95 -136 70 -175 -6 -9 -62 -15 -212 -20 l-204
-7 -7 -80 c-3 -44 -4 -83 -1 -87 2 -5 118 -8 258 -8 217 0 255 2 263 15 15 27
-29 395 -53 443 -21 42 -80 99 -126 122 -34 18 -55 20 -157 18 l-117 -3 3 -44
c3 -49 -18 -91 -46 -91 -11 0 -22 15 -32 47 -17 53 -50 82 -106 93 -22 4 -53
11 -71 15 -28 6 -33 5 -37 -16z"/>
<path d="M1113 733 c-18 -7 -16 -42 3 -50 8 -3 23 1 31 10 13 13 14 19 3 31
-13 17 -17 18 -37 9z"/>
<path d="M1987 723 c-12 -12 -7 -41 8 -47 22 -8 49 23 34 40 -12 15 -31 18
-42 7z"/>
</g>
</svg>
