<?xml version="1.0" standalone="no"?>
<!DOCTYPE svg PUBLIC "-//W3C//DTD SVG 20010904//EN"
 "http://www.w3.org/TR/2001/REC-SVG-20010904/DTD/svg10.dtd">
<svg version="1.0" xmlns="http://www.w3.org/2000/svg"
 width="218" height="112" viewBox="0 0 218 112"
 preserveAspectRatio="xMidYMid meet">

<g transform="translate(0,112) scale(0.1,-0.1)" id="nome">
<path d="M1130 925 c-12 -14 -11 -22 4 -50 21 -39 26 -72 14 -97 -12 -25 -33
-22 -52 7 -9 14 -21 23 -26 20 -15 -9 -13 -218 2 -233 9 -9 77 -12 245 -12
226 0 233 -1 244 -21 10 -19 31 -259 28 -319 -3 -63 16 -68 57 -15 40 52 41
108 6 232 -16 56 -26 105 -23 110 3 4 15 13 26 19 16 9 21 25 26 85 4 41 11
89 17 107 12 36 1 42 -32 17 -16 -12 -62 -15 -240 -15 -122 0 -227 4 -235 9
-10 6 -12 29 -10 87 4 74 3 79 -17 82 -11 2 -27 -4 -34 -13z"/>
<path d="M194 818 c20 -145 26 -225 21 -250 -8 -34 20 -51 40 -25 12 17 59 23
89 11 22 -8 20 -56 -4 -106 -22 -46 -25 -74 -9 -83 17 -11 46 23 78 89 40 84
51 121 51 178 0 86 -49 128 -148 128 -56 0 -65 8 -81 68 -8 27 -17 42 -28 42
-13 0 -14 -8 -9 -52z"/>
<path d="M624 818 c3 -29 8 -102 12 -163 3 -60 10 -114 15 -119 5 -6 16 -3 28
8 13 12 31 16 58 14 36 -3 38 -5 41 -39 2 -20 -6 -56 -18 -84 -22 -52 -16 -72
18 -61 29 10 98 150 106 219 14 109 -24 158 -129 165 -64 5 -95 22 -95 54 0
25 -18 58 -31 58 -7 0 -9 -19 -5 -52z"/>
<path d="M523 554 c-3 -8 2 -23 11 -32 15 -15 17 -15 32 0 21 21 11 48 -16 48
-11 0 -23 -7 -27 -16z"/>
<path d="M952 557 c-9 -10 -9 -18 1 -31 17 -23 49 -11 45 18 -4 25 -30 32 -46
13z"/>
<path d="M1138 453 c-28 -31 -88 -154 -88 -178 0 -65 64 -110 146 -103 37 3
40 6 52 48 7 25 21 62 30 83 18 43 9 57 -35 57 -12 0 -34 5 -48 12 -21 10 -25
17 -23 51 3 45 -11 56 -34 30z"/>
</g>
</svg>
