<?xml version="1.0" standalone="no"?>
<!DOCTYPE svg PUBLIC "-//W3C//DTD SVG 20010904//EN"
 "http://www.w3.org/TR/2001/REC-SVG-20010904/DTD/svg10.dtd">
<svg version="1.0" xmlns="http://www.w3.org/2000/svg"
 width="254" height="132" viewBox="0 0 254 132"
 preserveAspectRatio="xMidYMid meet">

<g transform="translate(0,132) scale(0.1,-0.1)" id="nome">
<path d="M1100 1075 c-9 -11 -9 -21 1 -48 12 -34 6 -87 -10 -87 -10 0 -21 35
-21 71 0 28 -20 42 -45 33 -21 -8 -19 -24 10 -66 34 -51 33 -77 -6 -91 -30
-12 -31 -14 -25 -56 3 -24 6 -61 6 -82 0 -45 21 -69 60 -69 34 0 35 -4 50
-180 14 -167 24 -210 49 -210 41 0 52 126 22 257 -27 120 -27 133 2 133 41 0
45 11 42 104 -3 87 -10 105 -41 106 -32 0 -18 55 25 102 23 24 23 36 -1 52
-24 14 -49 -10 -42 -39 6 -25 -22 -78 -37 -69 -13 7 -11 68 2 98 9 20 9 29 -1
41 -16 19 -24 19 -40 0z"/>
<path d="M1480 1031 c0 -17 5 -33 10 -36 6 -3 10 -28 10 -55 0 -58 -20 -71
-49 -34 -11 14 -24 23 -28 21 -10 -6 -8 -221 1 -236 5 -7 84 -11 240 -11 175
0 236 -3 243 -12 15 -18 33 -179 33 -286 0 -50 4 -93 9 -97 14 -8 59 44 72 84
13 39 6 106 -22 206 -23 84 -24 105 -4 105 25 0 42 42 44 110 1 36 7 78 13 93
14 37 5 44 -28 18 -25 -20 -38 -21 -243 -21 -158 0 -222 3 -234 13 -19 13 -23
65 -12 130 7 36 7 37 -24 37 -28 0 -31 -3 -31 -29z"/>
<path d="M584 986 c-3 -9 -1 -30 6 -48 6 -18 14 -88 17 -156 3 -67 10 -125 15
-128 5 -3 18 2 29 12 21 19 73 21 95 3 20 -16 18 -40 -11 -105 -26 -59 -23
-79 10 -72 21 4 86 124 103 191 33 132 -4 189 -133 201 -32 3 -62 9 -67 14 -4
4 -14 28 -21 52 -13 46 -33 62 -43 36z"/>
<path d="M920 685 c-16 -19 -6 -45 19 -45 25 0 34 26 15 45 -19 18 -19 18 -34
0z"/>
<path d="M1312 677 c-9 -10 -9 -18 1 -31 17 -23 49 -11 45 18 -4 25 -30 32
-46 13z"/>
<path d="M1472 543 c-37 -57 -72 -137 -72 -163 0 -36 42 -71 104 -85 73 -17
96 -8 96 38 0 18 9 50 20 72 11 22 20 45 20 51 0 13 -22 24 -50 24 -11 0 -31
5 -45 12 -21 10 -25 17 -23 51 4 56 -14 56 -50 0z"/>
</g>
</svg>
