<?xml version="1.0" encoding="iso-8859-1"?>
<!-- Generator: Adobe Illustrator 19.0.0, SVG Export Plug-In . SVG Version: 6.00 Build 0)  -->
<svg version="1.1" id="Layer_1" xmlns="http://www.w3.org/2000/svg" xmlns:xlink="http://www.w3.org/1999/xlink" x="0px" y="0px"
	 viewBox="0 0 508 508" style="enable-background:new 0 0 508 508;" xml:space="preserve">
<g>
	<path style="fill:#F4EFEF;" d="M66,76.4c-4.4,1.6-8.8,4.8-12.4,9.2c-3.6,4.4-6,9.2-6.4,14c-0.4,3.6,0.4,6.4,2,8.4
		c8-11.2,16.8-21.6,26.4-31.2C72.8,75.2,69.6,75.2,66,76.4z"/>
	<path style="fill:#F4EFEF;" d="M382.8,478.8c4.8,0,10-2,14.8-4.8c4.8-3.2,8.4-7.2,10.4-11.6c1.6-3.6,1.6-6.8,0.4-9.2
		c-10.8,8.4-22.4,16-34.4,22.4C375.6,477.6,378.8,478.8,382.8,478.8z"/>
	<path style="fill:#F4EFEF;" d="M371.6,19.2c-9.6-5.6-20.8-5.2-24,0.8c12.8,5.2,25.2,11.2,36.8,18.4C386,32.4,380.4,24.4,371.6,19.2
		z"/>
</g>
<path style="fill:#E8E3E3;" d="M502,254C502,117.2,390.8,6,254,6S6,117.2,6,254s111.2,248,248,248S502,390.8,502,254z M135.2,374.4
	c-3.2,3.2-8,5.2-13.2,5.2l0,0c-8,0-16.4-4-23.2-10.4c-5.6-5.6-9.2-12.4-10.4-19.2c-1.2-7.2,0.4-13.2,4.8-17.6
	c3.2-3.2,8-5.2,13.2-5.2c8,0,16.4,4,23.2,10.4c5.6,5.6,9.2,12.4,10.4,19.2C141.2,364,139.6,370,135.2,374.4z M162.4,257.2
	c-27.6,0-50.4-22.4-50.4-50.4s22.4-50.4,50.4-50.4s50.4,22.4,50.4,50.4S190.4,257.2,162.4,257.2z M270,347.6
	c-18.8,0-33.6-15.2-33.6-33.6c0-18.8,15.2-33.6,33.6-33.6s33.6,15.2,33.6,33.6S288.4,347.6,270,347.6z M341.2,200
	c-16.4,0-29.6-13.2-29.6-29.6s13.2-29.6,29.6-29.6c16.4,0,29.6,13.2,29.6,29.6S357.6,200,341.2,200z M416.4,368.8
	c-6.8,6.8-15.2,10.4-23.2,10.4c-5.2,0-10-1.6-13.2-5.2c-4.4-4.4-6-10.4-4.8-17.6c1.2-6.8,4.8-13.6,10.4-19.2
	c6.8-6.8,15.2-10.4,23.2-10.4c5.2,0,10,1.6,13.2,5.2C430.4,340.8,428,357.2,416.4,368.8z"/>
<path style="fill:#AEB1B4;" d="M162.4,160.4c-25.6,0-46.4,20.8-46.4,46.4s20.8,46.4,46.4,46.4s46.4-20.8,46.4-46.4
	C208.8,181.2,188,160.4,162.4,160.4z"/>
<g>
	<path style="fill:#7D8B95;" d="M270,284c-16.4,0-30,13.2-30,30s13.2,30,30,30s30-13.2,30-30S286.4,284,270,284z"/>
	<path style="fill:#7D8B95;" d="M341.2,144.8c-14,0-25.6,11.6-25.6,25.6s11.6,25.6,25.6,25.6s25.6-11.6,25.6-25.6
		S355.6,144.8,341.2,144.8z"/>
</g>
<path style="fill:#AEB1B4;" d="M408.4,331.2c-6.8,0-14.4,3.6-20.4,9.6c-4.8,4.8-8,10.8-9.2,16.8c-0.8,5.6,0.4,10.8,3.6,14
	c2.8,2.8,6.4,4,10.4,4c6.8,0,14.4-3.6,20.4-9.6c10-10,12.4-24,5.6-30.8C416.4,332.4,412.8,331.2,408.4,331.2z"/>
<path style="fill:#7D8B95;" d="M106.8,331.2c-4.4,0-8,1.2-10.4,4c-3.2,3.2-4.8,8.4-3.6,14c0.8,6,4,12,9.2,16.8
	c6,6,13.6,9.6,20.4,9.6c4.4,0,8-1.2,10.4-4c3.2-3.2,4.8-8.4,3.6-14c-0.8-6-4-12-9.2-16.8C121.2,334.8,113.6,331.2,106.8,331.2z"/>
<path d="M254,508C114,508,0,394,0,254S114,0,254,0s254,114,254,254S394,508,254,508z M254,8C118.4,8,8,118.4,8,254
	s110.4,246,246,246s246-110.4,246-246S389.6,8,254,8z"/>
<path d="M162.4,259.2c-28.8,0-52.4-23.6-52.4-52.4s23.6-52.4,52.4-52.4c28.8,0,52.4,23.6,52.4,52.4S191.2,259.2,162.4,259.2z
	 M162.4,162.4c-24.4,0-44.4,20-44.4,44.4s20,44.4,44.4,44.4s44.4-20,44.4-44.4S186.8,162.4,162.4,162.4z"/>
<path d="M270,349.6c-19.6,0-35.6-16-35.6-35.6s16-35.6,35.6-35.6s35.6,16,35.6,35.6S289.6,349.6,270,349.6z M270,286
	c-15.2,0-27.6,12.4-27.6,27.6s12.4,27.6,27.6,27.6c15.2,0,27.6-12.4,27.6-27.6S285.2,286,270,286z"/>
<path d="M253.6,444c-20,0-35.6-11.2-35.6-25.6c0-2.4,1.6-4,4-4s4,1.6,4,4c0,9.6,12.8,17.6,27.6,17.6c15.2,0,27.6-8,27.6-17.6
	c0-2.4,1.6-4,4-4s4,1.6,4,4C289.6,432.8,274,444,253.6,444z"/>
<path d="M416.8,139.2c-1.2,0-2-0.4-2.8-1.2c-1.6-1.6-1.6-4,0-5.6c2.4-2.4,2.4-6.4,2-8.8c-0.8-4.4-3.2-8.8-7.2-12.4
	c-7.2-7.2-16.8-9.6-21.2-5.2c-1.6,1.6-4,1.6-5.6,0s-1.6-4,0-5.6c7.6-7.6,22-5.2,32.4,5.2c4.8,4.8,8,10.8,9.2,16.4c1.2,6.4,0,12-4,16
	C419.2,138.8,418,139.2,416.8,139.2z"/>
<path d="M146,110.8c-1.2,0-2-0.4-2.8-1.2c-8.4-8.4-6.8-23.6,3.6-34c4.8-4.8,11.2-8,17.2-8.8c6.8-0.8,12.8,1.2,16.8,5.2
	c1.6,1.6,1.6,4,0,5.6s-4,1.6-5.6,0c-2.4-2.4-6-3.6-10-2.8c-4.4,0.4-8.8,2.8-12.8,6.4c-7.2,7.2-8.8,17.6-3.6,22.8
	c1.6,1.6,1.6,4,0,5.6C148,110.4,147.2,110.8,146,110.8z"/>
<path d="M48.8,114.8c-0.8,0-2-0.4-2.4-0.8c-4-3.2-6-8.8-5.2-15.2c0.8-5.6,3.6-12,8-17.2s9.6-9.2,15.2-10.8c6-2,12-1.2,16,2
	c1.6,1.6,2,4,0.4,5.6s-4,2-5.6,0.4c-2.4-2-6.4-1.2-8.4-0.8c-4,1.2-8.4,4.4-11.6,8.4c-3.2,4-5.6,8.8-6,12.8c-0.4,2-0.4,6,2,8
	c1.6,1.6,2,4,0.4,5.6C50.8,114.4,49.6,114.8,48.8,114.8z"/>
<path d="M382.4,484.8c-6.4,0-11.2-2.4-14-6.8c-1.2-2-0.8-4.4,1.2-5.6s4.4-0.8,5.6,1.2c1.6,2.8,5.6,3.2,7.6,3.2
	c4.4,0,9.2-1.6,13.6-4.8c9.2-6,12.4-14.8,10-18.8c-1.2-2-0.8-4.4,1.2-5.6s4.4-0.8,5.6,1.2c5.6,8.8,0.4,22-12,30
	C394.8,482.4,388.8,484.4,382.4,484.8C382.8,484.8,382.4,484.8,382.4,484.8z"/>
<path d="M385.6,45.2c-0.8,0-1.2,0-2-0.4c-2-1.2-2.8-3.6-1.6-5.6c2.4-4.4-1.6-12.8-11.2-18c-9.6-5.2-18.8-4.4-21.2,0
	c-1.2,2-3.6,2.8-5.6,1.6c-2-1.2-2.8-3.6-1.6-5.6c5.2-9.2,19.2-10.4,32.4-3.2c13.2,7.2,19.2,20,14.4,29.2
	C388.4,44.4,386.8,45.2,385.6,45.2z"/>
<path d="M341.2,202c-17.6,0-31.6-14-31.6-31.6s14-31.6,31.6-31.6s31.6,14,31.6,31.6C372.8,187.6,358.8,202,341.2,202z M341.2,146.8
	c-13.2,0-23.6,10.8-23.6,23.6c0,13.2,10.8,23.6,23.6,23.6c13.2,0,23.6-10.8,23.6-23.6C364.8,157.2,354.4,146.8,341.2,146.8z"/>
<path d="M393.2,381.2c-5.6,0-10.8-2-14.8-5.6c-9.2-9.2-6.8-27.2,5.2-39.2l0,0l0,0c6-6,12.8-9.6,20-10.8c7.6-1.2,14.4,0.8,19.2,5.2
	c4.8,4.8,6.8,11.6,5.2,19.2c-1.2,7.2-4.8,14.4-10.8,20C410.4,377.6,401.6,381.2,393.2,381.2z M408.4,333.2c-1.2,0-2,0-3.2,0.4
	c-5.6,0.8-11.2,4-15.6,8.4l0,0c-4.8,4.8-7.6,10.4-8.4,15.6c-0.8,5.2,0.4,9.6,3.2,12.4s7.2,4,12.4,3.2c5.6-0.8,11.2-4,15.6-8.4
	s7.6-10.4,8.4-15.6c0.8-5.2-0.4-9.6-3.2-12.4C415.2,334.4,412,333.2,408.4,333.2z"/>
<path d="M122,381.6c-8,0-17.2-4-24.4-11.2l0,0c-12.4-12.4-14.8-30-5.2-39.2c9.2-9.2,27.2-6.8,39.2,5.2c6,6,9.6,12.8,10.8,20
	c1.2,7.6-0.8,14.4-5.2,19.2C132.8,379.6,127.6,381.6,122,381.6z M102.8,364.8c9.2,9.2,22,11.6,28,5.2c2.8-2.8,4-7.2,3.2-12.4
	c-0.8-5.6-4-11.2-8.4-15.6c-9.2-9.2-22-11.6-28-5.2C91.6,342.8,94,355.6,102.8,364.8L102.8,364.8z"/>
<g>
</g>
<g>
</g>
<g>
</g>
<g>
</g>
<g>
</g>
<g>
</g>
<g>
</g>
<g>
</g>
<g>
</g>
<g>
</g>
<g>
</g>
<g>
</g>
<g>
</g>
<g>
</g>
<g>
</g>
</svg>
