<?xml version="1.0" standalone="no"?>
<!DOCTYPE svg PUBLIC "-//W3C//DTD SVG 20010904//EN"
 "http://www.w3.org/TR/2001/REC-SVG-20010904/DTD/svg10.dtd">
<svg version="1.0" xmlns="http://www.w3.org/2000/svg" width="222" height="146" viewBox="0 0 222 146" preserveAspectRatio="xMidYMid meet">

<g transform="translate(0,146) scale(0.1,-0.1)" id="nome">
<path d="M876 1104 c-3 -8 1 -28 9 -43 37 -72 12 -148 -31 -95 -12 15 -26 24
-31 21 -16 -10 -7 -228 9 -238 7 -5 115 -9 240 -9 220 0 228 -1 238 -21 12
-22 31 -239 28 -322 0 -26 2 -50 6 -55 13 -12 75 68 82 106 7 38 -2 97 -32
205 l-18 68 26 22 c23 19 27 32 33 106 4 46 12 92 18 102 17 28 0 35 -26 11
-22 -21 -31 -22 -250 -22 -265 0 -254 -5 -242 111 l7 69 -30 0 c-18 0 -32 -6
-36 -16z"/>
<path d="M1636 982 c-2 -4 2 -34 10 -67 7 -33 14 -81 14 -106 0 -54 7 -59 80
-59 37 0 52 -4 58 -17 6 -10 17 -97 26 -193 10 -96 21 -179 26 -184 13 -14 29
2 40 42 13 48 13 406 0 454 -6 20 -24 48 -41 62 -26 22 -40 26 -95 26 -57 0
-65 3 -80 25 -17 25 -29 31 -38 17z"/>
<path d="M384 948 c4 -18 10 -64 13 -103 3 -38 10 -76 16 -82 5 -8 33 -13 67
-13 43 0 59 -4 64 -15 5 -15 20 -143 35 -310 5 -53 10 -71 22 -73 9 -2 20 5
25 15 10 22 18 423 9 469 -3 19 -20 50 -37 69 -29 33 -33 35 -97 35 -55 0 -71
4 -86 20 -27 30 -38 25 -31 -12z"/>
<path d="M720 705 c-10 -12 -10 -18 0 -30 16 -20 36 -19 44 1 6 16 -9 44 -24
44 -4 0 -13 -7 -20 -15z"/>
<path d="M1535 704 c-15 -15 -15 -19 -1 -32 17 -17 46 -10 46 11 0 8 -6 20
-14 26 -11 9 -18 8 -31 -5z"/>
<path d="M882 623 c-27 -38 -68 -122 -76 -156 -8 -32 14 -81 44 -97 10 -5 47
-11 81 -13 l63 -2 7 42 c5 24 15 58 25 78 21 44 13 65 -25 65 -17 0 -42 5 -56
12 -22 10 -25 17 -20 37 11 48 10 55 -6 59 -10 2 -25 -9 -37 -25z"/>
</g>
</svg>
