<?xml version="1.0" standalone="no"?>
<!DOCTYPE svg PUBLIC "-//W3C//DTD SVG 20010904//EN"
 "http://www.w3.org/TR/2001/REC-SVG-20010904/DTD/svg10.dtd">
<svg version="1.0" xmlns="http://www.w3.org/2000/svg"
 width="206" height="162" viewBox="0 0 206 162"
 preserveAspectRatio="xMidYMid meet">

<g transform="translate(0,162) scale(0.1,-0.1)" id="nome">
<path d="M1078 1448 c-4 -30 -34 -35 -43 -9 -3 12 -12 21 -20 21 -10 0 -12
-23 -8 -107 2 -60 6 -114 8 -120 6 -20 23 -15 30 8 5 16 14 19 38 17 l32 -3 7
-80 c4 -44 11 -140 16 -213 6 -97 12 -136 23 -144 9 -6 82 -7 192 -4 114 3
189 1 210 -6 98 -33 113 -128 28 -185 -30 -20 -46 -23 -135 -23 -56 0 -108 -4
-116 -10 -10 -6 -15 -29 -16 -72 -1 -35 -4 -74 -6 -88 -3 -25 -2 -25 76 -28
72 -3 86 0 142 28 112 55 199 183 198 290 0 115 -55 219 -137 262 -37 20 -62
23 -222 28 l-180 5 -8 165 c-10 208 -10 207 -52 224 -27 12 -35 21 -35 40 0
32 -17 34 -22 4z"/>
<path d="M265 1047 c-4 -9 -3 -22 1 -28 4 -7 12 -53 18 -103 l12 -91 61 -5
c34 -3 66 -9 71 -15 5 -5 14 -71 21 -145 20 -228 22 -240 35 -240 37 0 41 28
41 259 0 169 -3 234 -14 258 -20 48 -67 73 -134 73 -48 0 -60 4 -81 27 -21 23
-26 24 -31 10z"/>
<path d="M676 1051 c-4 -5 -2 -41 4 -79 12 -77 18 -121 19 -139 1 -9 20 -13
60 -13 35 0 62 -5 68 -12 10 -13 27 -144 39 -300 6 -81 21 -110 43 -84 18 21
29 167 27 331 -1 119 -4 146 -22 180 -25 49 -72 75 -136 75 -55 0 -78 7 -78
25 0 18 -17 28 -24 16z"/>
<path d="M603 764 c-3 -8 2 -23 11 -32 14 -15 18 -15 31 -1 9 9 13 23 9 32 -8
21 -43 22 -51 1z"/>
<path d="M1033 773 c-19 -7 -16 -40 4 -47 9 -4 23 0 31 8 13 12 13 18 2 30
-13 17 -17 18 -37 9z"/>
</g>
</svg>
