<?xml version="1.0" standalone="no"?>
<!DOCTYPE svg PUBLIC "-//W3C//DTD SVG 20010904//EN"
 "http://www.w3.org/TR/2001/REC-SVG-20010904/DTD/svg10.dtd">
<svg version="1.0" xmlns="http://www.w3.org/2000/svg"
 width="260" height="118" viewBox="0 0 260 118"
 preserveAspectRatio="xMidYMid meet">

<g transform="translate(0,118) scale(0.1,-0.1)"
id="nome">
<path d="M1715 1000 c-4 -11 -2 -27 5 -35 16 -20 31 -77 24 -97 -7 -24 -41
-23 -56 2 -7 11 -18 20 -25 20 -10 0 -13 -29 -13 -115 0 -115 0 -116 26 -125
14 -6 124 -10 244 -10 199 0 220 -2 229 -17 12 -23 33 -255 29 -318 -4 -64 18
-72 58 -19 36 47 37 110 6 236 -27 107 -27 111 1 123 19 9 23 20 28 88 4 42
12 91 19 107 17 40 7 47 -26 21 -25 -20 -38 -21 -243 -21 -255 0 -267 4 -257
74 14 93 13 101 -16 104 -19 2 -28 -2 -33 -18z"/>
<path d="M445 948 c-3 -8 -1 -44 4 -79 6 -35 11 -105 11 -156 0 -100 9 -117
44 -84 27 25 68 27 91 4 19 -18 14 -67 -11 -115 -23 -45 -15 -75 18 -63 21 8
74 105 92 168 43 147 -6 227 -139 227 -48 0 -75 24 -75 66 0 28 -27 53 -35 32z"/>
<path d="M870 835 c-6 -8 -8 -20 -4 -27 5 -7 11 -44 14 -83 l5 -70 213 -5
c209 -5 214 -6 233 -28 29 -36 40 -90 67 -307 6 -51 10 -60 27 -60 17 0 22 11
32 70 20 112 27 333 13 385 -17 63 -73 115 -140 129 -28 6 -140 11 -249 11
-162 0 -201 -3 -211 -15z"/>
<path d="M767 647 c-8 -21 8 -39 29 -35 27 5 25 42 -2 46 -12 2 -24 -3 -27
-11z"/>
<path d="M1536 644 c-7 -19 10 -44 30 -44 15 0 28 35 19 50 -10 16 -42 12 -49
-6z"/>
<path d="M1697 488 c-45 -72 -59 -110 -55 -149 4 -43 49 -74 118 -84 57 -8 80
4 80 40 0 13 9 45 20 71 25 57 20 74 -19 74 -17 0 -42 5 -56 12 -24 11 -25 16
-20 50 6 34 4 38 -14 38 -14 0 -31 -17 -54 -52z"/>
</g>
</svg>
