<?xml version="1.0" standalone="no"?>
<!DOCTYPE svg PUBLIC "-//W3C//DTD SVG 20010904//EN"
 "http://www.w3.org/TR/2001/REC-SVG-20010904/DTD/svg10.dtd">
<svg version="1.0" xmlns="http://www.w3.org/2000/svg"
 width="294" height="152" viewBox="0 0 294 152"
 preserveAspectRatio="xMidYMid meet">

<g transform="translate(0,152) scale(0.1,-0.1)" id="nome">
<path d="M1108 1378 c-4 -31 -38 -36 -45 -8 -3 11 -11 19 -17 17 -7 -3 -10
-39 -7 -118 2 -63 5 -116 7 -118 2 -3 14 5 27 17 28 26 62 28 72 5 3 -10 11
-101 17 -203 6 -102 14 -195 19 -207 8 -23 10 -23 213 -23 l205 0 35 -34 c47
-44 49 -91 7 -138 l-29 -33 -119 -3 c-65 -2 -122 -8 -128 -13 -5 -5 -10 -37
-11 -72 -1 -34 -4 -73 -6 -87 -3 -25 -2 -25 75 -28 66 -2 87 1 130 21 77 36
141 98 178 172 29 59 31 70 27 142 -5 90 -29 152 -80 199 -65 62 -87 67 -271
71 -93 2 -173 5 -178 9 -5 3 -9 77 -9 165 0 91 -4 169 -10 180 -6 10 -24 26
-41 34 -19 10 -32 26 -36 45 -7 35 -20 39 -25 8z"/>
<path d="M397 1109 c-21 -12 -21 -37 -2 -63 34 -45 7 -137 -29 -101 -9 9 -16
21 -16 26 0 5 -7 9 -15 9 -13 0 -15 -17 -13 -117 l3 -118 236 -3 c173 -2 240
-6 247 -15 16 -19 32 -158 32 -278 0 -103 1 -109 20 -109 27 0 80 83 80 125 0
17 -14 80 -30 140 -17 60 -29 114 -26 121 3 7 15 14 28 16 21 3 24 9 29 78 3
41 11 88 18 103 16 41 5 51 -33 27 -31 -18 -50 -20 -247 -20 -118 0 -220 4
-227 8 -15 10 -19 83 -8 129 7 25 5 33 -11 41 -12 7 -25 7 -36 1z"/>
<path d="M2389 958 c-12 -24 -37 -61 -55 -82 -19 -22 -34 -45 -34 -51 0 -7 18
-24 40 -39 40 -27 50 -52 28 -74 -25 -25 -57 -10 -154 71 -101 83 -176 137
-193 137 -5 0 -24 14 -41 31 -18 18 -35 28 -40 23 -4 -5 -10 -54 -11 -108 l-4
-100 39 -27 c22 -15 43 -34 46 -44 11 -31 -23 -255 -47 -314 -8 -19 -12 -45
-8 -58 5 -22 10 -24 33 -18 15 4 47 8 71 9 40 1 46 -2 51 -24 16 -67 75 1 87
101 8 68 -17 93 -109 113 -25 6 -28 11 -28 46 0 46 15 90 31 90 11 0 47 -30
227 -187 113 -98 192 -144 216 -124 8 7 18 29 21 50 3 20 12 57 20 84 18 59
12 78 -23 71 -22 -4 -41 6 -100 52 -39 31 -72 63 -72 70 0 6 21 26 48 42 26
17 62 45 80 63 49 48 43 79 -34 153 -24 24 -44 50 -44 59 0 33 -20 26 -41 -15z"/>
<path d="M1047 724 c-4 -4 -7 -16 -7 -26 0 -13 7 -18 26 -18 21 0 25 4 22 22
-3 23 -27 35 -41 22z"/>
<path d="M1831 716 c-9 -11 -8 -17 4 -30 20 -20 47 -9 43 18 -4 25 -30 32 -47
12z"/>
</g>
</svg>
