<?xml version="1.0" standalone="no"?>
<!DOCTYPE svg PUBLIC "-//W3C//DTD SVG 20010904//EN"
 "http://www.w3.org/TR/2001/REC-SVG-20010904/DTD/svg10.dtd">
<svg version="1.0" xmlns="http://www.w3.org/2000/svg"
 width="290" height="156" viewBox="0 0 290 156"
 preserveAspectRatio="xMidYMid meet">

<g transform="translate(0,156) scale(0.1,-0.1)"
id="nome">
<path d="M1216 1284 c-3 -8 1 -28 9 -44 18 -35 20 -114 3 -128 -7 -6 -26 -12
-43 -14 -25 -2 -30 -7 -27 -28 2 -14 5 -51 7 -84 2 -32 7 -62 12 -67 4 -4 112
-9 239 -11 227 -3 231 -3 267 -28 44 -30 61 -67 52 -110 -11 -51 -40 -70 -109
-70 -34 0 -66 -4 -72 -8 -7 -4 -13 -41 -14 -87 -3 -106 -4 -105 26 -105 84 0
176 63 217 150 18 37 22 63 22 150 0 113 -9 145 -57 217 -49 72 -86 83 -286
83 -204 0 -199 -4 -188 122 l6 78 -29 0 c-17 0 -31 -6 -35 -16z"/>
<path d="M2047 1273 c-12 -11 -7 -47 8 -67 15 -20 20 -63 9 -90 -9 -25 -39
-19 -53 10 -6 14 -17 24 -24 21 -16 -5 -10 -229 7 -239 6 -4 113 -8 237 -8
169 0 229 -3 236 -12 17 -21 25 -85 32 -237 4 -96 10 -146 18 -148 16 -6 64
60 73 102 8 36 -1 88 -34 209 -18 64 -16 86 8 86 23 0 36 33 36 93 0 30 6 73
14 95 17 48 10 60 -19 32 -21 -19 -32 -20 -255 -18 l-234 3 -9 35 c-6 22 -5
48 2 71 6 20 8 44 5 53 -6 16 -45 22 -57 9z"/>
<path d="M284 1097 c-2 -7 0 -34 5 -58 6 -24 11 -60 11 -80 0 -39 12 -49 55
-49 43 0 47 -18 47 -210 -1 -165 1 -181 18 -190 11 -6 125 -10 279 -10 290 0
296 1 287 63 -3 18 -10 79 -16 137 -34 343 -36 351 -87 386 -26 17 -53 19
-311 22 -234 3 -283 1 -288 -11z m584 -210 c18 -19 22 -37 25 -103 l2 -79
-208 -3 -207 -2 -9 22 c-11 31 -22 173 -14 182 3 3 93 6 198 6 187 0 192 -1
213 -23z"/>
<path d="M1061 826 c-15 -18 -3 -46 19 -46 10 0 21 7 24 16 6 16 -9 44 -24 44
-4 0 -13 -6 -19 -14z"/>
<path d="M1887 823 c-12 -12 -7 -41 8 -47 22 -8 49 23 34 40 -12 15 -31 18
-42 7z"/>
<path d="M2023 743 c-50 -79 -65 -130 -48 -170 17 -41 41 -52 119 -60 60 -5
63 -5 69 18 4 13 7 32 7 42 0 11 7 34 16 52 24 51 16 69 -31 73 -56 5 -68 18
-61 64 6 33 4 38 -14 38 -14 0 -32 -18 -57 -57z"/>
<path d="M1206 698 c7 -80 15 -95 47 -100 16 -2 25 -14 33 -43 16 -57 66 -310
74 -373 11 -95 47 -94 70 2 18 77 9 148 -34 254 -21 51 -40 109 -43 128 -5 32
-4 34 21 34 35 0 38 12 23 95 l-13 70 -93 3 -92 3 7 -73z"/>
</g>
</svg>
