<?xml version="1.0" standalone="no"?>
<!DOCTYPE svg PUBLIC "-//W3C//DTD SVG 20010904//EN"
 "http://www.w3.org/TR/2001/REC-SVG-20010904/DTD/svg10.dtd">
<svg version="1.0" xmlns="http://www.w3.org/2000/svg"
 width="258" height="144" viewBox="0 0 258 144"
 preserveAspectRatio="xMidYMid meet">

<g transform="translate(0,144) scale(0.1,-0.1)"
id="nome">
<path d="M1690 1326 c0 -38 -21 -43 -47 -10 -12 16 -23 25 -24 19 -3 -24 3
-231 7 -237 2 -4 15 4 29 18 27 27 47 30 65 10 9 -12 26 -240 30 -398 0 -9 7
-24 16 -32 13 -14 48 -16 223 -16 202 0 208 -1 228 -22 52 -58 53 -99 3 -147
-37 -35 -65 -41 -185 -41 -102 0 -110 -5 -98 -60 3 -17 0 -51 -7 -76 -17 -60
-8 -66 90 -61 94 4 153 31 221 101 71 73 103 144 102 226 -2 88 -33 168 -83
214 -66 59 -94 66 -267 66 -87 0 -163 4 -174 10 -17 10 -19 23 -19 165 0 89
-5 164 -11 177 -6 13 -25 32 -42 43 -21 13 -33 30 -35 48 -4 34 -22 36 -22 3z"/>
<path d="M1359 898 c-12 -24 -35 -59 -50 -78 -16 -19 -29 -39 -29 -44 0 -5 19
-29 42 -54 39 -42 40 -46 23 -58 -35 -26 -63 -16 -138 49 -103 88 -144 119
-209 156 -32 18 -58 37 -58 42 0 6 -7 9 -16 7 -14 -2 -17 -20 -20 -105 l-3
-102 42 -28 c29 -20 43 -37 45 -55 4 -36 -24 -196 -49 -281 -11 -38 -18 -75
-15 -82 4 -10 22 -12 80 -8 l74 6 4 -29 c8 -77 80 4 94 106 7 55 -14 83 -79
101 -62 18 -67 26 -59 84 11 77 29 70 193 -75 190 -168 276 -216 294 -161 2 9
9 43 14 76 6 33 13 73 17 88 6 28 6 28 -27 22 -31 -5 -41 0 -106 56 -42 35
-70 66 -67 74 3 7 33 32 67 56 76 51 87 65 87 102 0 20 -14 43 -49 80 -27 29
-52 62 -55 75 -11 33 -23 27 -47 -20z"/>
<path d="M445 883 c5 -27 11 -79 14 -118 l6 -70 62 -5 c34 -3 67 -10 73 -16 6
-6 16 -67 21 -135 17 -209 22 -243 40 -247 32 -6 39 42 39 269 0 231 -2 242
-48 292 -23 24 -33 27 -89 27 -55 0 -67 4 -89 25 -14 14 -28 25 -31 25 -3 0
-2 -21 2 -47z"/>
<path d="M790 635 c-10 -12 -10 -18 0 -30 16 -19 39 -19 46 0 6 15 -11 45 -26
45 -4 0 -13 -7 -20 -15z"/>
<path d="M1627 633 c-12 -12 -7 -41 7 -46 19 -7 40 18 32 38 -6 15 -28 20 -39
8z"/>
</g>
</svg>
