<?xml version="1.0" standalone="no"?>
<!DOCTYPE svg PUBLIC "-//W3C//DTD SVG 20010904//EN"
 "http://www.w3.org/TR/2001/REC-SVG-20010904/DTD/svg10.dtd">
<svg version="1.0" xmlns="http://www.w3.org/2000/svg"
 width="292" height="142" viewBox="0 0 292 142"
 preserveAspectRatio="xMidYMid meet">

<g transform="translate(0,142) scale(0.1,-0.1)"
id="nome">
<path d="M1214 1166 c-16 -12 -17 -18 -6 -53 15 -51 15 -103 0 -103 -6 0 -20
8 -30 17 -32 29 -38 3 -17 -72 10 -38 19 -86 19 -105 0 -20 5 -41 12 -48 9 -9
71 -12 218 -12 113 0 212 -5 220 -10 11 -7 15 -31 15 -102 l0 -93 -230 -3
c-126 -1 -234 -7 -239 -12 -5 -5 -10 -47 -11 -95 -3 -80 -1 -85 19 -90 11 -3
138 -4 280 -3 l259 3 7 25 c4 14 13 50 20 80 7 30 20 70 28 88 12 24 13 35 4
44 -9 9 -16 7 -32 -7 -13 -12 -24 -15 -30 -9 -6 6 -13 73 -17 151 -5 116 -3
148 11 188 18 56 10 73 -25 54 -31 -16 -407 -13 -427 4 -14 11 -12 49 3 124 9
39 -20 61 -51 39z"/>
<path d="M400 1150 c-9 -16 -7 -28 4 -52 35 -69 7 -141 -35 -89 -35 43 -43 23
-40 -94 1 -60 5 -113 7 -117 3 -5 101 -8 218 -8 233 0 272 -4 281 -29 3 -9 9
-94 12 -189 7 -191 14 -210 59 -156 50 61 51 101 6 274 -19 75 -16 100 13 100
18 0 25 23 25 85 0 29 7 72 15 95 8 23 15 44 15 46 0 9 -25 3 -39 -10 -13 -12
-61 -15 -245 -17 -278 -2 -273 -5 -241 124 13 48 -33 78 -55 37z"/>
<path d="M1966 984 c-3 -9 -6 -30 -6 -47 0 -18 -5 -49 -11 -70 -13 -47 -4 -59
51 -76 23 -7 43 -18 46 -26 6 -15 -9 -139 -31 -260 -24 -133 -17 -178 20 -121
18 27 22 40 71 226 20 74 40 143 45 153 9 15 27 17 149 17 l140 0 39 -39 c30
-30 41 -51 46 -84 13 -86 22 -81 -177 -87 -97 -3 -178 -7 -181 -10 -2 -3 -7
-42 -9 -88 -4 -72 -2 -84 13 -93 22 -12 419 -12 438 0 11 7 13 27 8 98 -13
172 -25 279 -36 320 -17 62 -71 134 -121 160 -39 21 -56 23 -140 21 l-95 -3 0
-42 c-1 -50 -22 -93 -47 -93 -14 0 -18 8 -18 40 0 53 -30 83 -101 104 -66 20
-85 20 -93 0z"/>
<path d="M1041 706 c-15 -18 -3 -46 19 -46 10 0 21 7 24 16 6 16 -9 44 -24 44
-4 0 -13 -6 -19 -14z"/>
<path d="M1847 703 c-12 -12 -7 -41 8 -47 22 -8 49 23 34 40 -12 15 -31 18
-42 7z"/>
<path d="M378 633 c-71 -121 -76 -172 -20 -209 32 -22 123 -41 141 -30 5 3 14
30 21 58 6 29 18 63 26 76 18 28 12 52 -13 52 -10 0 -35 5 -56 11 -37 10 -38
11 -35 52 5 66 -23 61 -64 -10z"/>
</g>
</svg>
