<?xml version="1.0" standalone="no"?>
<!DOCTYPE svg PUBLIC "-//W3C//DTD SVG 20010904//EN"
 "http://www.w3.org/TR/2001/REC-SVG-20010904/DTD/svg10.dtd">
<svg version="1.0" xmlns="http://www.w3.org/2000/svg"
 width="280" height="144" viewBox="0 0 280 144"
 preserveAspectRatio="xMidYMid meet">

<g transform="translate(0,144) scale(0.1,-0.1)" id="nome">
<path d="M1877 1138 c-20 -10 -22 -40 -5 -67 12 -20 3 -60 -12 -45 -4 5 -10
23 -12 39 -3 26 -8 30 -35 33 -43 4 -44 -20 -3 -74 37 -50 38 -69 1 -82 l-29
-10 5 -84 c3 -46 10 -89 16 -95 6 -9 37 -13 88 -13 67 0 80 -3 89 -19 5 -11
13 -101 17 -201 7 -212 5 -208 106 -189 240 44 406 159 497 343 72 144 61 217
-36 250 -57 19 -123 21 -128 4 -9 -30 -22 -164 -18 -175 2 -7 12 -13 21 -13
38 0 90 -22 96 -40 15 -47 -59 -118 -151 -146 -50 -15 -234 -20 -234 -6 0 4
34 26 76 47 79 41 111 73 138 139 43 104 -7 181 -139 215 -34 9 -43 17 -54 46
-8 24 -19 35 -32 35 -23 0 -24 -11 -3 -70 11 -31 15 -70 12 -125 l-3 -80 40
-11 c82 -22 95 -42 53 -81 -31 -29 -154 -87 -171 -80 -10 4 -17 47 -25 155
-13 170 -21 199 -54 204 -34 5 -35 42 -3 89 15 21 25 45 21 54 -5 15 -55 22
-57 8 -1 -5 -2 -25 -3 -46 -3 -43 -13 -58 -26 -37 -13 20 -12 57 0 80 19 35
-10 67 -43 48z"/>
<path d="M211 1106 c-10 -12 -9 -22 9 -54 25 -44 24 -90 -3 -106 -15 -9 -22
-6 -38 17 -12 15 -25 27 -30 27 -14 0 -11 -224 3 -238 9 -9 76 -12 239 -12
228 0 234 -1 260 -33 1 -1 5 -83 8 -182 5 -160 8 -180 23 -183 26 -5 78 82 78
129 0 20 -11 81 -25 135 -14 54 -25 104 -25 112 0 7 11 17 25 22 23 9 25 14
25 79 0 38 7 84 15 104 8 20 15 39 15 42 0 11 -28 4 -40 -10 -18 -22 -461 -22
-480 0 -8 9 -11 40 -9 87 4 68 2 73 -17 76 -11 2 -26 -4 -33 -12z"/>
<path d="M1444 988 c-6 -7 -22 -33 -36 -58 -14 -25 -35 -54 -47 -64 -30 -28
-26 -44 21 -86 37 -33 41 -39 29 -54 -24 -28 -63 -18 -116 30 -65 59 -180 146
-225 170 -19 10 -45 27 -57 37 -30 26 -46 13 -40 -32 3 -20 2 -61 -3 -91 -4
-30 -6 -60 -3 -65 2 -6 24 -23 48 -37 27 -16 45 -35 45 -45 -1 -58 -32 -238
-50 -291 -12 -34 -20 -68 -17 -75 2 -8 28 -12 77 -12 70 0 74 -1 80 -25 3 -14
14 -26 23 -28 23 -5 69 95 71 150 1 33 -5 44 -29 64 -17 13 -42 24 -56 24 -48
0 -62 20 -54 79 4 31 13 55 21 58 17 6 70 -34 196 -150 185 -171 278 -201 278
-91 0 17 7 48 15 67 8 20 15 46 15 58 0 19 -4 20 -33 15 -29 -5 -40 0 -97 49
-36 30 -68 55 -72 55 -5 0 -8 8 -8 18 0 12 18 29 50 46 83 45 110 73 110 113
0 30 -9 45 -50 86 -27 27 -50 53 -50 57 0 3 -6 14 -13 24 -11 15 -15 15 -23 4z"/>
<path d="M860 715 c-10 -12 -10 -18 0 -30 16 -19 39 -19 46 0 6 15 -11 45 -26
45 -4 0 -13 -7 -20 -15z"/>
<path d="M1650 711 c-7 -15 -6 -24 6 -36 19 -18 33 -16 48 7 7 12 6 21 -3 32
-18 22 -38 20 -51 -3z"/>
<path d="M222 632 c-27 -22 -82 -132 -89 -176 -5 -29 -1 -40 24 -64 23 -24 41
-31 92 -37 72 -8 76 -5 87 60 3 22 13 53 21 68 17 34 4 57 -33 57 -12 0 -35 5
-49 10 -24 9 -26 13 -20 49 8 46 -5 58 -33 33z"/>
</g>
</svg>
