<?xml version="1.0" standalone="no"?>
<!DOCTYPE svg PUBLIC "-//W3C//DTD SVG 20010904//EN"
 "http://www.w3.org/TR/2001/REC-SVG-20010904/DTD/svg10.dtd">
<svg version="1.0" xmlns="http://www.w3.org/2000/svg"
 width="248" height="132" viewBox="0 0 248 132"
 preserveAspectRatio="xMidYMid meet">

<g transform="translate(0,132) scale(0.1,-0.1)" id="nome">
<path d="M789 1064 c-10 -13 -10 -21 0 -47 23 -55 26 -106 5 -114 -11 -4 -23
1 -35 15 -34 43 -40 28 -37 -95 l3 -118 237 -5 c160 -3 241 -9 249 -17 7 -7
13 -77 18 -195 6 -179 6 -183 28 -186 25 -4 56 38 73 98 10 36 7 53 -35 209
-17 62 -17 65 1 77 41 28 44 35 44 98 0 35 5 77 11 95 14 39 7 48 -24 32 -16
-8 -88 -11 -252 -9 l-229 3 -8 35 c-4 20 -2 51 4 72 8 29 8 41 -2 53 -16 19
-34 19 -51 -1z"/>
<path d="M1813 988 c-5 -7 -16 -28 -23 -46 -15 -38 -43 -52 -105 -52 -58 0
-95 15 -95 39 0 24 -36 69 -46 58 -4 -4 -3 -28 4 -52 6 -25 17 -87 24 -140 12
-102 9 -98 73 -107 22 -3 22 -5 45 -253 12 -129 26 -163 55 -134 8 8 20 40 26
70 10 49 8 71 -15 178 -14 67 -24 127 -21 132 4 5 17 9 30 9 34 0 38 12 36
109 -3 134 27 156 87 65 26 -38 32 -58 32 -100 0 -63 13 -74 89 -74 39 0 51
-4 55 -17 3 -10 10 -81 16 -158 14 -194 18 -215 39 -215 32 0 41 65 41 276 0
171 -3 205 -19 239 -26 57 -42 67 -126 75 -74 7 -75 8 -121 59 -47 52 -64 60
-81 39z"/>
<path d="M280 926 c0 -7 4 -26 10 -42 5 -16 11 -57 13 -91 5 -81 16 -93 83
-93 47 0 56 -3 63 -22 5 -13 15 -97 22 -188 11 -151 19 -190 39 -190 23 0 30
64 30 285 l0 234 -38 41 c-38 39 -41 40 -104 40 -52 0 -68 4 -83 20 -21 23
-35 26 -35 6z"/>
<path d="M614 655 c-4 -9 -2 -21 4 -27 15 -15 44 -1 40 19 -4 23 -36 29 -44 8z"/>
<path d="M1451 660 c-19 -11 -9 -45 14 -45 13 0 21 8 23 21 3 23 -17 37 -37
24z"/>
<path d="M784 573 c-9 -15 -27 -44 -40 -64 -12 -20 -27 -55 -34 -77 -17 -64 5
-97 75 -117 30 -9 67 -15 82 -13 25 3 29 10 43 63 9 33 22 71 29 84 16 29 6
40 -45 48 -53 8 -65 20 -62 62 4 46 -23 54 -48 14z"/>
</g>
</svg>
