<?xml version="1.0" standalone="no"?>
<!DOCTYPE svg PUBLIC "-//W3C//DTD SVG 20010904//EN"
 "http://www.w3.org/TR/2001/REC-SVG-20010904/DTD/svg10.dtd">
<svg version="1.0" xmlns="http://www.w3.org/2000/svg"
 width="270" height="162" viewBox="0 0 270 162"
 preserveAspectRatio="xMidYMid meet">

<g transform="translate(0,162) scale(0.1,-0.1)" id="nome">
<path d="M1276 1501 c-4 -6 -5 -15 -2 -20 3 -4 0 -16 -8 -26 -12 -16 -14 -16
-33 9 -12 14 -24 26 -27 26 -3 0 -6 -54 -6 -120 0 -66 4 -120 8 -120 5 0 17 9
27 20 12 13 29 20 44 18 34 -4 38 -24 49 -252 7 -133 13 -180 23 -187 8 -5
103 -9 211 -9 l197 0 35 -34 c40 -38 48 -84 20 -124 -29 -41 -66 -52 -177 -52
-72 0 -108 -4 -115 -13 -6 -6 -11 -37 -12 -67 0 -30 -2 -68 -3 -85 l-2 -30 90
1 c77 0 97 4 141 26 60 32 133 109 164 175 18 39 21 60 18 127 -5 122 -55 206
-148 250 -38 18 -70 21 -215 26 l-170 5 -2 165 c-3 179 -9 203 -54 219 -21 7
-29 17 -29 33 0 30 -15 54 -24 39z"/>
<path d="M2175 1224 c-17 -18 -20 -40 -5 -49 13 -8 13 -75 0 -75 -13 0 -33 39
-27 55 7 16 -12 35 -35 35 -32 0 -31 -28 1 -67 40 -48 40 -78 2 -91 l-29 -10
3 -80 c1 -44 6 -85 10 -91 3 -6 19 -11 35 -11 16 0 36 -8 46 -17 25 -25 64
-119 64 -154 0 -36 -27 -49 -101 -49 -27 0 -49 -3 -50 -7 -1 -5 -3 -34 -5 -66
-2 -33 -8 -65 -15 -73 -6 -7 -9 -21 -5 -29 4 -12 25 -15 100 -15 105 0 138 9
178 47 51 49 48 77 -26 218 -37 69 -64 130 -61 135 3 6 19 10 36 10 25 0 29 4
29 27 0 54 -25 148 -42 161 -26 19 -22 65 8 101 30 36 26 64 -8 59 -19 -2 -24
-12 -31 -55 -15 -92 -44 -54 -32 41 6 43 4 54 -9 59 -8 3 -22 -1 -31 -9z"/>
<path d="M524 1037 c-11 -6 -13 -18 -8 -45 4 -20 8 -59 8 -87 l1 -50 214 -5
213 -6 24 -29 c33 -42 47 -121 73 -415 32 -355 35 -375 56 -375 20 0 20 8 23
390 4 487 3 500 -48 558 -23 26 -53 48 -77 55 -44 14 -457 21 -479 9z"/>
<path d="M1230 805 c-16 -20 -6 -45 19 -45 23 0 32 18 19 43 -11 21 -22 22
-38 2z"/>
<path d="M1994 796 c-8 -21 13 -46 32 -39 20 8 13 47 -9 51 -9 2 -20 -4 -23
-12z"/>
</g>
</svg>
