<?xml version="1.0" standalone="no"?>
<!DOCTYPE svg PUBLIC "-//W3C//DTD SVG 20010904//EN"
 "http://www.w3.org/TR/2001/REC-SVG-20010904/DTD/svg10.dtd">
<svg version="1.0" xmlns="http://www.w3.org/2000/svg"
 width="278" height="128" viewBox="0 0 278 128"
 preserveAspectRatio="xMidYMid meet">

<g transform="translate(0,128) scale(0.1,-0.1)" id="nome">
<path d="M2177 1065 c-4 -8 -2 -27 4 -42 10 -28 3 -83 -11 -83 -5 0 -10 21
-12 48 -3 45 -4 47 -33 47 -39 0 -43 -24 -11 -63 36 -42 38 -73 4 -89 -26 -13
-26 -14 -21 -96 6 -106 6 -107 46 -107 39 0 59 -18 80 -75 41 -107 31 -135
-46 -135 -29 0 -57 -4 -63 -8 -7 -4 -14 -32 -17 -62 -3 -30 -9 -70 -12 -88
l-7 -32 106 0 c93 0 111 3 141 23 19 12 42 37 51 55 14 31 14 38 0 83 -9 27
-39 87 -66 133 -28 47 -50 89 -50 95 0 6 12 11 28 11 49 0 58 13 44 65 -7 25
-12 61 -12 81 0 28 -6 38 -30 52 -16 9 -30 21 -30 25 0 14 28 63 44 76 9 8 16
24 16 37 0 20 -5 24 -29 24 -28 0 -47 -22 -36 -41 8 -12 -14 -51 -26 -44 -12
8 -12 48 2 62 6 6 9 21 7 34 -4 29 -52 40 -61 14z"/>
<path d="M466 1042 c-4 -10 0 -32 9 -48 20 -38 19 -88 -1 -105 -14 -12 -19
-10 -38 14 -12 15 -25 27 -29 27 -4 0 -7 -51 -7 -114 0 -82 4 -117 13 -125 9
-7 96 -12 248 -13 l234 -3 11 -50 c7 -27 13 -112 13 -188 1 -119 3 -139 18
-144 22 -9 71 50 80 97 6 31 -12 118 -54 262 -3 10 5 21 24 30 26 12 28 18 34
93 3 44 12 92 19 108 18 36 7 44 -26 18 -25 -20 -38 -21 -249 -21 -188 0 -225
2 -235 15 -12 15 -15 57 -8 130 3 26 -1 30 -24 33 -19 2 -28 -2 -32 -16z"/>
<path d="M1287 873 c-3 -5 -6 -48 -8 -98 l-4 -90 32 -3 c36 -4 34 2 51 -117
13 -83 6 -95 -52 -95 -58 0 -65 -8 -64 -70 1 -30 -2 -69 -6 -86 l-7 -32 63 -4
c84 -6 125 4 162 41 26 27 30 37 30 83 -1 37 -11 76 -33 126 -22 49 -31 85
-29 110 l3 37 164 0 165 0 8 -30 c5 -16 12 -97 16 -180 6 -130 9 -150 24 -153
11 -2 28 12 47 39 40 55 41 106 2 219 -31 91 -28 110 15 110 13 0 24 6 25 13
1 13 1 167 0 180 -1 9 -598 9 -604 0z"/>
<path d="M1140 625 c-16 -19 -6 -45 19 -45 23 0 35 28 20 46 -15 18 -24 18
-39 -1z"/>
<path d="M1974 615 c-8 -19 3 -35 26 -35 19 0 30 17 23 38 -6 17 -42 15 -49
-3z"/>
<path d="M467 558 c-45 -60 -70 -121 -71 -171 -1 -64 21 -83 110 -93 74 -7 78
-5 88 58 4 22 13 53 22 70 19 37 5 58 -40 58 -47 0 -61 14 -61 61 0 53 -16 59
-48 17z"/>
</g>
</svg>
