<?xml version="1.0" standalone="no"?>
<!DOCTYPE svg PUBLIC "-//W3C//DTD SVG 20010904//EN"
 "http://www.w3.org/TR/2001/REC-SVG-20010904/DTD/svg10.dtd">
<svg version="1.0" xmlns="http://www.w3.org/2000/svg"
 width="288" height="146" viewBox="0 0 288 146"
 preserveAspectRatio="xMidYMid meet">

<g transform="translate(0,146) scale(0.1,-0.1)" id="nome">
<path d="M420 1195 c-11 -13 -11 -21 2 -49 15 -30 14 -86 -1 -86 -16 0 -31 26
-31 56 0 40 -23 62 -45 44 -21 -18 -19 -31 16 -69 33 -38 35 -68 4 -85 -11 -6
-22 -12 -25 -14 -9 -6 2 -157 12 -169 6 -8 36 -13 77 -13 101 0 105 -6 109
-138 l4 -110 -69 -22 c-103 -33 -110 -40 -116 -107 -3 -32 -8 -70 -12 -85 -10
-37 8 -37 110 3 166 64 204 81 245 111 41 31 110 125 167 228 16 30 40 73 52
94 28 48 37 122 19 156 -17 31 -146 96 -167 83 -8 -5 -25 -40 -38 -78 -13 -39
-26 -77 -29 -85 -6 -18 15 -30 85 -51 24 -7 45 -18 48 -24 5 -15 -69 -127
-100 -152 -14 -10 -43 -25 -65 -33 -54 -17 -72 -4 -72 54 0 47 -28 303 -35
327 -3 9 -19 19 -36 23 -44 9 -46 30 -5 80 41 50 43 61 18 75 -27 14 -45 -3
-44 -40 1 -39 -15 -72 -29 -63 -7 4 -10 35 -7 77 2 59 0 72 -13 75 -9 1 -22
-4 -29 -13z"/>
<path d="M1213 1183 c-15 -6 -17 -69 -3 -78 6 -3 10 -26 10 -50 0 -52 -21 -65
-49 -30 -35 45 -41 32 -41 -84 0 -86 3 -113 16 -125 13 -14 50 -16 244 -16
223 0 230 -1 241 -21 6 -12 13 -97 16 -195 4 -96 9 -177 14 -179 24 -16 78 56
86 114 3 22 -6 75 -21 133 -32 121 -33 140 -3 153 19 9 23 20 28 90 3 44 12
92 19 108 18 36 6 46 -23 19 -22 -21 -31 -22 -249 -22 -173 0 -228 3 -236 13
-13 15 -15 65 -6 119 5 29 2 38 -13 46 -10 5 -24 7 -30 5z"/>
<path d="M1969 988 c-1 -7 0 -17 1 -23 2 -5 6 -41 9 -80 l6 -70 205 -5 c225
-6 238 -9 265 -67 9 -18 20 -68 25 -110 22 -177 29 -216 40 -227 18 -17 40 21
40 68 0 23 5 60 10 84 6 24 11 98 12 165 1 107 -2 128 -21 169 -47 99 -78 108
-367 108 -172 0 -224 -3 -225 -12z"/>
<path d="M1019 754 c-11 -14 -10 -18 6 -30 16 -12 21 -12 32 -1 16 15 7 47
-12 47 -7 0 -19 -7 -26 -16z"/>
<path d="M1860 755 c-16 -19 -5 -47 17 -43 11 2 18 12 18 27 0 29 -17 37 -35
16z"/>
<path d="M1192 668 c-106 -155 -95 -231 39 -257 73 -15 84 -8 92 53 4 24 14
60 24 81 15 31 15 37 3 45 -8 6 -25 10 -37 10 -12 0 -34 5 -48 12 -21 10 -25
17 -23 51 4 55 -14 57 -50 5z"/>
</g>
</svg>
