<?xml version="1.0" standalone="no"?>
<!DOCTYPE svg PUBLIC "-//W3C//DTD SVG 20010904//EN"
 "http://www.w3.org/TR/2001/REC-SVG-20010904/DTD/svg10.dtd">
<svg version="1.0" xmlns="http://www.w3.org/2000/svg"
 width="272" height="152" viewBox="0 0 272 152"
 preserveAspectRatio="xMidYMid meet">

<g transform="translate(0,152) scale(0.1,-0.1)" id="nome">
<path d="M552 1318 c-16 -16 -15 -34 2 -61 18 -29 29 -98 17 -116 -5 -8 -26
-17 -47 -20 -34 -6 -39 -10 -36 -31 2 -14 5 -50 6 -81 2 -31 6 -61 10 -67 5
-9 71 -12 229 -12 195 0 227 -3 263 -19 75 -34 97 -103 50 -158 -21 -25 -33
-29 -98 -33 l-73 -5 -7 -80 c-9 -104 -5 -115 37 -115 121 0 223 121 233 276 8
127 -31 232 -108 292 l-42 32 -183 0 c-151 0 -185 3 -195 15 -9 11 -11 39 -7
94 5 77 -2 101 -28 101 -6 0 -16 -5 -23 -12z"/>
<path d="M1294 1143 c4 -16 12 -66 18 -113 7 -47 17 -88 22 -92 6 -4 31 -8 56
-8 25 0 51 -4 58 -8 8 -6 17 -65 27 -173 17 -192 23 -221 38 -216 30 9 37 57
40 269 2 191 0 217 -17 251 -27 54 -50 67 -123 67 -56 0 -64 3 -79 25 -23 35
-48 34 -40 -2z"/>
<path d="M1715 1110 c-3 -5 -1 -28 5 -51 6 -23 8 -59 5 -80 -6 -34 -4 -39 17
-44 13 -2 122 -6 244 -7 l221 -3 36 -28 c33 -25 37 -33 37 -71 0 -38 -5 -48
-35 -75 l-36 -31 -218 0 c-163 0 -221 -3 -229 -12 -6 -8 -7 -45 -3 -98 l6 -85
201 -3 c222 -3 243 1 309 60 72 62 106 172 90 293 -8 71 -69 164 -139 212
l-48 33 -229 0 c-137 0 -230 -4 -234 -10z"/>
<path d="M1224 855 c-8 -21 2 -45 19 -45 8 0 20 7 27 15 10 12 10 18 0 30 -7
8 -19 15 -27 15 -7 0 -16 -7 -19 -15z"/>
<path d="M1632 838 c2 -15 10 -23 23 -23 13 0 21 8 23 23 3 18 -1 22 -23 22
-22 0 -26 -4 -23 -22z"/>
<path d="M524 777 c-3 -8 0 -26 6 -41 5 -15 10 -45 10 -67 0 -36 3 -40 31 -46
37 -7 43 -20 65 -133 9 -47 20 -103 24 -125 5 -22 13 -67 19 -100 20 -108 26
-128 38 -132 23 -8 46 59 47 137 1 77 -14 140 -60 252 -32 77 -31 94 6 102
l31 6 -7 67 c-4 38 -11 74 -17 81 -14 18 -186 17 -193 -1z"/>
</g>
</svg>
