<?xml version="1.0" standalone="no"?>
<!DOCTYPE svg PUBLIC "-//W3C//DTD SVG 20010904//EN"
 "http://www.w3.org/TR/2001/REC-SVG-20010904/DTD/svg10.dtd">
<svg version="1.0" xmlns="http://www.w3.org/2000/svg"
 width="280" height="160" viewBox="0 0 280 160"
 preserveAspectRatio="xMidYMid meet">

<g transform="translate(0,160) scale(0.1,-0.1)" id="nome">
<path d="M1867 1494 c-4 -4 -7 -18 -7 -31 0 -30 -15 -29 -36 3 -9 14 -20 21
-25 17 -4 -4 -5 -61 -2 -125 5 -90 9 -118 19 -118 8 0 14 7 14 15 0 18 34 37
54 29 18 -7 23 -38 36 -257 5 -93 12 -172 15 -178 4 -5 87 -9 193 -9 103 0
204 -5 224 -10 95 -27 104 -143 15 -192 -12 -7 -74 -15 -137 -18 l-115 -5 -3
-60 c-1 -33 -3 -76 -5 -95 l-2 -35 85 0 c70 0 94 4 135 25 64 31 134 104 169
176 26 52 28 65 24 138 -7 120 -41 182 -133 242 -26 16 -52 19 -195 22 -91 1
-175 5 -187 7 -23 5 -23 8 -23 168 -1 173 -6 198 -51 220 -14 8 -26 24 -29 41
-5 29 -20 43 -33 30z"/>
<path d="M1100 1195 c-9 -11 -9 -21 4 -46 19 -37 21 -105 4 -115 -6 -4 -21 4
-34 21 -12 15 -26 25 -31 22 -5 -3 -8 -56 -7 -118 2 -119 7 -130 54 -128 14 1
116 1 227 1 192 -2 203 -3 213 -22 6 -11 13 -91 16 -178 3 -86 7 -167 10 -179
6 -33 28 -28 59 13 41 53 43 107 10 239 -26 103 -26 109 -10 121 10 7 23 15
29 17 6 2 10 24 8 53 -1 27 5 76 13 108 9 32 13 61 10 64 -3 3 -15 -4 -28 -16
-22 -21 -31 -22 -241 -22 -131 0 -225 4 -237 10 -22 12 -26 73 -8 114 9 20 9
29 -1 41 -16 19 -44 19 -60 0z"/>
<path d="M513 1138 c-5 -7 -15 -27 -22 -45 -22 -55 -41 -64 -117 -61 l-69 3
-20 43 c-24 52 -50 58 -39 10 4 -18 12 -80 18 -138 l11 -105 37 -3 c20 -2 42
-9 48 -17 6 -8 16 -73 20 -144 13 -195 25 -245 58 -239 12 2 20 20 27 63 11
60 9 82 -25 248 -13 65 -4 87 34 87 22 0 22 3 22 100 -1 81 2 102 16 116 20
21 32 13 74 -48 22 -31 30 -57 34 -102 l5 -61 62 -5 c34 -3 65 -8 69 -12 10
-11 23 -93 24 -163 2 -92 23 -218 38 -223 7 -2 19 12 27 32 12 27 15 82 15
243 0 197 -1 210 -23 248 -28 50 -57 65 -130 65 -57 0 -57 0 -114 60 -59 64
-65 67 -80 48z"/>
<path d="M937 823 c-11 -10 -8 -41 4 -49 16 -9 43 21 36 40 -7 16 -28 21 -40
9z"/>
<path d="M1767 824 c-14 -15 -6 -43 14 -49 25 -8 42 6 37 31 -3 19 -38 31 -51
18z"/>
<path d="M1102 713 c-34 -49 -73 -130 -79 -165 -4 -29 0 -41 23 -66 23 -25 41
-33 86 -40 31 -5 63 -5 70 -1 7 4 18 30 24 56 7 26 18 62 25 80 7 18 10 35 7
39 -4 3 -28 10 -55 15 -60 12 -68 20 -55 57 7 21 7 33 -1 41 -16 16 -24 14
-45 -16z"/>
</g>
</svg>
