<?xml version="1.0" standalone="no"?>
<!DOCTYPE svg PUBLIC "-//W3C//DTD SVG 20010904//EN"
 "http://www.w3.org/TR/2001/REC-SVG-20010904/DTD/svg10.dtd">
<svg version="1.0" xmlns="http://www.w3.org/2000/svg"
 width="268" height="120" viewBox="0 0 268 120"
 preserveAspectRatio="xMidYMid meet">

<g transform="translate(0,120) scale(0.1,-0.1)" id="nome">
<path d="M1077 1063 c-4 -3 -4 -35 -1 -70 5 -43 3 -63 -4 -63 -16 0 -32 34
-32 65 0 32 -26 43 -48 22 -14 -15 -13 -20 16 -61 40 -55 40 -75 3 -89 l-29
-10 6 -86 c3 -47 10 -89 16 -93 6 -4 23 -8 37 -8 33 0 55 -25 80 -89 23 -63
25 -107 3 -115 -9 -3 -40 -6 -70 -6 -60 0 -57 4 -69 -95 -14 -110 -22 -100 82
-103 77 -2 99 1 132 18 90 45 91 121 6 273 -31 54 -53 102 -50 106 2 5 18 11
35 14 35 7 37 22 19 122 -9 46 -17 64 -33 71 -32 14 -31 40 4 84 37 46 36 75
0 75 -22 0 -26 -5 -30 -45 -3 -31 -10 -45 -20 -45 -19 0 -25 37 -11 76 5 16 8
36 5 44 -6 15 -35 20 -47 8z"/>
<path d="M525 948 c14 -67 24 -165 25 -235 0 -78 13 -99 39 -65 25 32 92 31
104 -1 6 -16 -14 -93 -31 -124 -15 -26 -5 -55 16 -51 40 8 121 182 122 261 0
91 -48 137 -147 137 -60 0 -69 6 -78 50 -9 41 -22 60 -42 60 -12 0 -14 -7 -8
-32z"/>
<path d="M1894 889 c-9 -18 -34 -55 -56 -83 l-40 -51 41 -35 c42 -37 50 -57
29 -78 -18 -18 -50 -14 -79 11 -102 87 -221 178 -255 196 -23 12 -49 30 -59
41 -26 29 -35 16 -35 -48 0 -31 -5 -75 -11 -97 -10 -36 -9 -41 11 -55 12 -8
36 -27 53 -41 l31 -26 -18 -114 c-9 -63 -26 -145 -37 -183 -17 -58 -18 -71 -7
-83 11 -10 21 -11 45 -2 17 6 46 9 64 7 28 -2 34 -8 41 -35 10 -40 21 -41 46
-5 38 55 57 133 41 165 -14 26 -30 36 -89 58 -44 15 -45 17 -43 55 4 56 12 84
25 84 10 0 87 -62 143 -114 39 -36 180 -153 212 -174 18 -13 46 -22 67 -22 29
0 36 4 40 23 8 41 27 132 32 155 6 20 3 22 -29 22 -27 0 -48 10 -88 43 -28 23
-61 49 -72 58 -24 20 -17 46 15 58 13 5 47 27 76 50 45 36 52 46 52 77 0 29
-9 44 -49 83 -27 26 -50 56 -52 66 -6 31 -27 28 -45 -6z"/>
<path d="M882 618 c-15 -18 1 -41 24 -36 23 4 26 41 3 46 -9 1 -21 -3 -27 -10z"/>
<path d="M1310 614 c-11 -12 -11 -18 2 -30 8 -8 22 -12 31 -8 21 8 22 40 1 48
-21 8 -20 8 -34 -10z"/>
</g>
</svg>
