<?xml version="1.0" standalone="no"?>
<!DOCTYPE svg PUBLIC "-//W3C//DTD SVG 20010904//EN"
 "http://www.w3.org/TR/2001/REC-SVG-20010904/DTD/svg10.dtd">
<svg version="1.0" xmlns="http://www.w3.org/2000/svg"
 width="260" height="142" viewBox="0 0 260 142"
 preserveAspectRatio="xMidYMid meet">

<g transform="translate(0,142) scale(0.1,-0.1)" id="nome">
<path d="M437 1194 c-4 -4 -4 -33 0 -65 5 -49 3 -59 -10 -59 -18 0 -27 21 -27
61 0 24 -4 29 -25 29 -20 0 -25 -5 -25 -24 0 -14 5 -28 10 -31 11 -7 40 -70
40 -86 0 -5 -12 -14 -26 -19 -25 -10 -26 -13 -19 -53 5 -23 10 -62 11 -86 2
-46 15 -61 50 -61 33 0 41 -18 48 -105 15 -184 24 -274 31 -284 4 -7 64 -11
166 -11 174 0 208 8 272 69 82 75 132 300 95 423 -32 107 -165 160 -274 108
-68 -34 -74 -44 -111 -197 -7 -29 22 -31 57 -3 19 15 41 20 88 20 102 0 167
-41 179 -113 8 -50 -32 -90 -105 -106 -80 -17 -307 -15 -321 3 -7 8 -15 55
-18 105 l-6 90 34 3 c31 3 34 6 32 33 -1 17 -2 56 -3 87 -2 58 -10 73 -45 80
-31 5 -29 35 5 78 37 46 36 75 0 75 -22 0 -26 -5 -30 -44 -3 -25 -10 -46 -17
-48 -18 -6 -27 42 -14 77 5 17 8 37 5 45 -6 15 -35 20 -47 9z"/>
<path d="M1196 1101 c-4 -6 1 -61 10 -123 9 -61 14 -131 11 -154 -6 -59 5 -75
36 -46 31 30 72 29 92 -2 15 -23 15 -29 -10 -91 -20 -50 -24 -70 -16 -78 17
-17 41 2 78 64 64 107 82 222 42 273 -27 35 -59 48 -133 55 l-58 6 -15 45
c-17 51 -28 66 -37 51z"/>
<path d="M1611 986 c-7 -8 -10 -20 -6 -26 4 -7 10 -44 14 -83 l6 -72 45 -5
c45 -5 45 -5 47 -45 9 -167 48 -285 108 -331 34 -26 45 -28 119 -29 57 0 92 5
117 17 49 24 106 88 137 157 23 49 26 69 26 157 0 90 -3 107 -28 158 -19 39
-41 65 -69 84 l-40 27 -232 3 c-197 3 -234 1 -244 -12z m504 -201 c84 -34 63
-150 -34 -191 -19 -8 -66 -14 -109 -14 -113 0 -158 34 -180 137 -18 84 -21 83
144 83 104 0 154 -4 179 -15z"/>
<path d="M1107 763 c-12 -11 -7 -41 7 -46 8 -3 22 0 32 8 15 11 16 15 5 29
-14 17 -33 21 -44 9z"/>
<path d="M1520 760 c-12 -7 -12 -13 -4 -27 16 -26 39 -22 39 6 0 27 -13 35
-35 21z"/>
</g>
</svg>
