<?xml version="1.0" standalone="no"?>
<!DOCTYPE svg PUBLIC "-//W3C//DTD SVG 20010904//EN"
 "http://www.w3.org/TR/2001/REC-SVG-20010904/DTD/svg10.dtd">
<svg version="1.0" xmlns="http://www.w3.org/2000/svg"
 width="282" height="132" viewBox="0 0 282 132"
 preserveAspectRatio="xMidYMid meet">

<g transform="translate(0,132) scale(0.1,-0.1)" id="nome">
<path d="M1246 1204 c-11 -11 -14 -23 -9 -38 13 -38 9 -91 -7 -91 -10 0 -17
14 -20 45 -4 40 -8 45 -30 45 -36 0 -36 -27 -1 -68 39 -43 40 -72 4 -89 -27
-13 -28 -14 -24 -93 1 -44 5 -83 8 -87 2 -5 37 -8 77 -8 107 0 110 -4 114
-142 l4 -113 -64 -18 c-94 -28 -105 -37 -113 -99 -3 -29 -11 -66 -17 -81 -7
-17 -7 -32 -2 -37 10 -10 275 86 328 119 61 38 124 124 216 295 45 83 54 108
53 148 0 31 -7 56 -17 67 -22 24 -142 75 -160 68 -7 -3 -17 -22 -20 -42 -4
-21 -17 -57 -29 -81 -26 -53 -19 -63 61 -89 34 -11 52 -22 52 -32 0 -22 -52
-102 -88 -136 -31 -29 -112 -60 -129 -49 -6 4 -13 36 -16 72 -27 313 -28 320
-58 335 -15 8 -30 19 -33 24 -6 9 12 61 25 71 3 3 11 15 17 26 9 17 8 24 -3
34 -25 21 -45 4 -45 -39 0 -35 -11 -51 -37 -51 -3 0 -3 29 0 64 7 73 -7 100
-37 70z"/>
<path d="M2203 1108 c-6 -7 -18 -30 -28 -51 -21 -45 -42 -58 -87 -53 -18 2
-48 4 -66 5 -29 1 -35 6 -52 47 -12 27 -25 44 -33 41 -13 -5 -13 -4 7 -102 9
-38 15 -90 16 -116 0 -52 13 -69 52 -69 38 0 44 -18 58 -179 13 -163 27 -221
52 -221 37 0 49 124 22 245 -31 141 -31 143 7 153 l34 8 -4 81 c-2 60 1 88 13
112 9 17 21 31 26 31 5 0 25 -21 44 -46 34 -45 43 -70 48 -144 l3 -35 63 -5
c37 -3 66 -11 71 -19 5 -7 14 -86 21 -175 16 -207 30 -247 61 -173 10 24 14
87 14 247 0 186 -2 219 -17 247 -27 48 -55 63 -121 63 -58 0 -59 1 -121 60
-35 33 -65 60 -68 60 -3 0 -10 -6 -15 -12z"/>
<path d="M297 1003 c-16 -4 -18 -13 -11 -86 3 -45 11 -88 16 -94 6 -7 25 -13
43 -13 18 0 37 -6 44 -13 6 -9 12 -84 13 -203 l3 -189 276 -3 c239 -2 278 0
289 13 10 13 11 41 1 148 -31 350 -41 395 -95 425 -27 15 -69 17 -296 19 -146
1 -273 -1 -283 -4z m568 -217 c17 -17 25 -39 30 -90 11 -99 18 -96 -215 -96
-146 0 -200 3 -208 13 -11 14 -26 172 -17 187 4 6 79 10 196 10 186 0 190 0
214 -24z"/>
<path d="M1062 758 c-17 -17 -15 -35 5 -42 21 -8 36 6 31 30 -4 22 -20 28 -36
12z"/>
<path d="M1842 738 c4 -30 43 -33 43 -3 0 13 -8 21 -23 23 -20 3 -23 0 -20
-20z"/>
</g>
</svg>
