<?xml version="1.0" standalone="no"?>
<!DOCTYPE svg PUBLIC "-//W3C//DTD SVG 20010904//EN"
 "http://www.w3.org/TR/2001/REC-SVG-20010904/DTD/svg10.dtd">
<svg version="1.0" xmlns="http://www.w3.org/2000/svg"
 width="272" height="142" viewBox="0 0 272 142"
 preserveAspectRatio="xMidYMid meet">

<g transform="translate(0,142) scale(0.1,-0.1)" id="nome">
<path d="M1247 1163 c-12 -12 -7 -50 8 -63 12 -10 17 -8 26 13 6 14 9 33 6 41
-7 16 -28 21 -40 9z"/>
<path d="M373 1134 c-3 -9 2 -31 11 -50 9 -19 16 -50 16 -69 0 -30 -3 -35 -23
-35 -13 0 -32 9 -42 20 -10 11 -20 18 -24 16 -8 -5 -5 -221 3 -235 5 -7 84
-11 240 -11 188 0 236 -3 245 -14 15 -18 21 -81 24 -241 2 -123 3 -130 23
-133 15 -2 28 8 47 37 35 52 35 110 2 235 -14 52 -25 97 -25 100 0 4 11 11 23
15 21 8 25 17 30 84 3 41 13 89 21 106 15 29 15 32 0 38 -9 3 -20 0 -25 -8 -7
-11 -55 -15 -237 -17 -201 -3 -232 -1 -246 13 -19 19 -21 73 -5 109 9 20 9 29
-1 41 -16 20 -49 19 -57 -1z"/>
<path d="M1154 1116 c-3 -9 2 -28 12 -42 49 -69 53 -78 42 -91 -6 -7 -18 -13
-27 -13 -30 0 -40 -19 -29 -58 6 -20 8 -53 5 -74 -6 -47 8 -66 53 -70 31 -3
38 -9 62 -58 31 -63 37 -134 12 -144 -9 -3 -40 -6 -69 -6 -58 0 -65 -7 -58
-55 2 -16 -2 -48 -10 -70 -8 -22 -12 -46 -10 -52 7 -20 186 -17 230 4 39 18
73 65 73 102 0 25 -45 124 -92 205 -31 52 -31 76 0 76 36 0 41 20 29 104 -9
63 -16 81 -34 93 -30 20 -29 48 3 90 29 38 28 68 -1 68 -16 0 -21 -8 -23 -36
-2 -22 -12 -45 -26 -59 -24 -22 -28 -21 -75 8 -3 1 -7 21 -10 45 -5 34 -10 43
-29 45 -13 2 -25 -3 -28 -12z"/>
<path d="M1630 964 c-6 -14 -10 -40 -10 -57 0 -18 -4 -46 -9 -64 -7 -25 -6
-35 8 -47 10 -9 25 -16 34 -16 21 0 67 -21 67 -31 0 -4 -13 -88 -30 -186 -35
-204 -35 -213 -15 -213 30 0 43 34 101 255 20 77 41 146 46 153 7 8 48 12 137
12 104 0 132 -3 161 -18 43 -24 74 -82 74 -141 l1 -46 -177 -5 c-97 -3 -179
-8 -183 -11 -3 -4 -8 -44 -11 -89 -4 -62 -2 -85 8 -91 7 -5 108 -9 224 -9 168
0 214 3 223 14 9 10 9 42 1 127 -7 63 -15 150 -19 194 -10 99 -41 174 -93 220
-54 49 -74 55 -190 55 l-101 0 7 -40 c4 -28 1 -50 -9 -70 -23 -44 -42 -38 -49
15 -9 56 -46 89 -116 104 -69 15 -69 15 -80 -15z"/>
<path d="M1024 745 c-4 -9 -2 -21 4 -27 16 -16 47 -5 47 17 0 26 -42 34 -51
10z"/>
<path d="M1497 754 c-10 -10 -9 -42 2 -48 18 -11 42 6 39 28 -3 21 -28 33 -41
20z"/>
</g>
</svg>
