<?xml version="1.0" standalone="no"?>
<!DOCTYPE svg PUBLIC "-//W3C//DTD SVG 20010904//EN"
 "http://www.w3.org/TR/2001/REC-SVG-20010904/DTD/svg10.dtd">
<svg version="1.0" xmlns="http://www.w3.org/2000/svg"
 width="288" height="150" viewBox="0 0 288 150"
 preserveAspectRatio="xMidYMid meet">

<g transform="translate(0,150) scale(0.1,-0.1)" id="nome">
<path d="M2000 1341 c0 -30 -21 -36 -39 -12 -9 12 -19 19 -23 16 -8 -8 3 -228
12 -239 5 -4 16 4 25 18 21 31 50 34 65 5 6 -11 16 -106 21 -212 6 -106 15
-198 21 -204 8 -10 60 -13 197 -14 209 -1 244 -8 279 -59 29 -43 28 -61 -5
-100 -37 -45 -63 -53 -188 -59 l-110 -6 -1 -45 c-1 -25 -4 -66 -9 -92 l-7 -48
88 0 c105 0 149 17 218 80 81 74 116 148 116 242 0 112 -58 214 -144 254 -46
22 -64 24 -201 24 -82 0 -160 3 -172 6 -23 6 -23 9 -23 171 0 94 -4 173 -10
184 -6 10 -24 26 -41 34 -19 10 -32 26 -36 45 -6 33 -33 41 -33 11z"/>
<path d="M489 1074 c-10 -13 -10 -23 4 -62 10 -26 17 -57 17 -69 0 -33 -21
-39 -42 -14 -21 27 -54 22 -43 -7 16 -41 35 -126 35 -160 0 -21 5 -43 12 -50
9 -9 74 -12 229 -12 189 0 218 -2 223 -16 3 -9 6 -54 6 -100 0 -73 -2 -84 -17
-85 -10 0 -106 0 -213 1 -108 1 -207 -3 -222 -9 -24 -9 -25 -14 -31 -98 -3
-61 -2 -90 6 -95 16 -10 539 -10 553 0 6 4 17 36 24 72 7 36 21 86 31 112 21
53 12 68 -27 47 -13 -7 -26 -10 -29 -7 -4 3 -9 69 -12 146 -5 115 -3 149 11
190 9 28 16 53 16 56 0 10 -35 7 -46 -4 -7 -7 -87 -9 -220 -8 l-209 3 -3 54
c-2 30 2 59 7 64 17 17 13 45 -8 57 -27 14 -36 13 -52 -6z"/>
<path d="M1241 891 c-12 -8 -12 -16 -1 -55 7 -25 10 -61 8 -79 -9 -58 -15 -57
216 -57 228 0 262 -5 309 -48 37 -35 37 -81 -2 -124 l-29 -33 -234 -5 -233 -5
4 -90 c2 -49 5 -93 8 -97 2 -5 94 -8 204 -8 224 0 247 5 312 68 67 64 81 102
81 222 0 96 -2 110 -26 150 -36 62 -95 119 -148 144 -40 19 -66 21 -250 24
-115 1 -211 -2 -219 -7z"/>
<path d="M1134 635 c-4 -9 -2 -21 4 -27 16 -16 47 -5 47 17 0 26 -42 34 -51
10z"/>
<path d="M1970 635 c-6 -8 -9 -19 -5 -25 8 -13 42 -13 50 0 7 11 -12 40 -25
40 -4 0 -13 -7 -20 -15z"/>
</g>
</svg>
