<?xml version="1.0" standalone="no"?>
<!DOCTYPE svg PUBLIC "-//W3C//DTD SVG 20010904//EN"
 "http://www.w3.org/TR/2001/REC-SVG-20010904/DTD/svg10.dtd">
<svg version="1.0" xmlns="http://www.w3.org/2000/svg"
 width="280" height="162" viewBox="0 0 280 162"
 preserveAspectRatio="xMidYMid meet">

<g transform="translate(0,162) scale(0.1,-0.1)" id="nome">
<path d="M360 1466 c0 -31 -29 -36 -37 -6 -3 11 -12 20 -21 20 -13 0 -14 -12
-8 -77 3 -42 6 -98 6 -125 0 -54 19 -65 38 -23 13 29 47 33 61 8 5 -10 14
-106 20 -213 8 -127 16 -199 24 -207 8 -7 77 -12 212 -15 189 -3 202 -5 232
-26 37 -26 52 -79 35 -117 -22 -47 -57 -60 -186 -65 l-121 -5 -1 -50 c-1 -27
-5 -71 -9 -97 -8 -48 -8 -48 21 -50 16 0 56 0 89 2 115 4 225 82 282 197 65
133 7 320 -118 384 -33 16 -60 19 -199 19 -92 0 -170 4 -181 10 -18 10 -19 23
-19 168 0 171 -7 198 -53 220 -15 7 -28 18 -28 25 -1 7 -2 19 -3 27 0 8 -9 16
-18 18 -14 3 -18 -3 -18 -22z"/>
<path d="M1630 1031 c-12 -27 -35 -61 -51 -77 -16 -15 -29 -33 -29 -40 0 -7
18 -28 40 -45 22 -18 40 -40 40 -50 0 -19 -28 -39 -52 -39 -8 0 -57 37 -109
81 -52 45 -121 99 -154 120 -33 21 -72 47 -87 58 -41 32 -48 27 -48 -38 0 -32
-3 -79 -6 -104 l-7 -46 47 -28 c25 -15 48 -34 51 -42 8 -20 -22 -204 -47 -287
-11 -39 -18 -77 -16 -85 4 -10 24 -14 79 -14 74 0 74 0 77 -28 8 -69 78 18 89
111 5 42 2 52 -17 70 -13 12 -45 29 -73 38 l-49 16 7 57 c4 31 9 59 12 64 7
12 33 -7 186 -141 184 -160 254 -198 278 -152 4 8 15 44 24 80 9 36 19 76 22
89 6 23 4 24 -30 18 -34 -5 -43 -1 -104 50 -38 30 -68 62 -68 71 0 9 28 36 63
60 110 77 115 108 32 188 -32 30 -50 56 -50 71 0 40 -28 25 -50 -26z"/>
<path d="M1997 1013 c-3 -5 -2 -46 2 -93 l6 -85 44 -7 c24 -4 46 -10 49 -13 3
-2 9 -47 13 -99 17 -204 63 -283 177 -304 159 -31 278 66 321 261 10 46 10 73
1 129 -15 89 -31 126 -67 160 -55 53 -83 58 -322 58 -121 0 -222 -3 -224 -7z
m520 -219 c42 -31 50 -64 27 -110 -26 -54 -87 -83 -175 -84 -84 0 -132 20
-163 68 -25 38 -43 122 -31 142 5 8 53 10 160 8 138 -3 157 -5 182 -24z"/>
<path d="M1106 764 c-21 -20 -20 -31 3 -44 15 -7 23 -6 35 6 21 20 20 31 -3
44 -15 7 -23 6 -35 -6z"/>
<path d="M1880 754 c-11 -12 -10 -18 3 -32 16 -15 18 -15 34 0 13 14 14 20 3
32 -7 9 -16 16 -20 16 -4 0 -13 -7 -20 -16z"/>
</g>
</svg>
