<?xml version="1.0" standalone="no"?>
<!DOCTYPE svg PUBLIC "-//W3C//DTD SVG 20010904//EN"
 "http://www.w3.org/TR/2001/REC-SVG-20010904/DTD/svg10.dtd">
<svg version="1.0" xmlns="http://www.w3.org/2000/svg"
 width="252" height="132" viewBox="0 0 252 132"
 preserveAspectRatio="xMidYMid meet">

<g transform="translate(0,132) scale(0.1,-0.1)" id="nome">
<path d="M1166 1031 c-4 -5 1 -56 9 -113 9 -57 15 -128 14 -158 -1 -30 -1 -61
0 -67 2 -20 25 -15 39 7 15 24 73 27 92 5 14 -17 6 -66 -21 -132 -10 -25 -10
-36 -2 -44 22 -22 44 1 89 94 53 111 67 191 40 232 -27 41 -75 65 -131 65 -27
0 -55 4 -61 8 -7 4 -18 29 -26 56 -15 49 -30 67 -42 47z"/>
<path d="M1620 934 c-1 -22 -20 -143 -25 -156 -9 -23 18 -44 63 -52 22 -3 42
-12 45 -20 3 -8 -7 -93 -23 -188 -35 -206 -36 -221 -12 -216 25 5 47 57 82
193 40 159 52 198 63 213 7 8 47 12 141 12 112 0 136 -3 163 -20 42 -25 65
-72 67 -134 l1 -51 -180 -5 -180 -5 -7 -89 c-6 -68 -5 -92 5 -98 19 -12 415
-10 439 3 23 12 22 39 -8 302 -18 165 -53 236 -135 277 -33 18 -55 20 -142 18
l-102 -3 3 -46 c2 -33 -2 -52 -16 -69 -22 -27 -42 -20 -42 15 0 43 -22 74 -67
96 -48 23 -133 38 -133 23z"/>
<path d="M357 913 c-2 -5 -1 -46 2 -93 l6 -85 235 -6 c253 -6 268 -9 304 -64
25 -39 20 -73 -18 -111 l-34 -34 -218 0 c-121 0 -224 -4 -231 -8 -10 -6 -11
-60 -3 -184 0 -5 93 -8 207 -8 189 0 210 2 250 21 57 27 118 98 139 161 21 64
16 197 -10 247 -29 55 -98 123 -151 147 -47 23 -61 24 -262 24 -116 0 -214 -3
-216 -7z"/>
<path d="M1084 645 c-4 -9 0 -23 9 -32 21 -21 49 -9 45 19 -4 28 -45 38 -54
13z"/>
<path d="M1507 654 c-14 -15 -6 -43 14 -49 25 -8 42 6 37 31 -3 19 -38 31 -51
18z"/>
</g>
</svg>
