<?xml version="1.0" standalone="no"?>
<!DOCTYPE svg PUBLIC "-//W3C//DTD SVG 20010904//EN"
 "http://www.w3.org/TR/2001/REC-SVG-20010904/DTD/svg10.dtd">
<svg version="1.0" xmlns="http://www.w3.org/2000/svg"
 width="264" height="150" viewBox="0 0 264 150"
 preserveAspectRatio="xMidYMid meet">

<g transform="translate(0,150) scale(0.1,-0.1)" id="nome">
<path d="M470 1161 c-13 -9 -13 -15 -1 -43 8 -18 16 -52 18 -75 5 -40 3 -43
-19 -43 -13 0 -29 9 -36 20 -7 11 -17 20 -22 20 -12 0 -14 -226 -2 -234 4 -2
109 -6 232 -7 124 -1 232 -6 241 -10 24 -12 32 -57 38 -233 4 -107 10 -161 18
-163 17 -6 62 47 75 89 11 39 3 101 -28 212 -20 71 -18 91 11 104 23 11 25 17
25 77 0 36 7 82 16 105 20 50 14 58 -24 31 -28 -20 -42 -21 -251 -21 -256 0
-245 -5 -239 108 3 61 1 67 -17 70 -11 1 -27 -2 -35 -7z"/>
<path d="M1227 1092 c-3 -4 -2 -27 4 -49 5 -23 11 -95 14 -159 3 -65 9 -122
13 -126 5 -5 17 1 27 12 26 29 80 27 101 -5 15 -23 14 -28 -10 -81 -30 -65
-32 -82 -11 -90 22 -9 40 10 75 78 34 64 60 151 60 196 0 33 -32 87 -61 102
-11 7 -51 15 -88 18 l-66 7 -16 50 c-16 48 -32 65 -42 47z"/>
<path d="M1692 998 c-5 -7 -12 -38 -15 -68 -3 -30 -9 -69 -12 -87 -7 -29 -5
-33 21 -38 80 -18 79 -17 77 -81 -1 -32 -7 -81 -12 -109 -32 -155 -42 -238
-32 -248 27 -27 56 41 107 250 20 82 41 154 46 161 16 19 254 16 293 -4 39
-20 67 -56 82 -107 16 -54 16 -62 -3 -81 -13 -13 -44 -16 -177 -16 -89 0 -167
-4 -173 -8 -7 -4 -13 -44 -15 -92 l-4 -85 221 -3 c189 -2 223 0 234 13 10 12
9 48 -4 188 -25 254 -43 306 -129 372 -29 21 -46 25 -126 29 -126 5 -131 4
-131 -51 0 -54 -14 -83 -40 -83 -15 0 -20 7 -20 28 0 54 -33 89 -106 111 -78
25 -69 24 -82 9z"/>
<path d="M1117 724 c-13 -13 -7 -42 10 -48 21 -8 36 6 31 30 -3 19 -29 30 -41
18z"/>
<path d="M1581 720 c-19 -11 -9 -45 14 -45 13 0 21 8 23 21 3 23 -17 37 -37
24z"/>
<path d="M462 663 c-66 -94 -85 -200 -41 -233 26 -21 64 -30 119 -30 38 0 38
1 50 53 7 28 19 65 28 81 13 27 13 31 -4 43 -10 7 -29 13 -42 13 -47 0 -63 17
-56 60 6 36 4 40 -14 40 -11 0 -29 -12 -40 -27z"/>
</g>
</svg>
