<?xml version="1.0" standalone="no"?>
<!DOCTYPE svg PUBLIC "-//W3C//DTD SVG 20010904//EN"
 "http://www.w3.org/TR/2001/REC-SVG-20010904/DTD/svg10.dtd">
<svg version="1.0" xmlns="http://www.w3.org/2000/svg"
 width="298" height="166" viewBox="0 0 298 166"
 preserveAspectRatio="xMidYMid meet">

<g transform="translate(0,166) scale(0.1,-0.1)" id="nome">
<path d="M373 1486 c3 -8 0 -22 -8 -32 -12 -18 -14 -17 -26 9 -7 15 -19 27
-27 27 -13 0 -14 -13 -9 -82 4 -46 7 -100 7 -120 0 -41 24 -54 33 -18 6 23 45
28 65 8 7 -7 12 -48 13 -108 1 -52 6 -147 13 -210 l11 -115 210 -5 c137 -3
217 -9 231 -17 51 -29 69 -100 36 -138 -37 -45 -52 -50 -176 -55 l-121 -5 -7
-70 c-4 -38 -9 -81 -10 -95 -3 -25 -2 -25 86 -28 79 -2 95 0 141 23 60 29 132
101 167 166 20 38 23 58 22 139 0 108 -10 135 -76 206 -57 62 -104 74 -294 74
-94 0 -155 4 -159 10 -4 6 -9 87 -12 181 l-6 171 -39 24 c-27 18 -38 31 -38
49 0 16 -6 25 -16 25 -10 0 -14 -6 -11 -14z"/>
<path d="M1223 1224 c-3 -8 -1 -26 6 -40 14 -32 14 -61 0 -70 -16 -9 -29 15
-29 54 0 30 -2 33 -27 30 -35 -4 -42 -32 -16 -61 47 -53 47 -84 0 -100 -16 -6
-18 -15 -12 -79 11 -127 3 -118 100 -118 80 0 85 -1 89 -22 12 -60 26 -213 26
-290 0 -103 8 -113 77 -104 205 29 380 131 479 280 39 59 84 174 84 214 0 41
-34 88 -72 101 -19 6 -59 12 -89 14 l-54 2 -5 -70 c-3 -38 -8 -75 -13 -82 -14
-23 5 -42 49 -49 82 -12 95 -51 39 -113 -51 -56 -127 -81 -249 -81 -53 0 -96
4 -96 8 0 5 23 19 52 32 105 47 167 130 168 222 0 60 -39 108 -102 127 -77 23
-89 31 -104 66 -8 20 -21 35 -30 35 -14 0 -15 -7 -9 -42 4 -24 9 -85 10 -137
3 -96 9 -111 48 -111 27 0 77 -29 77 -44 0 -20 -39 -51 -107 -85 -75 -37 -99
-39 -107 -8 -3 12 -9 85 -12 162 -4 77 -11 148 -16 158 -5 9 -19 17 -32 17
-43 0 -42 48 3 99 29 34 23 56 -14 56 -27 0 -30 -3 -33 -37 -4 -43 -28 -70
-38 -43 -4 10 -2 32 4 49 20 54 16 76 -13 76 -14 0 -28 -7 -32 -16z"/>
<path d="M2253 1233 c-15 -6 -17 -49 -3 -58 11 -7 14 -78 3 -88 -13 -14 -33
17 -33 53 0 40 -20 66 -45 56 -21 -8 -19 -52 4 -68 10 -7 21 -27 25 -44 6 -27
3 -35 -19 -50 -25 -19 -25 -20 -18 -104 l8 -85 80 -3 c43 -2 84 -7 91 -12 6
-6 14 -47 18 -93 3 -45 8 -91 11 -102 8 -32 -6 -44 -91 -73 l-79 -27 -17 -80
c-21 -100 -21 -105 -4 -105 14 0 220 77 285 107 86 39 172 155 287 384 47 93
21 147 -92 195 -62 26 -67 27 -79 11 -7 -10 -15 -36 -19 -58 -4 -23 -14 -55
-22 -71 -20 -39 -13 -54 33 -68 57 -17 83 -32 83 -47 0 -18 -65 -110 -99 -139
-35 -31 -110 -52 -121 -34 -4 7 -13 65 -19 129 -28 281 -22 254 -58 270 -42
18 -45 58 -8 95 29 29 33 64 9 73 -22 8 -44 -22 -44 -60 0 -25 -19 -57 -34
-57 -11 0 -6 78 5 104 9 20 9 29 -1 41 -13 16 -17 17 -37 8z"/>
<path d="M1080 796 c0 -29 22 -39 46 -22 24 18 11 46 -21 46 -20 0 -25 -5 -25
-24z"/>
<path d="M2056 804 c-4 -10 -2 -22 3 -27 15 -15 46 -3 46 18 0 26 -40 33 -49
9z"/>
</g>
</svg>
