<?xml version="1.0" standalone="no"?>
<!DOCTYPE svg PUBLIC "-//W3C//DTD SVG 20010904//EN"
 "http://www.w3.org/TR/2001/REC-SVG-20010904/DTD/svg10.dtd">
<svg version="1.0" xmlns="http://www.w3.org/2000/svg"
 width="272" height="148" viewBox="0 0 272 148"
 preserveAspectRatio="xMidYMid meet">

<g transform="translate(0,148) scale(0.1,-0.1)" id="nome">
<path d="M620 1336 c0 -34 -28 -42 -40 -11 -9 24 -24 32 -33 18 -6 -10 12
-225 19 -232 2 -3 11 5 20 17 15 22 58 30 69 13 3 -5 12 -102 20 -216 8 -113
17 -210 20 -215 4 -6 88 -10 201 -10 172 0 199 -2 232 -19 58 -30 76 -80 46
-130 -28 -48 -72 -63 -196 -70 l-113 -6 -2 -60 c0 -33 -3 -73 -5 -90 l-3 -30
96 1 c84 0 101 3 140 26 110 64 182 176 183 282 1 97 -28 168 -89 224 -68 62
-109 72 -294 72 -127 0 -150 2 -155 16 -3 9 -6 75 -6 149 0 174 -4 191 -51
222 -27 18 -39 33 -39 49 0 13 -4 24 -10 24 -5 0 -10 -11 -10 -24z"/>
<path d="M1425 931 c-3 -6 -1 -29 5 -53 6 -24 14 -72 18 -108 l7 -65 62 -5
c34 -3 66 -9 71 -15 5 -5 17 -90 26 -189 9 -98 19 -182 22 -187 10 -17 22 -9
35 24 10 24 14 87 14 247 0 186 -2 219 -17 247 -27 48 -55 63 -119 63 -47 0
-63 5 -87 25 -17 14 -33 21 -37 16z"/>
<path d="M1844 903 c3 -21 8 -65 11 -98 11 -110 8 -105 75 -105 80 0 86 -10
95 -170 13 -228 27 -273 60 -194 12 29 15 80 15 246 0 195 -1 213 -21 248 -27
47 -74 70 -144 70 -44 0 -56 4 -65 20 -18 34 -33 24 -26 -17z"/>
<path d="M1350 665 c-9 -11 -10 -19 -3 -26 17 -17 48 -6 48 16 0 25 -28 31
-45 10z"/>
<path d="M1770 664 c-11 -12 -10 -18 3 -32 16 -15 18 -15 34 0 13 14 14 20 3
32 -7 9 -16 16 -20 16 -4 0 -13 -7 -20 -16z"/>
</g>
</svg>
