<?xml version="1.0" standalone="no"?>
<!DOCTYPE svg PUBLIC "-//W3C//DTD SVG 20010904//EN"
 "http://www.w3.org/TR/2001/REC-SVG-20010904/DTD/svg10.dtd">
<svg version="1.0" xmlns="http://www.w3.org/2000/svg"
 width="284" height="160" viewBox="0 0 284 160"
 preserveAspectRatio="xMidYMid meet">

<g transform="translate(0,160) scale(0.1,-0.1)" id="nome">
<path d="M1160 1456 c0 -36 -20 -43 -41 -15 -31 41 -38 14 -27 -106 5 -60 11
-112 14 -114 3 -3 13 5 23 18 12 15 25 22 42 19 30 -4 34 -28 49 -256 6 -91
16 -172 22 -179 8 -10 58 -13 200 -13 216 0 245 -7 273 -67 21 -45 14 -73 -30
-112 -27 -23 -46 -31 -78 -32 -23 -1 -74 -2 -112 -3 -39 -1 -76 -6 -83 -10 -7
-4 -9 -22 -5 -51 3 -24 1 -57 -5 -74 -19 -54 -9 -61 80 -61 64 0 89 5 132 25
65 30 149 117 178 182 24 54 28 142 9 210 -18 64 -71 134 -122 160 -40 21 -57
22 -211 23 -138 0 -169 3 -182 16 -13 13 -16 43 -16 169 0 85 -4 165 -9 179
-6 13 -22 30 -38 38 -17 8 -31 25 -37 46 -11 38 -26 42 -26 8z"/>
<path d="M2070 1200 c-12 -7 -12 -14 -2 -43 7 -18 12 -43 12 -55 0 -12 5 -22
10 -22 6 0 10 11 10 25 0 13 5 35 11 49 9 20 9 29 -1 41 -14 17 -20 18 -40 5z"/>
<path d="M1982 1157 c-10 -11 -8 -19 7 -38 10 -13 26 -39 36 -58 17 -33 17
-35 -1 -48 -10 -7 -24 -13 -32 -13 -11 0 -12 -16 -7 -87 4 -49 13 -91 19 -95
6 -4 43 -8 82 -8 45 0 75 -5 82 -13 12 -14 34 -199 27 -219 -3 -8 -44 -26 -90
-42 -83 -27 -84 -27 -90 -64 -3 -20 -10 -56 -15 -80 -17 -73 -8 -87 38 -63 9
5 46 19 82 32 36 12 70 25 75 29 6 3 29 12 52 19 53 17 129 75 166 126 114
160 180 288 181 353 1 39 -3 48 -35 76 -41 35 -136 73 -148 60 -5 -5 -14 -31
-21 -59 -8 -27 -22 -63 -32 -80 -16 -27 -16 -31 -1 -47 9 -10 25 -18 35 -18
29 0 88 -28 88 -41 0 -7 -19 -41 -42 -76 -33 -48 -55 -69 -92 -88 -59 -29 -83
-31 -90 -7 -4 14 -30 247 -38 347 -2 24 -11 34 -40 48 -21 9 -38 21 -38 26 0
4 13 28 30 52 33 49 38 77 15 85 -22 9 -47 -16 -41 -40 3 -11 -4 -35 -16 -54
-19 -31 -22 -32 -38 -17 -10 9 -24 15 -31 13 -10 -2 -15 12 -19 47 -4 41 -9
51 -26 53 -11 2 -26 -3 -32 -11z"/>
<path d="M334 997 c-11 -7 -14 -16 -9 -35 4 -15 10 -54 14 -87 5 -55 8 -60 31
-63 76 -8 70 9 70 -200 0 -133 4 -192 12 -200 18 -18 551 -17 567 2 13 16 -30
476 -49 517 -6 13 -25 34 -43 46 -30 20 -46 21 -304 25 -150 2 -280 0 -289 -5z
m550 -197 c37 -14 56 -59 56 -135 l0 -65 -209 0 c-152 0 -212 3 -217 12 -10
16 -18 163 -11 183 5 13 33 15 181 15 96 0 186 -4 200 -10z"/>
<path d="M1120 765 c-16 -19 -5 -47 17 -43 11 2 18 12 18 27 0 29 -17 37 -35
16z"/>
<path d="M1897 767 c-22 -16 -13 -47 14 -47 25 0 36 28 17 46 -11 12 -17 12
-31 1z"/>
</g>
</svg>
