<?xml version="1.0" standalone="no"?>
<!DOCTYPE svg PUBLIC "-//W3C//DTD SVG 20010904//EN"
 "http://www.w3.org/TR/2001/REC-SVG-20010904/DTD/svg10.dtd">
<svg version="1.0" xmlns="http://www.w3.org/2000/svg"
 width="248" height="144" viewBox="0 0 248 144"
 preserveAspectRatio="xMidYMid meet">

<g transform="translate(0,144) scale(0.1,-0.1)" id="nome">
<path d="M933 1124 c-3 -9 -1 -31 6 -49 11 -33 7 -65 -10 -65 -5 0 -9 18 -9
40 0 34 -4 41 -24 46 -51 12 -60 -19 -21 -70 14 -18 25 -45 25 -59 0 -22 -5
-27 -25 -27 -14 0 -25 -6 -26 -12 -4 -48 5 -165 13 -175 6 -7 25 -13 43 -13
18 0 38 -6 44 -14 19 -23 51 -118 51 -152 0 -37 -12 -44 -79 -44 -56 0 -71
-12 -65 -54 3 -17 -1 -52 -9 -78 -8 -26 -12 -49 -9 -52 10 -11 195 -6 227 5
17 7 41 26 53 43 39 57 28 104 -54 247 -24 42 -44 81 -44 87 0 7 13 12 29 12
40 0 53 19 41 61 -6 18 -10 49 -10 67 0 41 -16 72 -36 72 -34 0 -20 66 20 99
18 15 21 47 5 56 -5 4 -21 4 -35 1 -18 -5 -24 -13 -24 -35 0 -35 -9 -61 -21
-61 -12 0 -11 71 0 89 13 21 -5 51 -30 51 -11 0 -22 -7 -26 -16z"/>
<path d="M1373 1104 c-3 -9 2 -38 12 -65 29 -82 0 -131 -43 -72 -10 14 -23 23
-29 20 -7 -4 -10 -192 -4 -239 1 -5 106 -8 234 -8 174 0 238 -3 251 -13 14
-10 19 -38 27 -152 6 -77 8 -154 4 -171 -6 -37 2 -64 20 -64 8 0 27 17 44 37
28 34 31 45 31 103 0 36 -9 97 -20 135 -24 87 -25 114 -2 122 27 10 32 24 32
85 0 32 7 76 16 98 20 51 8 70 -26 40 -22 -19 -37 -20 -252 -20 l-228 0 -12
25 c-9 20 -9 37 1 76 10 39 10 53 1 64 -16 20 -49 19 -57 -1z"/>
<path d="M404 973 c3 -43 9 -116 12 -163 7 -113 11 -121 34 -92 20 25 77 31
98 10 18 -18 14 -62 -9 -112 -22 -44 -20 -81 4 -74 22 8 86 110 102 163 20 70
19 149 -1 181 -24 36 -51 48 -124 54 l-65 5 -19 53 c-27 76 -40 66 -32 -25z"/>
<path d="M744 715 c-8 -20 4 -35 27 -35 24 0 37 29 18 41 -21 13 -39 11 -45
-6z"/>
<path d="M1184 716 c-9 -24 4 -48 23 -44 12 2 18 12 18 28 0 29 -32 41 -41 16z"/>
</g>
</svg>
