<?xml version="1.0" standalone="no"?>
<!DOCTYPE svg PUBLIC "-//W3C//DTD SVG 20010904//EN"
 "http://www.w3.org/TR/2001/REC-SVG-20010904/DTD/svg10.dtd">
<svg version="1.0" xmlns="http://www.w3.org/2000/svg"
 width="280" height="124" viewBox="0 0 280 124"
 preserveAspectRatio="xMidYMid meet">

<g transform="translate(0,124) scale(0.1,-0.1)" id="nome">
<path d="M374 1092 c-18 -12 -23 -39 -10 -58 16 -24 27 -79 20 -99 -8 -21 -38
-19 -59 5 -10 11 -22 17 -26 14 -14 -8 -11 -218 3 -232 9 -9 77 -12 244 -12
178 0 234 -3 242 -13 6 -7 17 -95 23 -195 11 -156 15 -182 28 -182 9 0 29 19
44 42 35 55 36 114 1 232 -26 91 -26 116 0 116 24 0 36 34 36 98 0 33 7 76 15
95 8 20 15 39 15 42 0 10 -28 5 -39 -9 -15 -18 -432 -33 -475 -16 l-29 11 7
74 c6 66 5 75 -12 84 -10 5 -23 7 -28 3z"/>
<path d="M1180 1085 c-11 -13 -10 -22 3 -51 21 -43 23 -104 4 -104 -8 0 -22 9
-32 20 -29 32 -38 24 -31 -22 25 -165 33 -200 46 -208 8 -5 108 -10 221 -10
165 0 209 -3 218 -14 8 -9 11 -45 9 -98 l-3 -83 -235 -5 c-129 -3 -236 -7
-238 -8 -1 -1 -1 -44 0 -94 l3 -93 269 -3 c179 -1 273 1 281 8 7 6 16 34 20
62 4 28 18 75 31 105 14 30 22 59 19 64 -9 14 -31 11 -45 -6 -25 -30 -34 4
-38 142 -3 90 0 155 8 190 15 60 10 72 -23 54 -15 -8 -82 -11 -227 -9 l-204 3
-8 35 c-5 25 -3 46 9 72 13 31 13 40 3 53 -16 19 -44 19 -60 0z"/>
<path d="M1950 904 c-6 -14 -10 -40 -10 -58 0 -18 -5 -47 -11 -65 -10 -28 -9
-34 7 -46 11 -8 36 -17 57 -20 21 -4 41 -13 44 -20 2 -8 -10 -97 -28 -200 -25
-147 -30 -188 -20 -198 25 -24 40 12 106 257 19 70 39 134 46 142 9 11 42 14
143 14 112 0 136 -3 163 -20 51 -31 86 -126 63 -170 -10 -19 -21 -20 -179 -20
-133 0 -171 -3 -180 -14 -8 -9 -11 -43 -9 -93 l3 -78 221 -3 c172 -2 224 1
232 11 8 9 6 65 -8 197 -23 235 -35 273 -102 337 -47 45 -76 53 -188 53 l-99
0 2 -55 c1 -39 -3 -59 -15 -71 -26 -26 -48 -11 -48 35 0 50 -38 85 -110 100
-69 15 -69 15 -80 -15z"/>
<path d="M1014 646 c-10 -26 4 -48 28 -44 17 2 23 10 23 28 0 18 -6 26 -23 28
-13 2 -25 -3 -28 -12z"/>
<path d="M1822 643 c-13 -26 -4 -43 24 -43 29 0 41 24 24 45 -17 20 -37 19
-48 -2z"/>
<path d="M365 594 c-33 -35 -85 -144 -85 -177 0 -41 35 -74 93 -87 87 -20 99
-14 113 53 6 32 17 64 23 70 26 26 12 45 -46 58 l-58 14 3 42 c4 52 -11 62
-43 27z"/>
</g>
</svg>
