<?xml version="1.0" standalone="no"?>
<!DOCTYPE svg PUBLIC "-//W3C//DTD SVG 20010904//EN"
 "http://www.w3.org/TR/2001/REC-SVG-20010904/DTD/svg10.dtd">
<svg version="1.0" xmlns="http://www.w3.org/2000/svg"
 width="292" height="134" viewBox="0 0 292 134"
 preserveAspectRatio="xMidYMid meet">

<g transform="translate(0,134) scale(0.1,-0.1)" id="nome">
<path d="M357 1083 c-4 -3 -4 -35 -1 -71 6 -59 6 -64 -12 -60 -14 2 -20 13
-22 45 -3 46 -20 59 -48 38 -18 -12 -17 -15 14 -58 39 -55 40 -74 6 -89 -26
-12 -26 -12 -20 -98 4 -47 10 -88 14 -92 4 -4 38 -8 76 -10 38 -1 75 -7 82
-13 21 -15 34 -114 34 -257 0 -176 -5 -172 174 -127 163 41 302 134 385 258
56 84 74 130 79 196 4 54 2 63 -22 87 -19 18 -45 29 -91 38 -36 7 -71 10 -78
7 -15 -5 -42 -171 -31 -188 3 -5 20 -9 39 -9 21 0 44 -9 60 -23 27 -22 27 -23
12 -60 -19 -45 -88 -91 -158 -106 -28 -6 -86 -11 -130 -11 -96 0 -99 11 -18
53 104 54 149 117 149 210 0 82 -33 115 -146 146 -31 8 -44 18 -57 46 -23 48
-42 47 -32 -2 5 -21 9 -81 10 -133 l2 -95 54 -20 c61 -24 72 -45 40 -79 -27
-29 -155 -90 -173 -83 -11 4 -18 40 -27 144 -17 201 -18 201 -57 218 -19 8
-37 22 -41 32 -4 10 -14 23 -22 29 -13 10 -14 20 -5 62 6 30 7 58 2 67 -9 16
-30 20 -41 8z"/>
<path d="M2140 1040 c-9 -16 -8 -28 4 -52 20 -40 21 -104 1 -112 -15 -5 -45
18 -45 35 0 6 -8 9 -17 7 -15 -3 -16 -16 -14 -113 1 -60 5 -113 7 -117 3 -5
111 -8 239 -8 l235 0 15 -24 c12 -19 18 -65 23 -198 6 -151 9 -173 24 -176 11
-2 26 11 42 37 33 51 34 125 6 237 -24 97 -25 113 -2 121 27 10 32 24 32 86 0
32 7 74 15 94 24 56 15 71 -21 36 -15 -16 -44 -18 -237 -21 -186 -3 -222 -1
-243 13 -27 18 -31 50 -12 102 9 25 9 39 2 51 -16 25 -41 26 -54 2z"/>
<path d="M437 1034 c-9 -10 -9 -84 0 -84 14 0 54 54 51 69 -3 17 -39 27 -51
15z"/>
<path d="M1548 968 c-8 -13 -20 -36 -29 -53 -14 -29 -18 -30 -88 -33 -77 -3
-111 11 -111 48 0 17 -18 40 -33 40 -5 0 -6 -15 -3 -32 4 -18 13 -82 21 -143
8 -60 14 -111 15 -112 0 -2 16 -3 35 -3 47 0 54 -16 65 -162 10 -135 26 -224
42 -234 36 -22 59 107 38 211 -34 169 -33 185 15 185 21 0 22 3 21 100 -1 83
2 102 17 117 18 17 19 17 43 -12 49 -58 57 -77 63 -138 l6 -62 62 -5 c34 -3
65 -8 69 -12 7 -8 20 -121 30 -279 6 -96 15 -119 37 -101 24 20 37 117 37 273
0 166 -10 232 -43 273 -20 25 -32 29 -99 36 l-77 7 -51 57 c-29 31 -56 56 -61
56 -5 0 -14 -10 -21 -22z"/>
<path d="M1210 625 c-16 -19 -5 -47 17 -43 11 2 18 12 18 27 0 29 -17 37 -35
16z"/>
<path d="M1982 618 c-15 -18 1 -41 24 -36 23 4 26 41 3 46 -9 1 -21 -3 -27
-10z"/>
<path d="M2137 548 c-78 -105 -97 -186 -54 -226 30 -28 131 -51 155 -36 10 7
20 30 23 56 4 25 15 60 24 78 18 36 10 49 -30 50 -11 0 -31 6 -45 13 -20 10
-25 20 -25 52 0 50 -17 54 -48 13z"/>
</g>
</svg>
