<?xml version="1.0" standalone="no"?>
<!DOCTYPE svg PUBLIC "-//W3C//DTD SVG 20010904//EN"
 "http://www.w3.org/TR/2001/REC-SVG-20010904/DTD/svg10.dtd">
<svg version="1.0" xmlns="http://www.w3.org/2000/svg"
 width="294" height="138" viewBox="0 0 294 138"
 preserveAspectRatio="xMidYMid meet">

<g transform="translate(0,138) scale(0.1,-0.1)" id="nome">
<path d="M2013 1143 c-15 -6 -17 -59 -3 -68 6 -3 10 -26 10 -51 0 -54 -23 -70
-51 -35 -10 12 -22 20 -26 18 -7 -4 -9 -182 -4 -229 1 -5 106 -8 234 -8 127 0
238 -4 246 -9 20 -13 40 -146 40 -273 1 -60 5 -110 11 -113 6 -3 23 8 40 26
48 53 49 117 6 269 -21 75 -20 89 9 100 14 5 25 15 26 22 0 7 2 41 3 75 2 35
9 77 16 93 16 38 8 47 -22 26 -33 -23 -469 -24 -488 -1 -15 18 -16 53 -5 109
6 28 4 40 -6 47 -15 10 -18 10 -36 2z"/>
<path d="M625 1074 c-9 -9 -19 -29 -22 -45 -8 -44 -26 -52 -106 -50 -78 2 -87
6 -103 53 -6 18 -16 34 -22 36 -15 5 -16 -34 -2 -74 5 -16 13 -69 17 -119 l8
-90 39 -6 c21 -3 42 -12 46 -19 5 -7 11 -68 15 -135 9 -156 25 -239 47 -243
46 -9 58 114 25 261 -21 94 -22 110 -10 123 8 8 23 14 33 14 28 0 32 14 19 65
-9 36 -9 59 0 101 18 79 34 81 90 10 26 -32 31 -48 31 -92 0 -79 4 -84 64 -84
82 0 84 -3 101 -180 21 -205 24 -220 39 -220 28 0 36 63 36 277 0 286 -12 313
-139 313 l-64 0 -57 60 c-32 33 -60 60 -63 60 -3 0 -13 -7 -22 -16z"/>
<path d="M1146 962 c-3 -5 -2 -46 2 -92 7 -79 9 -85 32 -91 14 -4 102 -7 197
-8 94 -1 183 -5 197 -11 51 -19 54 -32 102 -357 5 -32 26 -44 39 -24 12 21 36
232 37 331 1 114 -13 160 -64 207 -51 48 -83 53 -317 53 -121 0 -222 -4 -225
-8z"/>
<path d="M1044 735 c-4 -9 -2 -21 4 -27 16 -16 47 -5 47 17 0 26 -42 34 -51
10z"/>
<path d="M1832 738 c-16 -16 -15 -35 3 -42 20 -7 45 3 45 18 0 13 -20 36 -30
36 -3 0 -11 -5 -18 -12z"/>
<path d="M2006 651 c-26 -28 -86 -153 -86 -179 0 -34 28 -70 63 -81 97 -29
137 -22 137 24 0 13 9 44 20 70 28 65 26 72 -22 80 -70 12 -79 20 -72 65 7 45
-10 54 -40 21z"/>
</g>
</svg>
