<?xml version="1.0" standalone="no"?>
<!DOCTYPE svg PUBLIC "-//W3C//DTD SVG 20010904//EN"
 "http://www.w3.org/TR/2001/REC-SVG-20010904/DTD/svg10.dtd">
<svg version="1.0" xmlns="http://www.w3.org/2000/svg"
 width="294" height="158" viewBox="0 0 294 158"
 preserveAspectRatio="xMidYMid meet">

<g transform="translate(0,158) scale(0.1,-0.1)" id="nome">
<path d="M350 1215 c-11 -14 -11 -21 3 -45 13 -22 15 -34 7 -55 -14 -38 -34
-26 -38 24 -4 47 -24 63 -50 38 -15 -15 -14 -18 4 -39 49 -58 55 -90 19 -106
-23 -11 -25 -16 -25 -87 0 -109 5 -115 94 -115 47 0 77 -5 83 -12 15 -19 33
-180 33 -290 0 -120 5 -126 94 -110 200 37 335 115 433 249 115 157 135 286
51 329 -34 17 -126 34 -145 27 -8 -3 -13 -22 -13 -45 0 -21 -5 -59 -11 -84
-13 -51 -2 -74 37 -74 46 0 74 -21 74 -55 0 -51 -68 -105 -164 -130 -60 -16
-226 -21 -226 -7 0 5 30 23 66 42 86 43 117 70 143 125 26 55 27 120 2 160
-18 30 -75 64 -136 82 -16 4 -34 18 -40 30 -38 75 -63 60 -39 -23 12 -41 15
-77 11 -125 -6 -74 -2 -81 48 -93 30 -7 65 -32 65 -46 0 -31 -173 -131 -193
-111 -5 5 -18 85 -28 178 -9 92 -18 169 -18 170 -1 1 -17 7 -36 13 -19 6 -35
16 -35 20 0 5 -10 18 -21 29 -17 16 -20 27 -15 58 12 72 12 87 -5 91 -9 1 -22
-4 -29 -13z"/>
<path d="M1345 1180 c-3 -10 1 -33 9 -49 20 -39 20 -85 0 -102 -13 -11 -19 -8
-39 17 -13 16 -27 26 -31 21 -9 -9 -5 -229 4 -239 4 -4 113 -9 242 -10 l235
-3 13 -39 c7 -21 15 -108 19 -193 3 -85 10 -156 15 -159 15 -10 66 52 77 93
10 35 7 57 -19 159 -16 66 -30 122 -30 126 0 4 12 13 28 20 26 13 27 17 30 90
2 43 9 90 17 104 19 38 9 49 -22 24 -24 -19 -40 -20 -247 -20 -121 0 -226 4
-232 8 -16 10 -23 71 -13 107 5 16 6 38 3 47 -8 25 -51 24 -59 -2z"/>
<path d="M430 1176 c-13 -16 -6 -66 9 -66 16 0 43 39 39 57 -4 23 -31 28 -48
9z"/>
<path d="M2133 1028 c-6 -7 -14 -40 -17 -73 -13 -118 -16 -108 39 -127 61 -20
63 -27 41 -163 -42 -253 -43 -265 -21 -265 27 0 47 55 101 275 39 159 22 145
176 145 114 0 138 -3 165 -20 40 -24 58 -52 74 -112 21 -76 16 -78 -175 -78
-114 0 -167 -4 -178 -12 -20 -16 -29 -161 -12 -178 13 -13 437 -10 450 2 10
11 -14 310 -32 395 -12 55 -25 84 -54 121 -55 69 -93 83 -210 80 l-95 -3 2
-38 c3 -48 -21 -97 -47 -97 -16 0 -20 7 -20 31 0 65 -47 106 -141 124 -24 4
-39 2 -46 -7z"/>
<path d="M1167 753 c-13 -12 -7 -41 10 -47 9 -4 23 -1 30 7 8 7 11 21 7 30 -6
17 -35 23 -47 10z"/>
<path d="M1974 745 c-9 -23 3 -45 25 -45 23 0 35 28 20 46 -15 18 -38 18 -45
-1z"/>
<path d="M1342 693 c-38 -54 -72 -133 -72 -165 0 -64 50 -98 142 -98 40 0 58
19 58 60 0 12 7 37 16 55 24 51 16 69 -31 73 -56 5 -68 17 -60 64 6 34 4 38
-13 38 -12 0 -29 -12 -40 -27z"/>
</g>
</svg>
