<?xml version="1.0" standalone="no"?>
<!DOCTYPE svg PUBLIC "-//W3C//DTD SVG 20010904//EN"
 "http://www.w3.org/TR/2001/REC-SVG-20010904/DTD/svg10.dtd">
<svg version="1.0" xmlns="http://www.w3.org/2000/svg"
 width="264" height="142" viewBox="0 0 264 142"
 preserveAspectRatio="xMidYMid meet">

<g transform="translate(0,142) scale(0.1,-0.1)" id="nome">
<path d="M1293 1234 c-3 -8 2 -30 12 -48 15 -27 16 -36 5 -55 -15 -30 -28 -16
-32 34 -3 37 -5 40 -33 40 -40 0 -45 -29 -11 -64 15 -16 28 -41 29 -56 2 -23
-3 -30 -23 -35 -24 -6 -25 -9 -25 -86 0 -100 6 -114 50 -114 26 0 38 -7 54
-29 12 -16 21 -36 21 -44 0 -9 4 -18 9 -21 16 -10 24 -85 11 -101 -7 -9 -35
-15 -73 -17 l-62 -3 -8 -65 c-16 -127 -23 -115 68 -118 106 -4 139 3 180 40
31 27 35 36 35 80 0 53 -8 73 -77 187 -25 40 -41 77 -36 81 4 5 22 10 38 12
33 3 33 0 19 116 -5 51 -12 66 -30 79 -30 20 -30 39 1 85 27 40 32 74 13 81
-25 9 -48 -13 -48 -46 -1 -33 -22 -72 -33 -60 -11 11 -8 72 5 92 6 10 8 26 5
35 -8 21 -56 21 -64 0z"/>
<path d="M1777 1236 c-4 -9 -1 -29 4 -46 12 -33 5 -80 -11 -80 -10 0 -14 27
-10 64 2 21 -16 36 -43 36 -29 0 -31 -28 -4 -68 36 -53 37 -74 4 -90 l-27 -13
6 -82 c3 -45 7 -87 9 -94 2 -6 21 -13 42 -15 34 -3 41 -8 65 -53 33 -61 45
-120 28 -140 -9 -10 -32 -15 -75 -15 l-63 0 -6 -62 c-2 -35 -6 -76 -8 -93 l-3
-30 80 -3 c44 -2 95 0 113 3 42 8 99 58 107 94 8 37 -21 112 -80 206 -48 77
-50 95 -12 95 43 0 52 14 39 58 -7 22 -12 58 -12 81 0 36 -4 44 -30 59 -16 9
-30 22 -30 27 0 9 21 45 51 86 17 23 4 49 -25 49 -22 0 -25 -5 -28 -42 -2 -30
-8 -43 -18 -43 -15 0 -16 8 -8 90 3 26 -1 30 -23 33 -17 2 -29 -3 -32 -12z"/>
<path d="M827 1063 c-14 -26 -35 -57 -47 -68 -43 -39 -43 -51 0 -92 48 -44 51
-76 7 -81 -34 -4 -50 6 -156 97 -45 39 -103 83 -129 97 -26 15 -62 38 -80 51
-17 13 -36 22 -41 19 -5 -3 -9 -35 -9 -71 0 -36 -3 -78 -6 -93 -7 -34 -1 -42
52 -76 48 -30 48 -28 27 -166 -14 -92 -22 -128 -44 -198 -10 -34 -6 -62 10
-62 4 0 30 5 58 11 57 12 91 0 91 -31 0 -13 7 -20 19 -20 20 0 54 67 66 131 9
49 -23 86 -90 104 l-50 13 2 45 c0 24 6 54 12 66 13 24 27 20 71 -20 214 -194
327 -279 371 -279 22 0 39 29 39 64 0 14 9 49 20 77 22 61 19 73 -20 64 -25
-6 -39 2 -105 57 -41 34 -75 66 -75 70 0 4 34 30 75 58 44 30 80 62 86 76 13
35 -11 83 -61 123 -21 17 -40 41 -42 53 -5 38 -26 31 -51 -19z"/>
<path d="M1107 784 c-4 -4 -7 -16 -7 -26 0 -13 7 -18 26 -18 21 0 25 4 22 22
-3 23 -27 35 -41 22z"/>
<path d="M1567 784 c-14 -15 -6 -43 14 -49 25 -8 42 6 37 31 -3 19 -38 31 -51
18z"/>
</g>
</svg>
