<?xml version="1.0" standalone="no"?>
<!DOCTYPE svg PUBLIC "-//W3C//DTD SVG 20010904//EN"
 "http://www.w3.org/TR/2001/REC-SVG-20010904/DTD/svg10.dtd">
<svg version="1.0" xmlns="http://www.w3.org/2000/svg"
 width="274" height="156" viewBox="0 0 274 156"
 preserveAspectRatio="xMidYMid meet">

<g transform="translate(0,156) scale(0.1,-0.1)" id="nome">
<path d="M553 1343 c-15 -5 -17 -44 -4 -58 5 -6 11 -33 15 -62 7 -56 3 -62
-48 -73 -27 -5 -31 -10 -28 -36 1 -16 3 -56 5 -89 l2 -60 225 -6 c124 -3 239
-9 257 -13 18 -4 46 -23 64 -43 26 -30 30 -42 25 -72 -3 -19 -17 -46 -31 -60
-21 -21 -36 -26 -93 -29 l-69 -4 -7 -86 c-7 -90 -3 -102 39 -102 78 0 158 58
202 148 24 50 28 69 28 147 0 50 -6 109 -13 132 -18 60 -70 124 -122 151 -41
20 -58 22 -210 22 -91 0 -171 4 -179 9 -10 7 -15 33 -15 97 -1 91 -7 103 -43
87z"/>
<path d="M1418 1343 c0 -5 -2 -37 -2 -73 -1 -46 -5 -64 -13 -62 -8 1 -13 -8
-13 -22 0 -19 -8 -27 -35 -36 l-34 -11 5 -67 c8 -104 11 -112 40 -112 42 0 59
-16 88 -80 27 -60 36 -113 22 -128 -4 -4 -38 -9 -74 -12 l-67 -5 -7 -65 c-4
-36 -9 -76 -10 -90 -3 -25 -2 -25 82 -28 47 -2 101 2 122 7 44 14 98 72 98
108 0 27 -34 100 -94 198 -20 32 -35 64 -33 69 2 6 18 15 36 20 l33 9 -7 61
c-10 98 -15 112 -40 126 -14 7 -25 19 -25 25 0 7 -9 20 -20 30 -23 20 -26 52
-9 89 9 20 9 29 -1 41 -13 16 -39 20 -42 8z"/>
<path d="M1333 1299 c-13 -13 -4 -38 28 -72 16 -17 19 -18 24 -5 4 9 5 31 3
50 -3 36 -32 50 -55 27z"/>
<path d="M1497 1304 c-10 -10 -9 -56 2 -72 6 -11 13 -7 30 14 12 15 20 35 19
43 -3 17 -39 27 -51 15z"/>
<path d="M1814 1158 c-5 -7 -12 -40 -17 -73 -16 -112 -17 -109 30 -120 66 -16
69 -22 54 -118 -14 -87 -27 -177 -38 -266 -5 -43 -3 -53 8 -49 32 11 52 66
106 288 14 58 30 111 36 118 7 8 49 12 148 12 l139 0 38 -35 c30 -26 42 -47
52 -89 20 -86 20 -86 -180 -86 -122 0 -170 -3 -178 -12 -5 -7 -12 -49 -13 -93
l-4 -80 230 0 230 0 -1 60 c-1 145 -24 336 -44 382 -53 121 -105 152 -254 153
l-99 0 7 -40 c8 -48 -15 -100 -43 -100 -14 0 -20 10 -24 41 -9 65 -45 94 -144
114 -21 4 -34 2 -39 -7z"/>
<path d="M1237 873 c-11 -10 -8 -41 4 -49 16 -9 43 21 36 40 -7 16 -28 21 -40
9z"/>
<path d="M1687 873 c-4 -3 -7 -17 -7 -30 0 -16 6 -23 20 -23 25 0 36 25 20 45
-14 16 -23 19 -33 8z"/>
<path d="M525 809 c-4 -6 -2 -29 4 -52 6 -23 12 -55 13 -72 2 -22 9 -31 28
-35 14 -3 30 -17 37 -30 9 -21 48 -205 85 -407 20 -110 73 -34 72 102 0 58
-10 91 -68 247 -26 70 -24 81 19 90 15 3 19 10 17 28 -9 92 -16 126 -26 132
-18 12 -174 9 -181 -3z"/>
</g>
</svg>
