<?xml version="1.0" standalone="no"?>
<!DOCTYPE svg PUBLIC "-//W3C//DTD SVG 20010904//EN"
 "http://www.w3.org/TR/2001/REC-SVG-20010904/DTD/svg10.dtd">
<svg version="1.0" xmlns="http://www.w3.org/2000/svg"
 width="260" height="112" viewBox="0 0 260 112"
 preserveAspectRatio="xMidYMid meet">

<g transform="translate(0,112) scale(0.1,-0.1)" id="nome">
<path d="M420 935 c-11 -13 -11 -22 3 -51 23 -48 23 -104 -1 -104 -9 0 -23 9
-30 20 -19 31 -35 25 -28 -12 3 -18 11 -69 19 -114 7 -44 17 -86 21 -92 5 -9
63 -12 199 -13 106 -1 206 -4 222 -8 l30 -6 0 -95 0 -95 -235 -5 c-129 -3
-236 -7 -238 -8 -1 -1 -1 -44 0 -94 l3 -93 269 -3 c187 -2 273 1 282 9 7 6 16
27 19 48 3 20 14 64 25 97 29 89 24 117 -14 79 -26 -26 -33 -17 -39 53 -12
117 -8 237 8 283 18 49 9 67 -24 49 -26 -13 -420 -15 -433 -2 -8 8 -11 56 -6
127 3 34 0 40 -18 43 -11 2 -27 -4 -34 -13z"/>
<path d="M2004 773 c3 -16 11 -64 17 -108 7 -44 16 -86 22 -92 6 -8 33 -13 68
-13 69 0 62 20 83 -208 15 -160 19 -182 35 -182 24 0 31 62 31 276 0 292 -4
301 -144 315 -48 4 -71 11 -78 23 -5 9 -16 16 -25 16 -12 0 -14 -7 -9 -27z"/>
<path d="M1196 768 c-10 -36 -27 -169 -22 -177 3 -4 26 -14 51 -21 25 -7 48
-16 50 -20 3 -5 -7 -79 -21 -167 -35 -217 -38 -243 -28 -243 27 1 57 56 74
135 15 71 60 239 70 263 9 21 14 22 151 22 125 0 144 -2 169 -20 52 -37 88
-148 58 -178 -8 -8 -61 -12 -172 -12 -89 0 -166 -4 -172 -8 -7 -4 -13 -43 -15
-92 l-4 -85 225 0 225 0 -1 85 c-1 172 -22 324 -51 385 -22 44 -73 94 -112
111 -21 9 -69 14 -134 14 l-100 0 6 -37 c4 -24 1 -48 -10 -70 -22 -47 -46 -40
-54 14 -7 55 -30 79 -94 98 -64 18 -85 19 -89 3z"/>
<path d="M1080 495 c-11 -13 -11 -18 2 -31 20 -20 50 -7 46 20 -4 26 -30 32
-48 11z"/>
<path d="M1921 491 c-13 -23 8 -45 33 -35 19 7 21 25 4 42 -17 17 -26 15 -37
-7z"/>
</g>
</svg>
