<?xml version="1.0" standalone="no"?>
<!DOCTYPE svg PUBLIC "-//W3C//DTD SVG 20010904//EN"
 "http://www.w3.org/TR/2001/REC-SVG-20010904/DTD/svg10.dtd">
<svg version="1.0" xmlns="http://www.w3.org/2000/svg"
 width="220" height="140" viewBox="0 0 220 140"
 preserveAspectRatio="xMidYMid meet">

<g transform="translate(0,140) scale(0.1,-0.1)" id="nome">
<path d="M855 1120 c-3 -10 -1 -29 5 -41 13 -23 6 -84 -10 -94 -10 -6 -13 10
-14 69 -1 32 -25 53 -50 43 -24 -10 -19 -35 15 -74 36 -41 36 -74 -1 -83 -25
-6 -25 -7 -21 -96 2 -49 5 -91 7 -93 2 -2 21 -7 41 -10 33 -5 41 -13 64 -56
30 -57 43 -113 30 -134 -5 -8 -35 -16 -72 -20 l-64 -6 -6 -55 c-4 -30 -11 -69
-17 -87 -5 -17 -8 -34 -4 -37 3 -3 50 -6 104 -6 110 0 143 11 177 59 34 47 27
83 -39 207 -33 62 -60 117 -60 123 0 6 11 11 24 11 40 0 46 18 35 100 -8 60
-15 79 -34 95 -32 27 -31 37 6 92 28 40 30 47 16 60 -23 23 -47 9 -47 -27 0
-39 -29 -87 -41 -68 -13 20 -10 56 7 89 12 24 13 34 3 45 -17 20 -47 17 -54
-6z"/>
<path d="M1311 1122 c-6 -11 -6 -24 0 -35 15 -25 7 -72 -11 -72 -11 0 -16 13
-18 43 -3 40 -5 43 -30 40 -30 -3 -40 -28 -20 -49 51 -52 61 -95 24 -109 -30
-11 -34 -24 -25 -75 5 -22 8 -56 9 -76 0 -44 12 -49 111 -49 80 0 78 3 86
-136 l6 -101 -57 -22 c-31 -11 -62 -21 -69 -21 -7 0 -23 -7 -35 -16 -17 -12
-22 -25 -22 -58 0 -24 -7 -60 -15 -79 -19 -47 -19 -47 8 -47 29 0 270 95 312
123 36 24 115 98 115 108 0 4 22 43 49 86 105 170 131 248 100 305 -11 21
-126 78 -157 78 -15 0 -23 -14 -37 -65 -9 -36 -21 -68 -26 -71 -5 -3 -9 -16
-9 -29 0 -19 9 -26 55 -40 81 -26 84 -34 38 -107 -22 -35 -54 -73 -72 -85 -29
-20 -107 -40 -116 -31 -3 2 -14 91 -24 198 -20 194 -25 209 -62 210 -31 0 -30
31 2 81 34 54 33 82 -3 77 -16 -2 -24 -11 -26 -28 -6 -52 -13 -70 -28 -70 -14
0 -16 9 -10 70 7 66 6 70 -13 70 -11 0 -25 -8 -30 -18z"/>
<path d="M326 981 c-4 -6 -3 -26 3 -44 5 -17 13 -65 17 -105 4 -40 11 -75 17
-79 6 -3 30 -5 54 -4 73 2 79 -5 87 -111 6 -85 23 -280 25 -285 1 -2 8 -3 16
-3 34 0 40 39 40 275 0 209 -2 233 -19 258 -27 40 -67 57 -133 57 -50 0 -60 3
-79 27 -14 18 -23 23 -28 14z"/>
<path d="M670 725 c-17 -20 -5 -45 20 -45 11 0 23 7 26 15 6 15 -11 45 -26 45
-4 0 -13 -7 -20 -15z"/>
<path d="M1113 719 c-17 -17 -4 -39 24 -39 20 0 24 4 21 22 -3 26 -28 34 -45
17z"/>
</g>
</svg>
