<?xml version="1.0" standalone="no"?>
<!DOCTYPE svg PUBLIC "-//W3C//DTD SVG 20010904//EN"
 "http://www.w3.org/TR/2001/REC-SVG-20010904/DTD/svg10.dtd">
<svg version="1.0" xmlns="http://www.w3.org/2000/svg"
 width="282" height="132" viewBox="0 0 282 132"
 preserveAspectRatio="xMidYMid meet">

<g transform="translate(0,132) scale(0.1,-0.1)" id="nome">
<path d="M816 953 c-4 -5 -13 -21 -20 -38 -7 -16 -30 -50 -50 -73 -20 -24 -36
-48 -36 -52 0 -5 18 -24 40 -41 46 -37 51 -64 14 -81 -31 -14 -44 -7 -132 71
-84 73 -160 130 -202 150 -19 9 -41 24 -48 34 -29 39 -39 20 -45 -85 -5 -95
-4 -104 15 -118 11 -8 33 -26 49 -40 l30 -25 -15 -96 c-9 -53 -23 -125 -32
-160 -34 -134 -34 -134 50 -121 63 10 86 1 86 -33 0 -18 6 -25 19 -25 13 0 26
18 45 59 41 91 43 115 13 145 -14 14 -38 28 -54 31 -55 12 -73 24 -73 49 0 43
13 88 26 93 14 5 78 -43 164 -124 124 -115 232 -187 273 -181 17 2 23 14 33
70 7 36 18 76 24 88 18 33 5 53 -28 45 -24 -5 -39 3 -100 52 -39 32 -71 63
-71 70 -1 6 31 33 70 59 38 26 75 56 80 67 19 34 1 83 -41 120 -22 19 -45 48
-51 65 -11 32 -19 38 -33 25z"/>
<path d="M2402 898 c-16 -29 -39 -62 -51 -72 -30 -27 -26 -49 15 -84 45 -39
45 -75 -1 -80 -25 -2 -45 10 -119 73 -110 94 -139 116 -196 146 -25 13 -51 32
-58 42 -23 31 -30 19 -35 -65 -3 -46 -7 -94 -9 -107 -2 -19 7 -31 42 -56 32
-22 46 -40 48 -59 5 -40 -27 -221 -50 -290 -18 -53 -19 -59 -4 -74 12 -13 20
-13 41 -4 34 15 88 15 103 0 7 -7 12 -20 12 -31 0 -12 6 -17 18 -15 24 4 62
89 64 143 3 51 -12 67 -77 87 -62 18 -68 27 -58 89 5 35 13 55 23 56 8 2 85
-58 170 -133 90 -78 177 -146 208 -161 51 -24 54 -24 73 -7 10 9 19 29 19 44
0 15 7 50 16 78 20 61 14 88 -16 72 -23 -12 -17 -15 -118 64 -34 27 -61 54
-59 60 2 6 32 30 67 54 78 53 89 67 90 110 0 27 -9 43 -49 81 -27 26 -50 56
-52 66 -7 35 -27 26 -57 -27z"/>
<path d="M1154 885 c-4 -8 -1 -35 4 -58 6 -23 10 -60 9 -82 l-2 -40 235 -5
c249 -5 261 -8 299 -56 29 -37 26 -65 -13 -110 l-34 -39 -225 -3 c-163 -2
-228 -6 -236 -15 -6 -8 -7 -26 -1 -52 5 -22 10 -59 10 -82 l0 -43 133 -2 c289
-6 324 1 391 72 63 67 76 104 76 217 0 108 -14 145 -83 220 -77 84 -92 88
-340 91 -192 3 -218 2 -223 -13z"/>
<path d="M1055 637 c-23 -17 -14 -47 15 -47 26 0 37 27 18 46 -12 12 -17 12
-33 1z"/>
<path d="M1870 624 c-11 -12 -10 -18 3 -32 16 -15 18 -15 33 0 19 18 12 48 -9
48 -8 0 -20 -7 -27 -16z"/>
</g>
</svg>
