<?xml version="1.0" standalone="no"?>
<!DOCTYPE svg PUBLIC "-//W3C//DTD SVG 20010904//EN"
 "http://www.w3.org/TR/2001/REC-SVG-20010904/DTD/svg10.dtd">
<svg version="1.0" xmlns="http://www.w3.org/2000/svg"
 width="700.000000pt" height="700.000000pt" viewBox="0 0 700.000000 700.000000"
 preserveAspectRatio="xMidYMid meet">
<metadata>
Created by potrace 1.14, written by Peter Selinger 2001-2017
</metadata>
<g transform="translate(0.000000,700.000000) scale(0.100000,-0.100000)"
fill="#000000" stroke="none">
<path d="M3265 6989 c-227 -23 -537 -98 -682 -164 -17 -8 -34 -15 -37 -15 -3
0 -54 -23 -113 -51 -421 -202 -774 -510 -1035 -904 -329 -496 -467 -1094 -392
-1705 20 -171 97 -458 163 -615 108 -258 255 -496 426 -695 38 -44 221 -227
260 -260 113 -96 281 -213 425 -295 169 -97 303 -275 326 -435 3 -19 7 -41 10
-49 2 -8 5 -225 4 -482 0 -271 4 -489 10 -520 13 -68 52 -152 95 -204 64 -79
191 -148 290 -157 l39 -4 13 -64 c62 -304 367 -457 634 -318 117 61 207 179
226 296 4 26 8 50 9 55 1 4 2 13 3 20 1 8 15 14 36 15 132 5 287 108 351 234
49 97 52 134 52 641 1 482 4 527 41 627 65 171 135 242 401 405 174 107 313
218 465 371 110 110 111 112 207 235 132 169 273 418 353 624 30 76 100 302
108 350 3 17 8 41 12 55 3 14 8 41 11 60 2 19 8 49 11 65 30 143 35 511 9 698
-13 91 -30 182 -48 252 -11 44 -21 88 -23 98 -7 34 -87 262 -113 322 -271 619
-771 1107 -1382 1348 -138 54 -339 113 -450 132 -19 3 -42 8 -50 10 -8 2 -42
7 -75 11 -33 3 -69 8 -80 11 -34 8 -436 10 -510 2z"/>
</g>
</svg>
